<ttFont>
<head>
    <!-- Most of this table will be recalculated by the compiler -->
    <tableVersion value="1.0"/>
    <fontRevision value="1.00099"/>
    <checkSumAdjustment value="0x77b96fc6"/>
    <magicNumber value="0x5f0f3cf5"/>
    <flags value="00000000 00000001"/>
    <unitsPerEm value="1000"/>
    <created value="Fri Mar 11 14:19:27 2016"/>
    <modified value="Fri Mar 11 14:19:28 2016"/>
    <xMin value="-489"/>
    <yMin value="-414"/>
    <xMax value="1127"/>
    <yMax value="909"/>
    <macStyle value="00000000 00000000"/>
    <lowestRecPPEM value="6"/>
    <fontDirectionHint value="2"/>
    <indexToLocFormat value="0"/>
    <glyphDataFormat value="0"/>
  </head>
    <TTGlyph name=".notdef" xMin="64" yMin="0" xMax="579" yMax="515">
      <contour>
        <pt x="64" y="0" on="1"/>
        <pt x="64" y="515" on="1"/>
        <pt x="579" y="515" on="1"/>
        <pt x="579" y="0" on="1"/>
      </contour>
      <contour>
        <pt x="160" y="141" on="1"/>
        <pt x="203" y="92" on="1"/>
        <pt x="321" y="220" on="1"/>
        <pt x="444" y="92" on="1"/>
        <pt x="485" y="133" on="1"/>
        <pt x="358" y="257" on="1"/>
        <pt x="485" y="379" on="1"/>
        <pt x="441" y="421" on="1"/>
        <pt x="322" y="293" on="1"/>
        <pt x="201" y="421" on="1"/>
        <pt x="160" y="379" on="1"/>
        <pt x="285" y="256" on="1"/>
      </contour>
    </TTGlyph>
    <TTGlyph name="A" xMin="-4" yMin="0" xMax="580" yMax="570">
      <contour>
        <pt x="343" y="225" on="1"/>
        <pt x="261" y="477" on="1"/>
        <pt x="183" y="225" on="1"/>
      </contour>
      <contour>
        <pt x="201" y="47" on="1"/>
        <pt x="201" y="0" on="1"/>
        <pt x="-4" y="0" on="1"/>
        <pt x="-4" y="47" on="1"/>
        <pt x="44" y="59" on="1"/>
        <pt x="51" y="61" on="0"/>
        <pt x="62" y="70" on="0"/>
        <pt x="64" y="77" on="1"/>
        <pt x="232" y="570" on="1"/>
        <pt x="344" y="570" on="1"/>
        <pt x="515" y="77" on="1"/>
        <pt x="518" y="70" on="0"/>
        <pt x="528" y="61" on="0"/>
        <pt x="536" y="59" on="1"/>
        <pt x="580" y="47" on="1"/>
        <pt x="580" y="0" on="1"/>
        <pt x="326" y="0" on="1"/>
        <pt x="326" y="47" on="1"/>
        <pt x="397" y="60" on="1"/>
        <pt x="362" y="169" on="1"/>
        <pt x="165" y="169" on="1"/>
        <pt x="131" y="60" on="1"/>
      </contour>
    </TTGlyph>
    <TTGlyph name="AE" xMin="-5" yMin="0" xMax="744" yMax="568">
      <contour>
        <pt x="327" y="512" on="1"/>
        <pt x="221" y="259" on="1"/>
        <pt x="365" y="259" on="1"/>
        <pt x="365" y="512" on="1"/>
      </contour>
      <contour>
        <pt x="208" y="47" on="1"/>
        <pt x="208" y="0" on="1"/>
        <pt x="-5" y="0" on="1"/>
        <pt x="-5" y="47" on="1"/>
        <pt x="48" y="59" on="1"/>
        <pt x="55" y="60" on="0"/>
        <pt x="64" y="69" on="0"/>
        <pt x="68" y="76" on="1"/>
        <pt x="252" y="504" on="1"/>
        <pt x="159" y="519" on="1"/>
        <pt x="159" y="568" on="1"/>
        <pt x="711" y="568" on="1"/>
        <pt x="715" y="531" on="0"/>
        <pt x="715" y="457" on="0"/>
        <pt x="712" y="418" on="1"/>
        <pt x="655" y="418" on="1"/>
        <pt x="637" y="486" on="1"/>
        <pt x="635" y="495" on="0"/>
        <pt x="624" y="505" on="0"/>
        <pt x="616" y="509" on="1"/>
        <pt x="606" y="513" on="0"/>
        <pt x="570" y="517" on="0"/>
        <pt x="550" y="517" on="1"/>
        <pt x="479" y="517" on="1"/>
        <pt x="479" y="316" on="1"/>
        <pt x="642" y="322" on="1"/>
        <pt x="642" y="254" on="1"/>
        <pt x="479" y="258" on="1"/>
        <pt x="479" y="54" on="1"/>
        <pt x="567" y="54" on="1"/>
        <pt x="587" y="54" on="0"/>
        <pt x="628" y="58" on="0"/>
        <pt x="638" y="62" on="1"/>
        <pt x="646" y="66" on="0"/>
        <pt x="654" y="76" on="0"/>
        <pt x="657" y="86" on="1"/>
        <pt x="688" y="172" on="1"/>
        <pt x="744" y="163" on="1"/>
        <pt x="744" y="122" on="0"/>
        <pt x="737" y="42" on="0"/>
        <pt x="730" y="0" on="1"/>
        <pt x="290" y="0" on="1"/>
        <pt x="290" y="47" on="1"/>
        <pt x="348" y="58" on="1"/>
        <pt x="356" y="59" on="0"/>
        <pt x="365" y="70" on="0"/>
        <pt x="365" y="79" on="1"/>
        <pt x="365" y="202" on="1"/>
        <pt x="197" y="202" on="1"/>
        <pt x="136" y="58" on="1"/>
      </contour>
    </TTGlyph>
    <TTGlyph name="Aacute" xMin="-4" yMin="0" xMax="580" yMax="769">
      <component glyphName="A" x="0" y="0" flags="0x204"/>
      <component glyphName="acutecomb.case" x="289" y="0" flags="0x4"/>
    </TTGlyph>
    <TTGlyph name="Abreve" xMin="-4" yMin="0" xMax="580" yMax="752">
      <component glyphName="A" x="0" y="0" flags="0x204"/>
      <component glyphName="uni0306.case" x="289" y="0" flags="0x4"/>
    </TTGlyph>
    <TTGlyph name="Acircumflex" xMin="-4" yMin="0" xMax="580" yMax="759">
      <component glyphName="A" x="0" y="0" flags="0x204"/>
      <component glyphName="uni0302.case" x="289" y="0" flags="0x4"/>
    </TTGlyph>
    <TTGlyph name="Adieresis" xMin="-4" yMin="0" xMax="580" yMax="731">
      <component glyphName="A" x="0" y="0" flags="0x204"/>
      <component glyphName="uni0308.case" x="289" y="0" flags="0x4"/>
    </TTGlyph>
    <TTGlyph name="Agrave" xMin="-4" yMin="0" xMax="580" yMax="773">
      <component glyphName="A" x="0" y="0" flags="0x204"/>
      <component glyphName="gravecomb.case" x="289" y="0" flags="0x4"/>
    </TTGlyph>
    <TTGlyph name="Amacron" xMin="-4" yMin="0" xMax="580" yMax="704">
      <component glyphName="A" x="0" y="0" flags="0x204"/>
      <component glyphName="uni0304.case" x="289" y="0" flags="0x4"/>
    </TTGlyph>
    <TTGlyph name="Aogonek" xMin="-4" yMin="-189" xMax="580" yMax="570">
      <contour>
        <pt x="343" y="225" on="1"/>
        <pt x="261" y="477" on="1"/>
        <pt x="183" y="225" on="1"/>
      </contour>
      <contour>
        <pt x="557" y="-161" on="1"/>
        <pt x="537" y="-174" on="0"/>
        <pt x="480" y="-189" on="0"/>
        <pt x="454" y="-189" on="1"/>
        <pt x="413" y="-188" on="0"/>
        <pt x="356" y="-151" on="0"/>
        <pt x="356" y="-114" on="1"/>
        <pt x="356" y="-75" on="0"/>
        <pt x="419" y="-16" on="0"/>
        <pt x="459" y="-2" on="1"/>
        <pt x="459" y="0" on="1"/>
        <pt x="326" y="0" on="1"/>
        <pt x="326" y="47" on="1"/>
        <pt x="397" y="60" on="1"/>
        <pt x="362" y="169" on="1"/>
        <pt x="165" y="169" on="1"/>
        <pt x="131" y="60" on="1"/>
        <pt x="201" y="47" on="1"/>
        <pt x="201" y="0" on="1"/>
        <pt x="-4" y="0" on="1"/>
        <pt x="-4" y="47" on="1"/>
        <pt x="44" y="59" on="1"/>
        <pt x="51" y="61" on="0"/>
        <pt x="62" y="70" on="0"/>
        <pt x="64" y="77" on="1"/>
        <pt x="232" y="570" on="1"/>
        <pt x="344" y="570" on="1"/>
        <pt x="515" y="77" on="1"/>
        <pt x="518" y="70" on="0"/>
        <pt x="528" y="61" on="0"/>
        <pt x="536" y="59" on="1"/>
        <pt x="580" y="47" on="1"/>
        <pt x="580" y="0" on="1"/>
        <pt x="536" y="0" on="1"/>
        <pt x="496" y="-13" on="0"/>
        <pt x="447" y="-62" on="0"/>
        <pt x="447" y="-87" on="1"/>
        <pt x="447" y="-106" on="0"/>
        <pt x="475" y="-126" on="0"/>
        <pt x="496" y="-126" on="1"/>
        <pt x="506" y="-126" on="0"/>
        <pt x="529" y="-120" on="0"/>
        <pt x="539" y="-116" on="1"/>
      </contour>
    </TTGlyph>
    <TTGlyph name="Aring" xMin="-4" yMin="0" xMax="580" yMax="745">
      <component glyphName="A" x="0" y="0" flags="0x204"/>
      <component glyphName="uni030A.case.low" x="289" y="0" flags="0x4"/>
    </TTGlyph>
    <TTGlyph name="Atilde" xMin="-4" yMin="0" xMax="580" yMax="740">
      <component glyphName="A" x="0" y="0" flags="0x204"/>
      <component glyphName="tildecomb.case" x="289" y="0" flags="0x4"/>
    </TTGlyph>
    <TTGlyph name="B" xMin="35" yMin="-4" xMax="535" yMax="573">
      <contour>
        <pt x="295" y="-4" on="1"/>
        <pt x="258" y="-4" on="0"/>
        <pt x="206" y="0" on="0"/>
        <pt x="169" y="0" on="1"/>
        <pt x="35" y="0" on="1"/>
        <pt x="35" y="47" on="1"/>
        <pt x="94" y="58" on="1"/>
        <pt x="101" y="59" on="0"/>
        <pt x="110" y="70" on="0"/>
        <pt x="110" y="77" on="1"/>
        <pt x="110" y="489" on="1"/>
        <pt x="110" y="496" on="0"/>
        <pt x="101" y="506" on="0"/>
        <pt x="94" y="507" on="1"/>
        <pt x="35" y="519" on="1"/>
        <pt x="35" y="568" on="1"/>
        <pt x="168" y="568" on="1"/>
        <pt x="203" y="568" on="0"/>
        <pt x="262" y="573" on="0"/>
        <pt x="299" y="573" on="1"/>
        <pt x="412" y="573" on="0"/>
        <pt x="497" y="505" on="0"/>
        <pt x="497" y="440" on="1"/>
        <pt x="497" y="386" on="0"/>
        <pt x="443" y="316" on="0"/>
        <pt x="397" y="303" on="1"/>
        <pt x="457" y="299" on="0"/>
        <pt x="535" y="230" on="0"/>
        <pt x="535" y="168" on="1"/>
        <pt x="535" y="95" on="0"/>
        <pt x="433" y="-4" on="0"/>
      </contour>
      <contour>
        <pt x="292" y="319" on="1"/>
        <pt x="336" y="319" on="0"/>
        <pt x="379" y="375" on="0"/>
        <pt x="379" y="428" on="1"/>
        <pt x="379" y="479" on="0"/>
        <pt x="334" y="526" on="0"/>
        <pt x="283" y="526" on="1"/>
        <pt x="272" y="526" on="0"/>
        <pt x="235" y="523" on="0"/>
        <pt x="228" y="522" on="1"/>
        <pt x="228" y="320" on="1"/>
        <pt x="247" y="319" on="0"/>
        <pt x="282" y="319" on="0"/>
      </contour>
      <contour>
        <pt x="290" y="45" on="1"/>
        <pt x="351" y="45" on="0"/>
        <pt x="404" y="105" on="0"/>
        <pt x="404" y="162" on="1"/>
        <pt x="404" y="219" on="0"/>
        <pt x="352" y="266" on="0"/>
        <pt x="300" y="266" on="1"/>
        <pt x="287" y="266" on="0"/>
        <pt x="248" y="265" on="0"/>
        <pt x="228" y="265" on="1"/>
        <pt x="228" y="50" on="1"/>
        <pt x="240" y="48" on="0"/>
        <pt x="274" y="45" on="0"/>
      </contour>
    </TTGlyph>
    <TTGlyph name="C" xMin="38" yMin="-12" xMax="490" yMax="578">
      <contour>
        <pt x="298" y="-12" on="1"/>
        <pt x="167" y="-12" on="0"/>
        <pt x="38" y="137" on="0"/>
        <pt x="38" y="273" on="1"/>
        <pt x="38" y="428" on="0"/>
        <pt x="191" y="578" on="0"/>
        <pt x="317" y="578" on="1"/>
        <pt x="357" y="578" on="0"/>
        <pt x="449" y="563" on="0"/>
        <pt x="488" y="549" on="1"/>
        <pt x="490" y="515" on="0"/>
        <pt x="487" y="435" on="0"/>
        <pt x="480" y="393" on="1"/>
        <pt x="410" y="393" on="1"/>
        <pt x="391" y="483" on="1"/>
        <pt x="389" y="490" on="0"/>
        <pt x="380" y="506" on="0"/>
        <pt x="371" y="511" on="1"/>
        <pt x="361" y="518" on="0"/>
        <pt x="324" y="528" on="0"/>
        <pt x="304" y="528" on="1"/>
        <pt x="242" y="528" on="0"/>
        <pt x="172" y="415" on="0"/>
        <pt x="172" y="287" on="1"/>
        <pt x="172" y="170" on="0"/>
        <pt x="235" y="39" on="0"/>
        <pt x="306" y="39" on="1"/>
        <pt x="326" y="39" on="0"/>
        <pt x="365" y="51" on="0"/>
        <pt x="378" y="61" on="1"/>
        <pt x="383" y="65" on="0"/>
        <pt x="391" y="78" on="0"/>
        <pt x="394" y="88" on="1"/>
        <pt x="419" y="169" on="1"/>
        <pt x="488" y="164" on="1"/>
        <pt x="490" y="132" on="0"/>
        <pt x="487" y="56" on="0"/>
        <pt x="481" y="19" on="1"/>
        <pt x="444" y="6" on="0"/>
        <pt x="345" y="-12" on="0"/>
      </contour>
    </TTGlyph>
    <TTGlyph name="Cacute" xMin="38" yMin="-12" xMax="490" yMax="769">
      <component glyphName="C" x="0" y="0" flags="0x204"/>
      <component glyphName="acutecomb.case" x="305" y="0" flags="0x4"/>
    </TTGlyph>
    <TTGlyph name="Ccaron" xMin="38" yMin="-12" xMax="490" yMax="765">
      <component glyphName="C" x="0" y="0" flags="0x204"/>
      <component glyphName="uni030C.case" x="305" y="0" flags="0x4"/>
    </TTGlyph>
    <TTGlyph name="Ccedilla" xMin="38" yMin="-191" xMax="490" yMax="578">
      <component glyphName="C" x="0" y="0" flags="0x204"/>
      <component glyphName="uni0327" x="291" y="0" flags="0x4"/>
    </TTGlyph>
    <TTGlyph name="Ccircumflex" xMin="38" yMin="-12" xMax="490" yMax="759">
      <component glyphName="C" x="0" y="0" flags="0x204"/>
      <component glyphName="uni0302.case" x="305" y="0" flags="0x4"/>
    </TTGlyph>
    <TTGlyph name="Cdotaccent" xMin="38" yMin="-12" xMax="490" yMax="744">
      <component glyphName="C" x="0" y="0" flags="0x204"/>
      <component glyphName="uni0307.case" x="305" y="0" flags="0x4"/>
    </TTGlyph>
    <TTGlyph name="D" xMin="35" yMin="-8" xMax="574" yMax="573">
      <contour>
        <pt x="168" y="568" on="1"/>
        <pt x="204" y="568" on="0"/>
        <pt x="266" y="573" on="0"/>
        <pt x="298" y="573" on="1"/>
        <pt x="437" y="573" on="0"/>
        <pt x="574" y="439" on="0"/>
        <pt x="574" y="302" on="1"/>
        <pt x="574" y="151" on="0"/>
        <pt x="422" y="-8" on="0"/>
        <pt x="289" y="-6" on="1"/>
        <pt x="264" y="-5" on="0"/>
        <pt x="193" y="0" on="0"/>
        <pt x="169" y="0" on="1"/>
        <pt x="35" y="0" on="1"/>
        <pt x="35" y="47" on="1"/>
        <pt x="94" y="58" on="1"/>
        <pt x="101" y="59" on="0"/>
        <pt x="110" y="70" on="0"/>
        <pt x="110" y="77" on="1"/>
        <pt x="110" y="489" on="1"/>
        <pt x="110" y="496" on="0"/>
        <pt x="101" y="506" on="0"/>
        <pt x="94" y="507" on="1"/>
        <pt x="35" y="519" on="1"/>
        <pt x="35" y="568" on="1"/>
      </contour>
      <contour>
        <pt x="229" y="54" on="1"/>
        <pt x="240" y="50" on="0"/>
        <pt x="277" y="46" on="0"/>
        <pt x="293" y="46" on="1"/>
        <pt x="365" y="47" on="0"/>
        <pt x="444" y="153" on="0"/>
        <pt x="444" y="284" on="1"/>
        <pt x="444" y="400" on="0"/>
        <pt x="370" y="524" on="0"/>
        <pt x="286" y="524" on="1"/>
        <pt x="266" y="524" on="0"/>
        <pt x="235" y="518" on="0"/>
        <pt x="229" y="517" on="1"/>
      </contour>
    </TTGlyph>
    <TTGlyph name="Dcaron" xMin="35" yMin="-8" xMax="574" yMax="765">
      <component glyphName="D" x="0" y="0" flags="0x204"/>
      <component glyphName="uni030C.case" x="296" y="0" flags="0x4"/>
    </TTGlyph>
    <TTGlyph name="Dcroat" xMin="36" yMin="-8" xMax="574" yMax="573">
      <contour>
        <pt x="574" y="302" on="1"/>
        <pt x="574" y="151" on="0"/>
        <pt x="423" y="-8" on="0"/>
        <pt x="290" y="-6" on="1"/>
        <pt x="265" y="-5" on="0"/>
        <pt x="193" y="0" on="0"/>
        <pt x="170" y="0" on="1"/>
        <pt x="36" y="0" on="1"/>
        <pt x="36" y="47" on="1"/>
        <pt x="94" y="58" on="1"/>
        <pt x="101" y="59" on="0"/>
        <pt x="110" y="70" on="0"/>
        <pt x="110" y="77" on="1"/>
        <pt x="110" y="262" on="1"/>
        <pt x="40" y="262" on="1"/>
        <pt x="40" y="318" on="1"/>
        <pt x="110" y="318" on="1"/>
        <pt x="110" y="489" on="1"/>
        <pt x="110" y="496" on="0"/>
        <pt x="102" y="506" on="0"/>
        <pt x="95" y="507" on="1"/>
        <pt x="36" y="519" on="1"/>
        <pt x="36" y="568" on="1"/>
        <pt x="168" y="568" on="1"/>
        <pt x="205" y="568" on="0"/>
        <pt x="267" y="573" on="0"/>
        <pt x="299" y="573" on="1"/>
        <pt x="438" y="573" on="0"/>
        <pt x="574" y="439" on="0"/>
      </contour>
      <contour>
        <pt x="293" y="46" on="1"/>
        <pt x="365" y="47" on="0"/>
        <pt x="445" y="153" on="0"/>
        <pt x="445" y="284" on="1"/>
        <pt x="445" y="400" on="0"/>
        <pt x="370" y="524" on="0"/>
        <pt x="286" y="524" on="1"/>
        <pt x="267" y="524" on="0"/>
        <pt x="236" y="518" on="0"/>
        <pt x="229" y="517" on="1"/>
        <pt x="229" y="318" on="1"/>
        <pt x="334" y="318" on="1"/>
        <pt x="334" y="262" on="1"/>
        <pt x="229" y="262" on="1"/>
        <pt x="229" y="54" on="1"/>
        <pt x="241" y="50" on="0"/>
        <pt x="278" y="46" on="0"/>
      </contour>
    </TTGlyph>
    <TTGlyph name="E" xMin="35" yMin="0" xMax="494" yMax="568">
      <contour>
        <pt x="462" y="418" on="1"/>
        <pt x="405" y="418" on="1"/>
        <pt x="387" y="486" on="1"/>
        <pt x="385" y="495" on="0"/>
        <pt x="374" y="505" on="0"/>
        <pt x="366" y="509" on="1"/>
        <pt x="355" y="513" on="0"/>
        <pt x="319" y="517" on="0"/>
        <pt x="300" y="517" on="1"/>
        <pt x="229" y="517" on="1"/>
        <pt x="229" y="319" on="1"/>
        <pt x="392" y="325" on="1"/>
        <pt x="392" y="256" on="1"/>
        <pt x="229" y="260" on="1"/>
        <pt x="229" y="54" on="1"/>
        <pt x="317" y="54" on="1"/>
        <pt x="337" y="54" on="0"/>
        <pt x="378" y="58" on="0"/>
        <pt x="388" y="62" on="1"/>
        <pt x="395" y="66" on="0"/>
        <pt x="404" y="76" on="0"/>
        <pt x="407" y="86" on="1"/>
        <pt x="437" y="172" on="1"/>
        <pt x="494" y="163" on="1"/>
        <pt x="494" y="122" on="0"/>
        <pt x="486" y="42" on="0"/>
        <pt x="479" y="0" on="1"/>
        <pt x="35" y="0" on="1"/>
        <pt x="35" y="47" on="1"/>
        <pt x="92" y="58" on="1"/>
        <pt x="101" y="59" on="0"/>
        <pt x="110" y="70" on="0"/>
        <pt x="110" y="79" on="1"/>
        <pt x="110" y="486" on="1"/>
        <pt x="110" y="495" on="0"/>
        <pt x="100" y="507" on="0"/>
        <pt x="92" y="508" on="1"/>
        <pt x="35" y="519" on="1"/>
        <pt x="35" y="568" on="1"/>
        <pt x="461" y="568" on="1"/>
        <pt x="465" y="531" on="0"/>
        <pt x="465" y="457" on="0"/>
      </contour>
    </TTGlyph>
    <TTGlyph name="Eacute" xMin="35" yMin="0" xMax="494" yMax="769">
      <component glyphName="E" x="0" y="0" flags="0x204"/>
      <component glyphName="acutecomb.case" x="270" y="0" flags="0x4"/>
    </TTGlyph>
    <TTGlyph name="Ebreve" xMin="35" yMin="0" xMax="494" yMax="752">
      <component glyphName="E" x="0" y="0" flags="0x204"/>
      <component glyphName="uni0306.case" x="270" y="0" flags="0x4"/>
    </TTGlyph>
    <TTGlyph name="Ecaron" xMin="35" yMin="0" xMax="494" yMax="765">
      <component glyphName="E" x="0" y="0" flags="0x204"/>
      <component glyphName="uni030C.case" x="270" y="0" flags="0x4"/>
    </TTGlyph>
    <TTGlyph name="Ecircumflex" xMin="35" yMin="0" xMax="494" yMax="759">
      <component glyphName="E" x="0" y="0" flags="0x204"/>
      <component glyphName="uni0302.case" x="270" y="0" flags="0x4"/>
    </TTGlyph>
    <TTGlyph name="Edieresis" xMin="35" yMin="0" xMax="494" yMax="731">
      <component glyphName="E" x="0" y="0" flags="0x204"/>
      <component glyphName="uni0308.case" x="270" y="0" flags="0x4"/>
    </TTGlyph>
    <TTGlyph name="Edotaccent" xMin="35" yMin="0" xMax="494" yMax="744">
      <component glyphName="E" x="0" y="0" flags="0x204"/>
      <component glyphName="uni0307.case" x="270" y="0" flags="0x4"/>
    </TTGlyph>
    <TTGlyph name="Egrave" xMin="35" yMin="0" xMax="494" yMax="773">
      <component glyphName="E" x="0" y="0" flags="0x204"/>
      <component glyphName="gravecomb.case" x="270" y="0" flags="0x4"/>
    </TTGlyph>
    <TTGlyph name="Emacron" xMin="35" yMin="0" xMax="494" yMax="704">
      <component glyphName="E" x="0" y="0" flags="0x204"/>
      <component glyphName="uni0304.case" x="270" y="0" flags="0x4"/>
    </TTGlyph>
    <TTGlyph name="Eng" xMin="35" yMin="-188" xMax="625" yMax="568">
      <contour>
        <pt x="387" y="-188" on="1"/>
        <pt x="368" y="-188" on="0"/>
        <pt x="338" y="-184" on="0"/>
        <pt x="322" y="-182" on="1"/>
        <pt x="319" y="-129" on="1"/>
        <pt x="341" y="-127" on="0"/>
        <pt x="391" y="-113" on="0"/>
        <pt x="410" y="-100" on="1"/>
        <pt x="430" y="-88" on="0"/>
        <pt x="462" y="-46" on="0"/>
        <pt x="471" y="-11" on="1"/>
        <pt x="178" y="436" on="1"/>
        <pt x="178" y="80" on="1"/>
        <pt x="178" y="70" on="0"/>
        <pt x="187" y="59" on="0"/>
        <pt x="196" y="58" on="1"/>
        <pt x="262" y="47" on="1"/>
        <pt x="262" y="0" on="1"/>
        <pt x="35" y="0" on="1"/>
        <pt x="35" y="47" on="1"/>
        <pt x="92" y="58" on="1"/>
        <pt x="101" y="59" on="0"/>
        <pt x="110" y="70" on="0"/>
        <pt x="110" y="79" on="1"/>
        <pt x="110" y="486" on="1"/>
        <pt x="110" y="495" on="0"/>
        <pt x="100" y="507" on="0"/>
        <pt x="92" y="508" on="1"/>
        <pt x="35" y="519" on="1"/>
        <pt x="35" y="568" on="1"/>
        <pt x="231" y="568" on="1"/>
        <pt x="487" y="170" on="1"/>
        <pt x="487" y="486" on="1"/>
        <pt x="487" y="495" on="0"/>
        <pt x="478" y="507" on="0"/>
        <pt x="469" y="508" on="1"/>
        <pt x="409" y="519" on="1"/>
        <pt x="409" y="568" on="1"/>
        <pt x="625" y="568" on="1"/>
        <pt x="625" y="519" on="1"/>
        <pt x="573" y="508" on="1"/>
        <pt x="564" y="506" on="0"/>
        <pt x="555" y="495" on="0"/>
        <pt x="555" y="486" on="1"/>
        <pt x="555" y="34" on="1"/>
        <pt x="555" y="-65" on="0"/>
        <pt x="483" y="-188" on="0"/>
      </contour>
    </TTGlyph>
    <TTGlyph name="Eogonek" xMin="35" yMin="-189" xMax="494" yMax="568">
      <contour>
        <pt x="487" y="-161" on="1"/>
        <pt x="466" y="-174" on="0"/>
        <pt x="411" y="-189" on="0"/>
        <pt x="384" y="-189" on="1"/>
        <pt x="343" y="-188" on="0"/>
        <pt x="286" y="-151" on="0"/>
        <pt x="286" y="-114" on="1"/>
        <pt x="286" y="-75" on="0"/>
        <pt x="349" y="-17" on="0"/>
        <pt x="391" y="-2" on="1"/>
        <pt x="391" y="0" on="1"/>
        <pt x="35" y="0" on="1"/>
        <pt x="35" y="47" on="1"/>
        <pt x="92" y="58" on="1"/>
        <pt x="101" y="59" on="0"/>
        <pt x="110" y="70" on="0"/>
        <pt x="110" y="79" on="1"/>
        <pt x="110" y="486" on="1"/>
        <pt x="110" y="495" on="0"/>
        <pt x="100" y="507" on="0"/>
        <pt x="92" y="508" on="1"/>
        <pt x="35" y="519" on="1"/>
        <pt x="35" y="568" on="1"/>
        <pt x="461" y="568" on="1"/>
        <pt x="465" y="531" on="0"/>
        <pt x="465" y="457" on="0"/>
        <pt x="462" y="418" on="1"/>
        <pt x="405" y="418" on="1"/>
        <pt x="387" y="486" on="1"/>
        <pt x="385" y="495" on="0"/>
        <pt x="374" y="505" on="0"/>
        <pt x="366" y="509" on="1"/>
        <pt x="355" y="513" on="0"/>
        <pt x="319" y="517" on="0"/>
        <pt x="300" y="517" on="1"/>
        <pt x="229" y="517" on="1"/>
        <pt x="229" y="319" on="1"/>
        <pt x="392" y="325" on="1"/>
        <pt x="392" y="256" on="1"/>
        <pt x="229" y="260" on="1"/>
        <pt x="229" y="54" on="1"/>
        <pt x="317" y="54" on="1"/>
        <pt x="337" y="54" on="0"/>
        <pt x="378" y="58" on="0"/>
        <pt x="388" y="62" on="1"/>
        <pt x="395" y="65" on="0"/>
        <pt x="404" y="76" on="0"/>
        <pt x="407" y="86" on="1"/>
        <pt x="437" y="172" on="1"/>
        <pt x="494" y="163" on="1"/>
        <pt x="494" y="122" on="0"/>
        <pt x="486" y="42" on="0"/>
        <pt x="479" y="0" on="1"/>
        <pt x="436" y="-10" on="0"/>
        <pt x="377" y="-61" on="0"/>
        <pt x="377" y="-87" on="1"/>
        <pt x="377" y="-106" on="0"/>
        <pt x="405" y="-126" on="0"/>
        <pt x="426" y="-126" on="1"/>
        <pt x="436" y="-126" on="0"/>
        <pt x="459" y="-120" on="0"/>
        <pt x="469" y="-116" on="1"/>
      </contour>
    </TTGlyph>
    <TTGlyph name="Eth" xMin="36" yMin="-8" xMax="574" yMax="573">
      <component glyphName="Dcroat" x="0" y="0" flags="0x204"/>
    </TTGlyph>
    <TTGlyph name="Euro" xMin="31" yMin="-9" xMax="501" yMax="508">
      <contour>
        <pt x="493" y="19" on="1"/>
        <pt x="462" y="6" on="0"/>
        <pt x="373" y="-9" on="0"/>
        <pt x="334" y="-9" on="1"/>
        <pt x="238" y="-9" on="0"/>
        <pt x="129" y="82" on="0"/>
        <pt x="115" y="169" on="1"/>
        <pt x="31" y="169" on="1"/>
        <pt x="31" y="217" on="1"/>
        <pt x="110" y="217" on="1"/>
        <pt x="110" y="222" on="0"/>
        <pt x="110" y="232" on="0"/>
        <pt x="110" y="237" on="1"/>
        <pt x="110" y="247" on="0"/>
        <pt x="110" y="266" on="0"/>
        <pt x="111" y="275" on="1"/>
        <pt x="36" y="275" on="1"/>
        <pt x="36" y="323" on="1"/>
        <pt x="118" y="323" on="1"/>
        <pt x="137" y="417" on="0"/>
        <pt x="260" y="508" on="0"/>
        <pt x="350" y="508" on="1"/>
        <pt x="386" y="508" on="0"/>
        <pt x="465" y="494" on="0"/>
        <pt x="498" y="481" on="1"/>
        <pt x="500" y="450" on="0"/>
        <pt x="496" y="381" on="0"/>
        <pt x="490" y="344" on="1"/>
        <pt x="427" y="344" on="1"/>
        <pt x="411" y="415" on="1"/>
        <pt x="408" y="428" on="0"/>
        <pt x="399" y="442" on="0"/>
        <pt x="392" y="447" on="1"/>
        <pt x="383" y="454" on="0"/>
        <pt x="354" y="462" on="0"/>
        <pt x="338" y="462" on="1"/>
        <pt x="296" y="462" on="0"/>
        <pt x="244" y="396" on="0"/>
        <pt x="237" y="323" on="1"/>
        <pt x="380" y="323" on="1"/>
        <pt x="380" y="275" on="1"/>
        <pt x="233" y="275" on="1"/>
        <pt x="233" y="269" on="0"/>
        <pt x="233" y="256" on="0"/>
        <pt x="233" y="249" on="1"/>
        <pt x="233" y="241" on="0"/>
        <pt x="233" y="224" on="0"/>
        <pt x="234" y="217" on="1"/>
        <pt x="374" y="217" on="1"/>
        <pt x="374" y="169" on="1"/>
        <pt x="237" y="169" on="1"/>
        <pt x="245" y="106" on="0"/>
        <pt x="292" y="38" on="0"/>
        <pt x="335" y="38" on="1"/>
        <pt x="353" y="38" on="0"/>
        <pt x="386" y="52" on="0"/>
        <pt x="394" y="59" on="1"/>
        <pt x="399" y="63" on="0"/>
        <pt x="407" y="76" on="0"/>
        <pt x="410" y="84" on="1"/>
        <pt x="435" y="154" on="1"/>
        <pt x="499" y="149" on="1"/>
        <pt x="501" y="121" on="0"/>
        <pt x="498" y="53" on="0"/>
      </contour>
    </TTGlyph>
    <TTGlyph name="Euro.tf" xMin="-2" yMin="-9" xMax="429" yMax="508">
      <contour>
        <pt x="422" y="19" on="1"/>
        <pt x="391" y="6" on="0"/>
        <pt x="307" y="-9" on="0"/>
        <pt x="270" y="-9" on="1"/>
        <pt x="179" y="-9" on="0"/>
        <pt x="78" y="79" on="0"/>
        <pt x="66" y="169" on="1"/>
        <pt x="-2" y="169" on="1"/>
        <pt x="-2" y="217" on="1"/>
        <pt x="62" y="217" on="1"/>
        <pt x="62" y="221" on="0"/>
        <pt x="62" y="231" on="0"/>
        <pt x="62" y="236" on="1"/>
        <pt x="62" y="246" on="0"/>
        <pt x="62" y="266" on="0"/>
        <pt x="63" y="275" on="1"/>
        <pt x="1" y="275" on="1"/>
        <pt x="1" y="323" on="1"/>
        <pt x="69" y="323" on="1"/>
        <pt x="86" y="420" on="0"/>
        <pt x="200" y="508" on="0"/>
        <pt x="285" y="508" on="1"/>
        <pt x="317" y="508" on="0"/>
        <pt x="391" y="495" on="0"/>
        <pt x="422" y="481" on="1"/>
        <pt x="424" y="450" on="0"/>
        <pt x="420" y="381" on="0"/>
        <pt x="414" y="344" on="1"/>
        <pt x="350" y="344" on="1"/>
        <pt x="335" y="415" on="1"/>
        <pt x="331" y="428" on="0"/>
        <pt x="326" y="441" on="0"/>
        <pt x="321" y="447" on="1"/>
        <pt x="313" y="454" on="0"/>
        <pt x="289" y="462" on="0"/>
        <pt x="276" y="462" on="1"/>
        <pt x="239" y="462" on="0"/>
        <pt x="191" y="398" on="0"/>
        <pt x="184" y="323" on="1"/>
        <pt x="308" y="323" on="1"/>
        <pt x="308" y="275" on="1"/>
        <pt x="181" y="275" on="1"/>
        <pt x="181" y="268" on="0"/>
        <pt x="181" y="253" on="0"/>
        <pt x="181" y="246" on="1"/>
        <pt x="181" y="239" on="0"/>
        <pt x="181" y="224" on="0"/>
        <pt x="181" y="217" on="1"/>
        <pt x="305" y="217" on="1"/>
        <pt x="305" y="169" on="1"/>
        <pt x="184" y="169" on="1"/>
        <pt x="191" y="104" on="0"/>
        <pt x="233" y="38" on="0"/>
        <pt x="270" y="38" on="1"/>
        <pt x="286" y="38" on="0"/>
        <pt x="315" y="49" on="0"/>
        <pt x="324" y="57" on="1"/>
        <pt x="330" y="62" on="0"/>
        <pt x="339" y="77" on="0"/>
        <pt x="342" y="88" on="1"/>
        <pt x="363" y="156" on="1"/>
        <pt x="427" y="150" on="1"/>
        <pt x="429" y="122" on="0"/>
        <pt x="428" y="53" on="0"/>
      </contour>
    </TTGlyph>
    <TTGlyph name="F" xMin="35" yMin="0" xMax="465" yMax="568">
      <contour>
        <pt x="392" y="247" on="1"/>
        <pt x="229" y="252" on="1"/>
        <pt x="229" y="77" on="1"/>
        <pt x="229" y="70" on="0"/>
        <pt x="238" y="60" on="0"/>
        <pt x="245" y="59" on="1"/>
        <pt x="338" y="47" on="1"/>
        <pt x="338" y="0" on="1"/>
        <pt x="35" y="0" on="1"/>
        <pt x="35" y="47" on="1"/>
        <pt x="93" y="58" on="1"/>
        <pt x="101" y="59" on="0"/>
        <pt x="110" y="70" on="0"/>
        <pt x="110" y="78" on="1"/>
        <pt x="110" y="486" on="1"/>
        <pt x="110" y="495" on="0"/>
        <pt x="100" y="507" on="0"/>
        <pt x="92" y="508" on="1"/>
        <pt x="35" y="519" on="1"/>
        <pt x="35" y="568" on="1"/>
        <pt x="461" y="568" on="1"/>
        <pt x="465" y="531" on="0"/>
        <pt x="465" y="457" on="0"/>
        <pt x="462" y="418" on="1"/>
        <pt x="405" y="418" on="1"/>
        <pt x="387" y="486" on="1"/>
        <pt x="385" y="495" on="0"/>
        <pt x="374" y="505" on="0"/>
        <pt x="366" y="509" on="1"/>
        <pt x="355" y="513" on="0"/>
        <pt x="319" y="517" on="0"/>
        <pt x="300" y="517" on="1"/>
        <pt x="229" y="517" on="1"/>
        <pt x="229" y="310" on="1"/>
        <pt x="392" y="315" on="1"/>
      </contour>
    </TTGlyph>
    <TTGlyph name="G" xMin="38" yMin="-11" xMax="554" yMax="578">
      <contour>
        <pt x="491" y="-5" on="1"/>
        <pt x="428" y="46" on="1"/>
        <pt x="403" y="21" on="0"/>
        <pt x="327" y="-11" on="0"/>
        <pt x="276" y="-11" on="1"/>
        <pt x="160" y="-11" on="0"/>
        <pt x="38" y="145" on="0"/>
        <pt x="38" y="278" on="1"/>
        <pt x="38" y="430" on="0"/>
        <pt x="191" y="578" on="0"/>
        <pt x="325" y="578" on="1"/>
        <pt x="373" y="578" on="0"/>
        <pt x="467" y="560" on="0"/>
        <pt x="504" y="544" on="1"/>
        <pt x="506" y="510" on="0"/>
        <pt x="501" y="438" on="0"/>
        <pt x="497" y="401" on="1"/>
        <pt x="425" y="401" on="1"/>
        <pt x="406" y="481" on="1"/>
        <pt x="403" y="492" on="0"/>
        <pt x="394" y="504" on="0"/>
        <pt x="387" y="509" on="1"/>
        <pt x="376" y="517" on="0"/>
        <pt x="341" y="528" on="0"/>
        <pt x="317" y="528" on="1"/>
        <pt x="250" y="528" on="0"/>
        <pt x="176" y="409" on="0"/>
        <pt x="176" y="279" on="1"/>
        <pt x="176" y="175" on="0"/>
        <pt x="235" y="54" on="0"/>
        <pt x="313" y="54" on="1"/>
        <pt x="339" y="54" on="0"/>
        <pt x="384" y="68" on="0"/>
        <pt x="401" y="81" on="1"/>
        <pt x="401" y="232" on="1"/>
        <pt x="321" y="240" on="1"/>
        <pt x="321" y="292" on="1"/>
        <pt x="554" y="292" on="1"/>
        <pt x="554" y="240" on="1"/>
        <pt x="515" y="234" on="1"/>
        <pt x="515" y="8" on="1"/>
      </contour>
    </TTGlyph>
    <TTGlyph name="Gbreve" xMin="38" yMin="-11" xMax="554" yMax="752">
      <component glyphName="G" x="0" y="0" flags="0x204"/>
      <component glyphName="uni0306.case" x="322" y="0" flags="0x4"/>
    </TTGlyph>
    <TTGlyph name="Gcircumflex" xMin="38" yMin="-11" xMax="554" yMax="759">
      <component glyphName="G" x="0" y="0" flags="0x204"/>
      <component glyphName="uni0302.case" x="322" y="0" flags="0x4"/>
    </TTGlyph>
    <TTGlyph name="Gcommaaccent" xMin="38" yMin="-221" xMax="554" yMax="578">
      <component glyphName="G" x="0" y="0" flags="0x204"/>
      <component glyphName="uni0326" x="295" y="0" flags="0x4"/>
    </TTGlyph>
    <TTGlyph name="Gdotaccent" xMin="38" yMin="-11" xMax="554" yMax="744">
      <component glyphName="G" x="0" y="0" flags="0x204"/>
      <component glyphName="uni0307.case" x="322" y="0" flags="0x4"/>
    </TTGlyph>
    <TTGlyph name="H" xMin="35" yMin="0" xMax="645" yMax="568">
      <contour>
        <pt x="645" y="568" on="1"/>
        <pt x="645" y="519" on="1"/>
        <pt x="587" y="508" on="1"/>
        <pt x="579" y="507" on="0"/>
        <pt x="570" y="494" on="0"/>
        <pt x="570" y="486" on="1"/>
        <pt x="570" y="79" on="1"/>
        <pt x="570" y="70" on="0"/>
        <pt x="579" y="59" on="0"/>
        <pt x="587" y="58" on="1"/>
        <pt x="645" y="47" on="1"/>
        <pt x="645" y="0" on="1"/>
        <pt x="390" y="0" on="1"/>
        <pt x="390" y="47" on="1"/>
        <pt x="433" y="58" on="1"/>
        <pt x="441" y="60" on="0"/>
        <pt x="451" y="70" on="0"/>
        <pt x="451" y="79" on="1"/>
        <pt x="451" y="259" on="1"/>
        <pt x="229" y="259" on="1"/>
        <pt x="229" y="79" on="1"/>
        <pt x="229" y="70" on="0"/>
        <pt x="237" y="59" on="0"/>
        <pt x="246" y="58" on="1"/>
        <pt x="294" y="47" on="1"/>
        <pt x="294" y="0" on="1"/>
        <pt x="35" y="0" on="1"/>
        <pt x="35" y="47" on="1"/>
        <pt x="92" y="58" on="1"/>
        <pt x="101" y="59" on="0"/>
        <pt x="110" y="70" on="0"/>
        <pt x="110" y="79" on="1"/>
        <pt x="110" y="486" on="1"/>
        <pt x="110" y="495" on="0"/>
        <pt x="100" y="507" on="0"/>
        <pt x="92" y="508" on="1"/>
        <pt x="35" y="519" on="1"/>
        <pt x="35" y="568" on="1"/>
        <pt x="294" y="568" on="1"/>
        <pt x="294" y="519" on="1"/>
        <pt x="245" y="508" on="1"/>
        <pt x="237" y="507" on="0"/>
        <pt x="229" y="495" on="0"/>
        <pt x="229" y="486" on="1"/>
        <pt x="229" y="319" on="1"/>
        <pt x="451" y="319" on="1"/>
        <pt x="451" y="486" on="1"/>
        <pt x="451" y="495" on="0"/>
        <pt x="442" y="506" on="0"/>
        <pt x="434" y="508" on="1"/>
        <pt x="389" y="519" on="1"/>
        <pt x="389" y="568" on="1"/>
      </contour>
    </TTGlyph>
    <TTGlyph name="Hbar" xMin="36" yMin="0" xMax="645" yMax="568">
      <contour>
        <pt x="229" y="301" on="1"/>
        <pt x="451" y="301" on="1"/>
        <pt x="451" y="372" on="1"/>
        <pt x="229" y="372" on="1"/>
      </contour>
      <contour>
        <pt x="294" y="47" on="1"/>
        <pt x="294" y="0" on="1"/>
        <pt x="36" y="0" on="1"/>
        <pt x="36" y="47" on="1"/>
        <pt x="92" y="58" on="1"/>
        <pt x="101" y="59" on="0"/>
        <pt x="110" y="70" on="0"/>
        <pt x="110" y="79" on="1"/>
        <pt x="110" y="372" on="1"/>
        <pt x="39" y="372" on="1"/>
        <pt x="39" y="420" on="1"/>
        <pt x="110" y="420" on="1"/>
        <pt x="110" y="486" on="1"/>
        <pt x="110" y="495" on="0"/>
        <pt x="101" y="507" on="0"/>
        <pt x="93" y="508" on="1"/>
        <pt x="36" y="519" on="1"/>
        <pt x="36" y="568" on="1"/>
        <pt x="294" y="568" on="1"/>
        <pt x="294" y="519" on="1"/>
        <pt x="246" y="508" on="1"/>
        <pt x="237" y="507" on="0"/>
        <pt x="229" y="495" on="0"/>
        <pt x="229" y="486" on="1"/>
        <pt x="229" y="420" on="1"/>
        <pt x="451" y="420" on="1"/>
        <pt x="451" y="486" on="1"/>
        <pt x="451" y="495" on="0"/>
        <pt x="442" y="506" on="0"/>
        <pt x="434" y="508" on="1"/>
        <pt x="390" y="519" on="1"/>
        <pt x="390" y="568" on="1"/>
        <pt x="645" y="568" on="1"/>
        <pt x="645" y="519" on="1"/>
        <pt x="587" y="508" on="1"/>
        <pt x="579" y="507" on="0"/>
        <pt x="570" y="494" on="0"/>
        <pt x="570" y="486" on="1"/>
        <pt x="570" y="420" on="1"/>
        <pt x="641" y="420" on="1"/>
        <pt x="641" y="372" on="1"/>
        <pt x="570" y="372" on="1"/>
        <pt x="570" y="79" on="1"/>
        <pt x="570" y="70" on="0"/>
        <pt x="579" y="59" on="0"/>
        <pt x="587" y="58" on="1"/>
        <pt x="645" y="47" on="1"/>
        <pt x="645" y="0" on="1"/>
        <pt x="390" y="0" on="1"/>
        <pt x="390" y="47" on="1"/>
        <pt x="434" y="58" on="1"/>
        <pt x="442" y="59" on="0"/>
        <pt x="451" y="70" on="0"/>
        <pt x="451" y="79" on="1"/>
        <pt x="451" y="241" on="1"/>
        <pt x="229" y="241" on="1"/>
        <pt x="229" y="79" on="1"/>
        <pt x="229" y="70" on="0"/>
        <pt x="238" y="59" on="0"/>
        <pt x="246" y="58" on="1"/>
      </contour>
    </TTGlyph>
    <TTGlyph name="Hcircumflex" xMin="35" yMin="0" xMax="645" yMax="759">
      <component glyphName="H" x="0" y="0" flags="0x204"/>
      <component glyphName="uni0302.case" x="341" y="0" flags="0x4"/>
    </TTGlyph>
    <TTGlyph name="I" xMin="35" yMin="0" xMax="303" yMax="568">
      <contour>
        <pt x="303" y="568" on="1"/>
        <pt x="303" y="519" on="1"/>
        <pt x="246" y="508" on="1"/>
        <pt x="237" y="507" on="0"/>
        <pt x="229" y="495" on="0"/>
        <pt x="229" y="486" on="1"/>
        <pt x="229" y="80" on="1"/>
        <pt x="229" y="70" on="0"/>
        <pt x="237" y="59" on="0"/>
        <pt x="246" y="58" on="1"/>
        <pt x="303" y="47" on="1"/>
        <pt x="303" y="0" on="1"/>
        <pt x="35" y="0" on="1"/>
        <pt x="35" y="47" on="1"/>
        <pt x="92" y="58" on="1"/>
        <pt x="101" y="59" on="0"/>
        <pt x="110" y="70" on="0"/>
        <pt x="110" y="79" on="1"/>
        <pt x="110" y="486" on="1"/>
        <pt x="110" y="495" on="0"/>
        <pt x="100" y="507" on="0"/>
        <pt x="92" y="508" on="1"/>
        <pt x="35" y="519" on="1"/>
        <pt x="35" y="568" on="1"/>
      </contour>
    </TTGlyph>
    <TTGlyph name="IJ" xMin="35" yMin="-149" xMax="617" yMax="568">
      <component glyphName="I" x="0" y="0" flags="0x204"/>
      <component glyphName="J" x="330" y="0" flags="0x4"/>
    </TTGlyph>
    <TTGlyph name="Iacute" xMin="35" yMin="0" xMax="316" yMax="769">
      <component glyphName="I" x="0" y="0" flags="0x204"/>
      <component glyphName="acutecomb.case" x="169" y="0" flags="0x4"/>
    </TTGlyph>
    <TTGlyph name="Iacute_J.NLD" xMin="35" yMin="-149" xMax="642" yMax="769">
      <component glyphName="I" x="0" y="0" flags="0x204"/>
      <component glyphName="acutecomb.case" x="169" y="0" flags="0x4"/>
      <component glyphName="J" x="338" y="0" flags="0x4"/>
      <component glyphName="acutecomb.case" x="495" y="0" flags="0x4"/>
    </TTGlyph>
    <TTGlyph name="Ibreve" xMin="20" yMin="0" xMax="318" yMax="752">
      <component glyphName="I" x="0" y="0" flags="0x204"/>
      <component glyphName="uni0306.case" x="169" y="0" flags="0x4"/>
    </TTGlyph>
    <TTGlyph name="Icircumflex" xMin="14" yMin="0" xMax="323" yMax="759">
      <component glyphName="I" x="0" y="0" flags="0x204"/>
      <component glyphName="uni0302.case" x="169" y="0" flags="0x4"/>
    </TTGlyph>
    <TTGlyph name="Idieresis" xMin="18" yMin="0" xMax="320" yMax="731">
      <component glyphName="I" x="0" y="0" flags="0x204"/>
      <component glyphName="uni0308.case" x="169" y="0" flags="0x4"/>
    </TTGlyph>
    <TTGlyph name="Idotaccent" xMin="35" yMin="0" xMax="303" yMax="744">
      <component glyphName="I" x="0" y="0" flags="0x204"/>
      <component glyphName="uni0307.case" x="169" y="0" flags="0x4"/>
    </TTGlyph>
    <TTGlyph name="Igrave" xMin="31" yMin="0" xMax="303" yMax="773">
      <component glyphName="I" x="0" y="0" flags="0x204"/>
      <component glyphName="gravecomb.case" x="169" y="0" flags="0x4"/>
    </TTGlyph>
    <TTGlyph name="Imacron" xMin="35" yMin="0" xMax="303" yMax="704">
      <component glyphName="I" x="0" y="0" flags="0x204"/>
      <component glyphName="uni0304.case" x="169" y="0" flags="0x4"/>
    </TTGlyph>
    <TTGlyph name="Iogonek" xMin="35" yMin="-189" xMax="303" yMax="568">
      <contour>
        <pt x="266" y="-161" on="1"/>
        <pt x="246" y="-174" on="0"/>
        <pt x="190" y="-189" on="0"/>
        <pt x="164" y="-189" on="1"/>
        <pt x="123" y="-188" on="0"/>
        <pt x="66" y="-151" on="0"/>
        <pt x="66" y="-114" on="1"/>
        <pt x="66" y="-75" on="0"/>
        <pt x="126" y="-16" on="0"/>
        <pt x="165" y="-2" on="1"/>
        <pt x="165" y="0" on="1"/>
        <pt x="35" y="0" on="1"/>
        <pt x="35" y="47" on="1"/>
        <pt x="92" y="58" on="1"/>
        <pt x="101" y="59" on="0"/>
        <pt x="110" y="70" on="0"/>
        <pt x="110" y="79" on="1"/>
        <pt x="110" y="486" on="1"/>
        <pt x="110" y="495" on="0"/>
        <pt x="100" y="507" on="0"/>
        <pt x="92" y="508" on="1"/>
        <pt x="35" y="519" on="1"/>
        <pt x="35" y="568" on="1"/>
        <pt x="303" y="568" on="1"/>
        <pt x="303" y="519" on="1"/>
        <pt x="246" y="508" on="1"/>
        <pt x="237" y="507" on="0"/>
        <pt x="229" y="495" on="0"/>
        <pt x="229" y="486" on="1"/>
        <pt x="229" y="80" on="1"/>
        <pt x="229" y="70" on="0"/>
        <pt x="237" y="59" on="0"/>
        <pt x="246" y="58" on="1"/>
        <pt x="303" y="47" on="1"/>
        <pt x="303" y="0" on="1"/>
        <pt x="243" y="0" on="1"/>
        <pt x="204" y="-13" on="0"/>
        <pt x="157" y="-62" on="0"/>
        <pt x="157" y="-87" on="1"/>
        <pt x="157" y="-106" on="0"/>
        <pt x="184" y="-126" on="0"/>
        <pt x="204" y="-126" on="1"/>
        <pt x="215" y="-126" on="0"/>
        <pt x="238" y="-120" on="0"/>
        <pt x="249" y="-116" on="1"/>
      </contour>
    </TTGlyph>
    <TTGlyph name="Itilde" xMin="4" yMin="0" xMax="334" yMax="740">
      <component glyphName="I" x="0" y="0" flags="0x204"/>
      <component glyphName="tildecomb.case" x="169" y="0" flags="0x4"/>
    </TTGlyph>
    <TTGlyph name="J" xMin="-11" yMin="-149" xMax="287" yMax="568">
      <contour>
        <pt x="238" y="508" on="1"/>
        <pt x="229" y="506" on="0"/>
        <pt x="220" y="495" on="0"/>
        <pt x="220" y="486" on="1"/>
        <pt x="220" y="137" on="1"/>
        <pt x="220" y="11" on="0"/>
        <pt x="141" y="-109" on="0"/>
        <pt x="11" y="-149" on="1"/>
        <pt x="-11" y="-100" on="1"/>
        <pt x="60" y="-58" on="0"/>
        <pt x="101" y="28" on="0"/>
        <pt x="101" y="121" on="1"/>
        <pt x="101" y="486" on="1"/>
        <pt x="101" y="495" on="0"/>
        <pt x="92" y="507" on="0"/>
        <pt x="83" y="508" on="1"/>
        <pt x="27" y="519" on="1"/>
        <pt x="27" y="568" on="1"/>
        <pt x="287" y="568" on="1"/>
        <pt x="287" y="519" on="1"/>
      </contour>
    </TTGlyph>
    <TTGlyph name="Jacute" xMin="-11" yMin="-149" xMax="304" yMax="769">
      <component glyphName="J" x="0" y="0" flags="0x204"/>
      <component glyphName="acutecomb.case" x="157" y="0" flags="0x4"/>
    </TTGlyph>
    <TTGlyph name="Jcircumflex" xMin="-11" yMin="-149" xMax="311" yMax="759">
      <component glyphName="J" x="0" y="0" flags="0x204"/>
      <component glyphName="uni0302.case" x="157" y="0" flags="0x4"/>
    </TTGlyph>
    <TTGlyph name="K" xMin="35" yMin="0" xMax="594" yMax="568">
      <contour>
        <pt x="304" y="47" on="1"/>
        <pt x="304" y="0" on="1"/>
        <pt x="35" y="0" on="1"/>
        <pt x="35" y="47" on="1"/>
        <pt x="92" y="58" on="1"/>
        <pt x="100" y="59" on="0"/>
        <pt x="110" y="70" on="0"/>
        <pt x="110" y="79" on="1"/>
        <pt x="110" y="486" on="1"/>
        <pt x="110" y="496" on="0"/>
        <pt x="100" y="507" on="0"/>
        <pt x="92" y="508" on="1"/>
        <pt x="35" y="519" on="1"/>
        <pt x="35" y="568" on="1"/>
        <pt x="303" y="568" on="1"/>
        <pt x="303" y="519" on="1"/>
        <pt x="246" y="508" on="1"/>
        <pt x="237" y="507" on="0"/>
        <pt x="228" y="495" on="0"/>
        <pt x="228" y="486" on="1"/>
        <pt x="228" y="267" on="1"/>
        <pt x="429" y="507" on="1"/>
        <pt x="364" y="519" on="1"/>
        <pt x="364" y="568" on="1"/>
        <pt x="579" y="568" on="1"/>
        <pt x="579" y="519" on="1"/>
        <pt x="523" y="508" on="1"/>
        <pt x="516" y="507" on="0"/>
        <pt x="504" y="501" on="0"/>
        <pt x="500" y="496" on="1"/>
        <pt x="369" y="349" on="1"/>
        <pt x="389" y="324" on="0"/>
        <pt x="422" y="271" on="0"/>
        <pt x="444" y="233" on="1"/>
        <pt x="528" y="83" on="1"/>
        <pt x="533" y="73" on="0"/>
        <pt x="545" y="59" on="0"/>
        <pt x="558" y="56" on="1"/>
        <pt x="594" y="47" on="1"/>
        <pt x="594" y="0" on="1"/>
        <pt x="450" y="0" on="1"/>
        <pt x="435" y="0" on="0"/>
        <pt x="407" y="41" on="0"/>
        <pt x="390" y="75" on="1"/>
        <pt x="338" y="180" on="1"/>
        <pt x="325" y="208" on="0"/>
        <pt x="303" y="247" on="0"/>
        <pt x="293" y="262" on="1"/>
        <pt x="228" y="188" on="1"/>
        <pt x="228" y="77" on="1"/>
        <pt x="228" y="69" on="0"/>
        <pt x="237" y="59" on="0"/>
        <pt x="247" y="57" on="1"/>
      </contour>
    </TTGlyph>
    <TTGlyph name="Kcommaaccent" xMin="35" yMin="-221" xMax="594" yMax="568">
      <component glyphName="K" x="0" y="0" flags="0x204"/>
      <component glyphName="uni0326" x="330" y="0" flags="0x4"/>
    </TTGlyph>
    <TTGlyph name="L" xMin="35" yMin="0" xMax="491" yMax="568">
      <contour>
        <pt x="397" y="87" on="1"/>
        <pt x="431" y="198" on="1"/>
        <pt x="491" y="190" on="1"/>
        <pt x="491" y="146" on="0"/>
        <pt x="486" y="49" on="0"/>
        <pt x="476" y="0" on="1"/>
        <pt x="35" y="0" on="1"/>
        <pt x="35" y="47" on="1"/>
        <pt x="92" y="58" on="1"/>
        <pt x="101" y="59" on="0"/>
        <pt x="110" y="70" on="0"/>
        <pt x="110" y="79" on="1"/>
        <pt x="110" y="487" on="1"/>
        <pt x="110" y="495" on="0"/>
        <pt x="101" y="507" on="0"/>
        <pt x="92" y="508" on="1"/>
        <pt x="35" y="519" on="1"/>
        <pt x="35" y="568" on="1"/>
        <pt x="322" y="568" on="1"/>
        <pt x="322" y="519" on="1"/>
        <pt x="246" y="507" on="1"/>
        <pt x="238" y="506" on="0"/>
        <pt x="229" y="495" on="0"/>
        <pt x="229" y="486" on="1"/>
        <pt x="229" y="55" on="1"/>
        <pt x="305" y="55" on="1"/>
        <pt x="329" y="55" on="0"/>
        <pt x="365" y="60" on="0"/>
        <pt x="376" y="64" on="1"/>
        <pt x="383" y="67" on="0"/>
        <pt x="394" y="78" on="0"/>
      </contour>
    </TTGlyph>
    <TTGlyph name="Lacute" xMin="35" yMin="0" xMax="491" yMax="769">
      <component glyphName="L" x="0" y="0" flags="0x204"/>
      <component glyphName="acutecomb.case" x="211" y="0" flags="0x4"/>
    </TTGlyph>
    <TTGlyph name="Lcaron" xMin="35" yMin="0" xMax="491" yMax="605">
      <component glyphName="L" x="0" y="0" flags="0x204"/>
      <component glyphName="uni030C.calt" x="308" y="-81" flags="0x4"/>
    </TTGlyph>
    <TTGlyph name="Lcommaaccent" xMin="35" yMin="-221" xMax="491" yMax="568">
      <component glyphName="L" x="0" y="0" flags="0x204"/>
      <component glyphName="uni0326" x="280" y="0" flags="0x4"/>
    </TTGlyph>
    <TTGlyph name="Ldot" xMin="35" yMin="0" xMax="491" yMax="568">
      <component glyphName="L" x="0" y="0" flags="0x204"/>
      <component glyphName="periodcentered" x="300" y="83" flags="0x4"/>
    </TTGlyph>
    <TTGlyph name="Lslash" xMin="34" yMin="0" xMax="491" yMax="568">
      <contour>
        <pt x="477" y="0" on="1"/>
        <pt x="36" y="0" on="1"/>
        <pt x="36" y="47" on="1"/>
        <pt x="92" y="58" on="1"/>
        <pt x="102" y="59" on="0"/>
        <pt x="111" y="70" on="0"/>
        <pt x="111" y="79" on="1"/>
        <pt x="111" y="219" on="1"/>
        <pt x="34" y="189" on="1"/>
        <pt x="34" y="248" on="1"/>
        <pt x="111" y="278" on="1"/>
        <pt x="111" y="487" on="1"/>
        <pt x="111" y="495" on="0"/>
        <pt x="102" y="507" on="0"/>
        <pt x="93" y="508" on="1"/>
        <pt x="36" y="519" on="1"/>
        <pt x="36" y="568" on="1"/>
        <pt x="322" y="568" on="1"/>
        <pt x="322" y="519" on="1"/>
        <pt x="247" y="507" on="1"/>
        <pt x="239" y="506" on="0"/>
        <pt x="230" y="495" on="0"/>
        <pt x="230" y="486" on="1"/>
        <pt x="230" y="321" on="1"/>
        <pt x="378" y="383" on="1"/>
        <pt x="378" y="321" on="1"/>
        <pt x="230" y="262" on="1"/>
        <pt x="230" y="55" on="1"/>
        <pt x="306" y="55" on="1"/>
        <pt x="330" y="55" on="0"/>
        <pt x="366" y="60" on="0"/>
        <pt x="376" y="64" on="1"/>
        <pt x="384" y="67" on="0"/>
        <pt x="395" y="78" on="0"/>
        <pt x="398" y="87" on="1"/>
        <pt x="432" y="198" on="1"/>
        <pt x="491" y="190" on="1"/>
        <pt x="491" y="146" on="0"/>
        <pt x="487" y="49" on="0"/>
      </contour>
    </TTGlyph>
    <TTGlyph name="M" xMin="18" yMin="0" xMax="808" yMax="568">
      <contour>
        <pt x="236" y="47" on="1"/>
        <pt x="236" y="0" on="1"/>
        <pt x="18" y="0" on="1"/>
        <pt x="18" y="47" on="1"/>
        <pt x="73" y="59" on="1"/>
        <pt x="81" y="60" on="0"/>
        <pt x="90" y="71" on="0"/>
        <pt x="91" y="79" on="1"/>
        <pt x="140" y="485" on="1"/>
        <pt x="141" y="494" on="0"/>
        <pt x="133" y="507" on="0"/>
        <pt x="124" y="508" on="1"/>
        <pt x="61" y="519" on="1"/>
        <pt x="61" y="568" on="1"/>
        <pt x="302" y="568" on="1"/>
        <pt x="414" y="174" on="1"/>
        <pt x="513" y="568" on="1"/>
        <pt x="755" y="568" on="1"/>
        <pt x="755" y="519" on="1"/>
        <pt x="690" y="508" on="1"/>
        <pt x="680" y="507" on="0"/>
        <pt x="672" y="494" on="0"/>
        <pt x="673" y="485" on="1"/>
        <pt x="735" y="79" on="1"/>
        <pt x="736" y="71" on="0"/>
        <pt x="746" y="60" on="0"/>
        <pt x="754" y="59" on="1"/>
        <pt x="808" y="47" on="1"/>
        <pt x="808" y="0" on="1"/>
        <pt x="551" y="0" on="1"/>
        <pt x="551" y="47" on="1"/>
        <pt x="618" y="58" on="1"/>
        <pt x="557" y="486" on="1"/>
        <pt x="439" y="21" on="1"/>
        <pt x="346" y="21" on="1"/>
        <pt x="206" y="482" on="1"/>
        <pt x="158" y="58" on="1"/>
      </contour>
    </TTGlyph>
    <TTGlyph name="N" xMin="35" yMin="0" xMax="625" yMax="568">
      <contour>
        <pt x="262" y="47" on="1"/>
        <pt x="262" y="0" on="1"/>
        <pt x="35" y="0" on="1"/>
        <pt x="35" y="47" on="1"/>
        <pt x="92" y="58" on="1"/>
        <pt x="101" y="59" on="0"/>
        <pt x="110" y="70" on="0"/>
        <pt x="110" y="79" on="1"/>
        <pt x="110" y="486" on="1"/>
        <pt x="110" y="495" on="0"/>
        <pt x="100" y="507" on="0"/>
        <pt x="92" y="508" on="1"/>
        <pt x="35" y="519" on="1"/>
        <pt x="35" y="568" on="1"/>
        <pt x="231" y="568" on="1"/>
        <pt x="487" y="161" on="1"/>
        <pt x="487" y="486" on="1"/>
        <pt x="487" y="495" on="0"/>
        <pt x="478" y="507" on="0"/>
        <pt x="469" y="508" on="1"/>
        <pt x="409" y="519" on="1"/>
        <pt x="409" y="568" on="1"/>
        <pt x="625" y="568" on="1"/>
        <pt x="625" y="519" on="1"/>
        <pt x="573" y="508" on="1"/>
        <pt x="564" y="506" on="0"/>
        <pt x="555" y="495" on="0"/>
        <pt x="555" y="486" on="1"/>
        <pt x="555" y="0" on="1"/>
        <pt x="449" y="0" on="1"/>
        <pt x="178" y="434" on="1"/>
        <pt x="178" y="79" on="1"/>
        <pt x="178" y="70" on="0"/>
        <pt x="187" y="59" on="0"/>
        <pt x="196" y="58" on="1"/>
      </contour>
    </TTGlyph>
    <TTGlyph name="Nacute" xMin="35" yMin="0" xMax="625" yMax="769">
      <component glyphName="N" x="0" y="0" flags="0x204"/>
      <component glyphName="acutecomb.case" x="329" y="0" flags="0x4"/>
    </TTGlyph>
    <TTGlyph name="Ncaron" xMin="35" yMin="0" xMax="625" yMax="765">
      <component glyphName="N" x="0" y="0" flags="0x204"/>
      <component glyphName="uni030C.case" x="329" y="0" flags="0x4"/>
    </TTGlyph>
    <TTGlyph name="Ncommaaccent" xMin="35" yMin="-221" xMax="625" yMax="568">
      <component glyphName="N" x="0" y="0" flags="0x204"/>
      <component glyphName="uni0326" x="346" y="0" flags="0x4"/>
    </TTGlyph>
    <TTGlyph name="Ntilde" xMin="35" yMin="0" xMax="625" yMax="740">
      <component glyphName="N" x="0" y="0" flags="0x204"/>
      <component glyphName="tildecomb.case" x="329" y="0" flags="0x4"/>
    </TTGlyph>
    <TTGlyph name="O" xMin="38" yMin="-11" xMax="544" yMax="579">
      <contour>
        <pt x="281" y="-11" on="1"/>
        <pt x="157" y="-11" on="0"/>
        <pt x="38" y="143" on="0"/>
        <pt x="38" y="274" on="1"/>
        <pt x="38" y="419" on="0"/>
        <pt x="175" y="579" on="0"/>
        <pt x="300" y="579" on="1"/>
        <pt x="425" y="579" on="0"/>
        <pt x="544" y="425" on="0"/>
        <pt x="544" y="294" on="1"/>
        <pt x="544" y="150" on="0"/>
        <pt x="406" y="-11" on="0"/>
      </contour>
      <contour>
        <pt x="292" y="527" on="1"/>
        <pt x="232" y="527" on="0"/>
        <pt x="168" y="409" on="0"/>
        <pt x="168" y="281" on="1"/>
        <pt x="168" y="157" on="0"/>
        <pt x="229" y="41" on="0"/>
        <pt x="289" y="41" on="1"/>
        <pt x="349" y="41" on="0"/>
        <pt x="413" y="159" on="0"/>
        <pt x="413" y="288" on="1"/>
        <pt x="413" y="413" on="0"/>
        <pt x="353" y="527" on="0"/>
      </contour>
    </TTGlyph>
    <TTGlyph name="OE" xMin="38" yMin="-8" xMax="756" yMax="575">
      <contour>
        <pt x="297" y="41" on="1"/>
        <pt x="317" y="41" on="0"/>
        <pt x="356" y="52" on="0"/>
        <pt x="373" y="65" on="1"/>
        <pt x="373" y="504" on="1"/>
        <pt x="357" y="516" on="0"/>
        <pt x="318" y="526" on="0"/>
        <pt x="300" y="526" on="1"/>
        <pt x="234" y="526" on="0"/>
        <pt x="168" y="411" on="0"/>
        <pt x="168" y="281" on="1"/>
        <pt x="168" y="154" on="0"/>
        <pt x="232" y="41" on="0"/>
      </contour>
      <contour>
        <pt x="373" y="0" on="1"/>
        <pt x="373" y="1" on="1"/>
        <pt x="353" y="-3" on="0"/>
        <pt x="310" y="-8" on="0"/>
        <pt x="288" y="-8" on="1"/>
        <pt x="160" y="-8" on="0"/>
        <pt x="38" y="139" on="0"/>
        <pt x="38" y="273" on="1"/>
        <pt x="38" y="416" on="0"/>
        <pt x="176" y="575" on="0"/>
        <pt x="301" y="575" on="1"/>
        <pt x="319" y="575" on="0"/>
        <pt x="357" y="572" on="0"/>
        <pt x="376" y="568" on="1"/>
        <pt x="723" y="568" on="1"/>
        <pt x="727" y="531" on="0"/>
        <pt x="728" y="457" on="0"/>
        <pt x="724" y="418" on="1"/>
        <pt x="668" y="418" on="1"/>
        <pt x="649" y="486" on="1"/>
        <pt x="647" y="495" on="0"/>
        <pt x="636" y="505" on="0"/>
        <pt x="628" y="509" on="1"/>
        <pt x="618" y="513" on="0"/>
        <pt x="582" y="517" on="0"/>
        <pt x="562" y="517" on="1"/>
        <pt x="491" y="517" on="1"/>
        <pt x="491" y="319" on="1"/>
        <pt x="654" y="325" on="1"/>
        <pt x="654" y="256" on="1"/>
        <pt x="491" y="260" on="1"/>
        <pt x="491" y="54" on="1"/>
        <pt x="580" y="54" on="1"/>
        <pt x="599" y="54" on="0"/>
        <pt x="640" y="58" on="0"/>
        <pt x="650" y="62" on="1"/>
        <pt x="658" y="66" on="0"/>
        <pt x="666" y="76" on="0"/>
        <pt x="670" y="86" on="1"/>
        <pt x="700" y="172" on="1"/>
        <pt x="756" y="163" on="1"/>
        <pt x="756" y="122" on="0"/>
        <pt x="749" y="42" on="0"/>
        <pt x="742" y="0" on="1"/>
      </contour>
    </TTGlyph>
    <TTGlyph name="Oacute" xMin="38" yMin="-11" xMax="544" yMax="769">
      <component glyphName="O" x="0" y="0" flags="0x204"/>
      <component glyphName="acutecomb.case" x="291" y="0" flags="0x4"/>
    </TTGlyph>
    <TTGlyph name="Obreve" xMin="38" yMin="-11" xMax="544" yMax="752">
      <component glyphName="O" x="0" y="0" flags="0x204"/>
      <component glyphName="uni0306.case" x="291" y="0" flags="0x4"/>
    </TTGlyph>
    <TTGlyph name="Ocircumflex" xMin="38" yMin="-11" xMax="544" yMax="759">
      <component glyphName="O" x="0" y="0" flags="0x204"/>
      <component glyphName="uni0302.case" x="291" y="0" flags="0x4"/>
    </TTGlyph>
    <TTGlyph name="Odieresis" xMin="38" yMin="-11" xMax="544" yMax="731">
      <component glyphName="O" x="0" y="0" flags="0x204"/>
      <component glyphName="uni0308.case" x="291" y="0" flags="0x4"/>
    </TTGlyph>
    <TTGlyph name="Ograve" xMin="38" yMin="-11" xMax="544" yMax="773">
      <component glyphName="O" x="0" y="0" flags="0x204"/>
      <component glyphName="gravecomb.case" x="291" y="0" flags="0x4"/>
    </TTGlyph>
    <TTGlyph name="Ohungarumlaut" xMin="38" yMin="-11" xMax="544" yMax="773">
      <component glyphName="O" x="0" y="0" flags="0x204"/>
      <component glyphName="uni030B.case" x="291" y="0" flags="0x4"/>
    </TTGlyph>
    <TTGlyph name="Omacron" xMin="38" yMin="-11" xMax="544" yMax="704">
      <component glyphName="O" x="0" y="0" flags="0x204"/>
      <component glyphName="uni0304.case" x="291" y="0" flags="0x4"/>
    </TTGlyph>
    <TTGlyph name="Oslash" xMin="36" yMin="-79" xMax="542" yMax="635">
      <contour>
        <pt x="160" y="281" on="1"/>
        <pt x="160" y="226" on="0"/>
        <pt x="172" y="141" on="0"/>
        <pt x="184" y="112" on="1"/>
        <pt x="365" y="499" on="1"/>
        <pt x="351" y="514" on="0"/>
        <pt x="313" y="528" on="0"/>
        <pt x="290" y="528" on="1"/>
        <pt x="227" y="528" on="0"/>
        <pt x="160" y="412" on="0"/>
      </contour>
      <contour>
        <pt x="287" y="39" on="1"/>
        <pt x="350" y="39" on="0"/>
        <pt x="417" y="157" on="0"/>
        <pt x="417" y="288" on="1"/>
        <pt x="417" y="342" on="0"/>
        <pt x="406" y="424" on="0"/>
        <pt x="395" y="453" on="1"/>
        <pt x="214" y="66" on="1"/>
        <pt x="228" y="53" on="0"/>
        <pt x="265" y="39" on="0"/>
      </contour>
      <contour>
        <pt x="279" y="-11" on="1"/>
        <pt x="254" y="-11" on="0"/>
        <pt x="208" y="-5" on="0"/>
        <pt x="189" y="2" on="1"/>
        <pt x="148" y="-79" on="1"/>
        <pt x="95" y="-52" on="1"/>
        <pt x="135" y="28" on="1"/>
        <pt x="85" y="63" on="0"/>
        <pt x="36" y="190" on="0"/>
        <pt x="36" y="274" on="1"/>
        <pt x="36" y="419" on="0"/>
        <pt x="173" y="579" on="0"/>
        <pt x="298" y="579" on="1"/>
        <pt x="324" y="579" on="0"/>
        <pt x="371" y="572" on="0"/>
        <pt x="392" y="565" on="1"/>
        <pt x="426" y="635" on="1"/>
        <pt x="479" y="607" on="1"/>
        <pt x="445" y="538" on="1"/>
        <pt x="494" y="503" on="0"/>
        <pt x="542" y="378" on="0"/>
        <pt x="542" y="294" on="1"/>
        <pt x="542" y="150" on="0"/>
        <pt x="404" y="-11" on="0"/>
      </contour>
    </TTGlyph>
    <TTGlyph name="Otilde" xMin="38" yMin="-11" xMax="544" yMax="740">
      <component glyphName="O" x="0" y="0" flags="0x204"/>
      <component glyphName="tildecomb.case" x="291" y="0" flags="0x4"/>
    </TTGlyph>
    <TTGlyph name="P" xMin="35" yMin="0" xMax="506" yMax="572">
      <contour>
        <pt x="282" y="256" on="1"/>
        <pt x="325" y="256" on="0"/>
        <pt x="384" y="319" on="0"/>
        <pt x="384" y="405" on="1"/>
        <pt x="384" y="468" on="0"/>
        <pt x="332" y="524" on="0"/>
        <pt x="281" y="524" on="1"/>
        <pt x="260" y="524" on="0"/>
        <pt x="238" y="521" on="0"/>
        <pt x="229" y="520" on="1"/>
        <pt x="229" y="259" on="1"/>
        <pt x="242" y="258" on="0"/>
        <pt x="266" y="256" on="0"/>
      </contour>
      <contour>
        <pt x="335" y="47" on="1"/>
        <pt x="335" y="0" on="1"/>
        <pt x="35" y="0" on="1"/>
        <pt x="35" y="47" on="1"/>
        <pt x="93" y="58" on="1"/>
        <pt x="100" y="59" on="0"/>
        <pt x="110" y="70" on="0"/>
        <pt x="110" y="77" on="1"/>
        <pt x="110" y="489" on="1"/>
        <pt x="110" y="495" on="0"/>
        <pt x="101" y="506" on="0"/>
        <pt x="94" y="507" on="1"/>
        <pt x="35" y="519" on="1"/>
        <pt x="35" y="568" on="1"/>
        <pt x="171" y="568" on="1"/>
        <pt x="198" y="568" on="0"/>
        <pt x="254" y="572" on="0"/>
        <pt x="297" y="572" on="1"/>
        <pt x="417" y="572" on="0"/>
        <pt x="506" y="486" on="0"/>
        <pt x="506" y="408" on="1"/>
        <pt x="506" y="313" on="0"/>
        <pt x="388" y="207" on="0"/>
        <pt x="284" y="207" on="1"/>
        <pt x="270" y="207" on="0"/>
        <pt x="242" y="208" on="0"/>
        <pt x="229" y="209" on="1"/>
        <pt x="229" y="77" on="1"/>
        <pt x="229" y="70" on="0"/>
        <pt x="238" y="60" on="0"/>
        <pt x="245" y="59" on="1"/>
      </contour>
    </TTGlyph>
    <TTGlyph name="Q" xMin="38" yMin="-153" xMax="606" yMax="579">
      <contour>
        <pt x="498" y="-153" on="1"/>
        <pt x="457" y="-153" on="0"/>
        <pt x="400" y="-120" on="0"/>
        <pt x="353" y="-75" on="0"/>
        <pt x="305" y="-27" on="0"/>
        <pt x="273" y="-11" on="1"/>
        <pt x="154" y="-9" on="0"/>
        <pt x="38" y="146" on="0"/>
        <pt x="38" y="274" on="1"/>
        <pt x="38" y="417" on="0"/>
        <pt x="175" y="579" on="0"/>
        <pt x="300" y="579" on="1"/>
        <pt x="425" y="579" on="0"/>
        <pt x="544" y="423" on="0"/>
        <pt x="544" y="294" on="1"/>
        <pt x="544" y="180" on="0"/>
        <pt x="452" y="28" on="0"/>
        <pt x="370" y="2" on="1"/>
        <pt x="390" y="-5" on="0"/>
        <pt x="425" y="-23" on="0"/>
        <pt x="444" y="-34" on="1"/>
        <pt x="472" y="-52" on="0"/>
        <pt x="525" y="-72" on="0"/>
        <pt x="555" y="-72" on="1"/>
        <pt x="567" y="-72" on="0"/>
        <pt x="587" y="-70" on="0"/>
        <pt x="595" y="-69" on="1"/>
        <pt x="606" y="-109" on="1"/>
        <pt x="592" y="-124" on="0"/>
        <pt x="532" y="-153" on="0"/>
      </contour>
      <contour>
        <pt x="292" y="527" on="1"/>
        <pt x="232" y="527" on="0"/>
        <pt x="168" y="410" on="0"/>
        <pt x="168" y="281" on="1"/>
        <pt x="168" y="156" on="0"/>
        <pt x="229" y="41" on="0"/>
        <pt x="289" y="41" on="1"/>
        <pt x="349" y="41" on="0"/>
        <pt x="413" y="159" on="0"/>
        <pt x="413" y="288" on="1"/>
        <pt x="413" y="413" on="0"/>
        <pt x="353" y="527" on="0"/>
      </contour>
    </TTGlyph>
    <TTGlyph name="R" xMin="35" yMin="0" xMax="580" yMax="573">
      <contour>
        <pt x="228" y="521" on="1"/>
        <pt x="228" y="293" on="1"/>
        <pt x="246" y="291" on="0"/>
        <pt x="287" y="291" on="0"/>
        <pt x="297" y="291" on="1"/>
        <pt x="336" y="292" on="0"/>
        <pt x="388" y="351" on="0"/>
        <pt x="388" y="415" on="1"/>
        <pt x="388" y="472" on="0"/>
        <pt x="338" y="525" on="0"/>
        <pt x="281" y="525" on="1"/>
        <pt x="266" y="525" on="0"/>
        <pt x="238" y="522" on="0"/>
      </contour>
      <contour>
        <pt x="304" y="47" on="1"/>
        <pt x="304" y="0" on="1"/>
        <pt x="35" y="0" on="1"/>
        <pt x="35" y="47" on="1"/>
        <pt x="92" y="58" on="1"/>
        <pt x="100" y="59" on="0"/>
        <pt x="110" y="70" on="0"/>
        <pt x="110" y="79" on="1"/>
        <pt x="110" y="487" on="1"/>
        <pt x="110" y="496" on="0"/>
        <pt x="100" y="507" on="0"/>
        <pt x="92" y="508" on="1"/>
        <pt x="35" y="519" on="1"/>
        <pt x="35" y="568" on="1"/>
        <pt x="166" y="568" on="1"/>
        <pt x="198" y="568" on="0"/>
        <pt x="256" y="573" on="0"/>
        <pt x="294" y="573" on="1"/>
        <pt x="411" y="573" on="0"/>
        <pt x="513" y="501" on="0"/>
        <pt x="513" y="421" on="1"/>
        <pt x="513" y="340" on="0"/>
        <pt x="433" y="274" on="0"/>
        <pt x="391" y="263" on="1"/>
        <pt x="417" y="250" on="0"/>
        <pt x="455" y="209" on="0"/>
        <pt x="471" y="175" on="1"/>
        <pt x="515" y="81" on="1"/>
        <pt x="521" y="68" on="0"/>
        <pt x="534" y="58" on="0"/>
        <pt x="544" y="56" on="1"/>
        <pt x="580" y="47" on="1"/>
        <pt x="580" y="0" on="1"/>
        <pt x="438" y="0" on="1"/>
        <pt x="422" y="0" on="0"/>
        <pt x="396" y="43" on="0"/>
        <pt x="381" y="78" on="1"/>
        <pt x="344" y="168" on="1"/>
        <pt x="334" y="193" on="0"/>
        <pt x="312" y="232" on="0"/>
        <pt x="301" y="244" on="1"/>
        <pt x="228" y="244" on="1"/>
        <pt x="228" y="77" on="1"/>
        <pt x="228" y="69" on="0"/>
        <pt x="237" y="59" on="0"/>
        <pt x="247" y="57" on="1"/>
      </contour>
    </TTGlyph>
    <TTGlyph name="Racute" xMin="35" yMin="0" xMax="580" yMax="769">
      <component glyphName="R" x="0" y="0" flags="0x204"/>
      <component glyphName="acutecomb.case" x="283" y="0" flags="0x4"/>
    </TTGlyph>
    <TTGlyph name="Rcaron" xMin="35" yMin="0" xMax="580" yMax="765">
      <component glyphName="R" x="0" y="0" flags="0x204"/>
      <component glyphName="uni030C.case" x="283" y="0" flags="0x4"/>
    </TTGlyph>
    <TTGlyph name="Rcommaaccent" xMin="35" yMin="-221" xMax="580" yMax="573">
      <component glyphName="R" x="0" y="0" flags="0x204"/>
      <component glyphName="uni0326" x="326" y="0" flags="0x4"/>
    </TTGlyph>
    <TTGlyph name="S" xMin="42" yMin="-12" xMax="441" yMax="579">
      <contour>
        <pt x="441" y="158" on="1"/>
        <pt x="441" y="97" on="0"/>
        <pt x="344" y="-12" on="0"/>
        <pt x="231" y="-12" on="1"/>
        <pt x="174" y="-12" on="0"/>
        <pt x="77" y="15" on="0"/>
        <pt x="44" y="32" on="1"/>
        <pt x="42" y="70" on="0"/>
        <pt x="47" y="153" on="0"/>
        <pt x="53" y="187" on="1"/>
        <pt x="121" y="187" on="1"/>
        <pt x="135" y="96" on="1"/>
        <pt x="136" y="88" on="0"/>
        <pt x="143" y="75" on="0"/>
        <pt x="150" y="68" on="1"/>
        <pt x="161" y="57" on="0"/>
        <pt x="207" y="37" on="0"/>
        <pt x="235" y="37" on="1"/>
        <pt x="277" y="37" on="0"/>
        <pt x="322" y="81" on="0"/>
        <pt x="322" y="117" on="1"/>
        <pt x="322" y="166" on="0"/>
        <pt x="250" y="220" on="0"/>
        <pt x="199" y="245" on="1"/>
        <pt x="143" y="273" on="0"/>
        <pt x="50" y="346" on="0"/>
        <pt x="50" y="418" on="1"/>
        <pt x="50" y="487" on="0"/>
        <pt x="150" y="579" on="0"/>
        <pt x="249" y="579" on="1"/>
        <pt x="291" y="579" on="0"/>
        <pt x="378" y="562" on="0"/>
        <pt x="409" y="549" on="1"/>
        <pt x="412" y="513" on="0"/>
        <pt x="407" y="438" on="0"/>
        <pt x="402" y="404" on="1"/>
        <pt x="335" y="404" on="1"/>
        <pt x="321" y="483" on="1"/>
        <pt x="319" y="493" on="0"/>
        <pt x="312" y="507" on="0"/>
        <pt x="305" y="512" on="1"/>
        <pt x="295" y="519" on="0"/>
        <pt x="259" y="531" on="0"/>
        <pt x="240" y="531" on="1"/>
        <pt x="203" y="531" on="0"/>
        <pt x="162" y="491" on="0"/>
        <pt x="162" y="458" on="1"/>
        <pt x="162" y="413" on="0"/>
        <pt x="228" y="365" on="0"/>
        <pt x="287" y="336" on="1"/>
        <pt x="348" y="305" on="0"/>
        <pt x="441" y="226" on="0"/>
      </contour>
    </TTGlyph>
    <TTGlyph name="Sacute" xMin="42" yMin="-12" xMax="441" yMax="769">
      <component glyphName="S" x="0" y="0" flags="0x204"/>
      <component glyphName="acutecomb.case" x="244" y="0" flags="0x4"/>
    </TTGlyph>
    <TTGlyph name="Scaron" xMin="42" yMin="-12" xMax="441" yMax="765">
      <component glyphName="S" x="0" y="0" flags="0x204"/>
      <component glyphName="uni030C.case" x="244" y="0" flags="0x4"/>
    </TTGlyph>
    <TTGlyph name="Scedilla" xMin="42" yMin="-191" xMax="441" yMax="579">
      <component glyphName="S" x="0" y="0" flags="0x204"/>
      <component glyphName="uni0327" x="224" y="0" flags="0x4"/>
    </TTGlyph>
    <TTGlyph name="Scircumflex" xMin="42" yMin="-12" xMax="441" yMax="759">
      <component glyphName="S" x="0" y="0" flags="0x204"/>
      <component glyphName="uni0302.case" x="244" y="0" flags="0x4"/>
    </TTGlyph>
    <TTGlyph name="Scommaaccent" xMin="42" yMin="-221" xMax="441" yMax="579">
      <component glyphName="S" x="0" y="0" flags="0x204"/>
      <component glyphName="uni0326" x="224" y="0" flags="0x4"/>
    </TTGlyph>
    <TTGlyph name="T" xMin="23" yMin="0" xMax="551" yMax="568">
      <contour>
        <pt x="450" y="0" on="1"/>
        <pt x="124" y="0" on="1"/>
        <pt x="124" y="47" on="1"/>
        <pt x="210" y="61" on="1"/>
        <pt x="219" y="62" on="0"/>
        <pt x="228" y="72" on="0"/>
        <pt x="228" y="81" on="1"/>
        <pt x="228" y="517" on="1"/>
        <pt x="193" y="517" on="1"/>
        <pt x="175" y="517" on="0"/>
        <pt x="144" y="513" on="0"/>
        <pt x="135" y="510" on="1"/>
        <pt x="127" y="507" on="0"/>
        <pt x="118" y="497" on="0"/>
        <pt x="117" y="489" on="1"/>
        <pt x="88" y="372" on="1"/>
        <pt x="29" y="372" on="1"/>
        <pt x="24" y="424" on="0"/>
        <pt x="23" y="517" on="0"/>
        <pt x="28" y="568" on="1"/>
        <pt x="546" y="568" on="1"/>
        <pt x="551" y="517" on="0"/>
        <pt x="550" y="423" on="0"/>
        <pt x="545" y="372" on="1"/>
        <pt x="486" y="372" on="1"/>
        <pt x="456" y="490" on="1"/>
        <pt x="455" y="497" on="0"/>
        <pt x="446" y="507" on="0"/>
        <pt x="439" y="510" on="1"/>
        <pt x="429" y="513" on="0"/>
        <pt x="399" y="517" on="0"/>
        <pt x="381" y="517" on="1"/>
        <pt x="347" y="517" on="1"/>
        <pt x="347" y="81" on="1"/>
        <pt x="347" y="72" on="0"/>
        <pt x="356" y="62" on="0"/>
        <pt x="365" y="61" on="1"/>
        <pt x="450" y="47" on="1"/>
      </contour>
    </TTGlyph>
    <TTGlyph name="Tbar" xMin="23" yMin="0" xMax="551" yMax="568">
      <contour>
        <pt x="450" y="47" on="1"/>
        <pt x="450" y="0" on="1"/>
        <pt x="124" y="0" on="1"/>
        <pt x="124" y="47" on="1"/>
        <pt x="210" y="61" on="1"/>
        <pt x="219" y="62" on="0"/>
        <pt x="228" y="72" on="0"/>
        <pt x="228" y="81" on="1"/>
        <pt x="228" y="223" on="1"/>
        <pt x="137" y="223" on="1"/>
        <pt x="137" y="279" on="1"/>
        <pt x="228" y="279" on="1"/>
        <pt x="228" y="517" on="1"/>
        <pt x="193" y="517" on="1"/>
        <pt x="175" y="517" on="0"/>
        <pt x="144" y="513" on="0"/>
        <pt x="135" y="510" on="1"/>
        <pt x="127" y="507" on="0"/>
        <pt x="118" y="497" on="0"/>
        <pt x="117" y="489" on="1"/>
        <pt x="88" y="372" on="1"/>
        <pt x="29" y="372" on="1"/>
        <pt x="24" y="424" on="0"/>
        <pt x="23" y="517" on="0"/>
        <pt x="28" y="568" on="1"/>
        <pt x="546" y="568" on="1"/>
        <pt x="551" y="517" on="0"/>
        <pt x="550" y="423" on="0"/>
        <pt x="545" y="372" on="1"/>
        <pt x="486" y="372" on="1"/>
        <pt x="456" y="490" on="1"/>
        <pt x="455" y="497" on="0"/>
        <pt x="446" y="507" on="0"/>
        <pt x="439" y="510" on="1"/>
        <pt x="429" y="513" on="0"/>
        <pt x="399" y="517" on="0"/>
        <pt x="381" y="517" on="1"/>
        <pt x="347" y="517" on="1"/>
        <pt x="347" y="279" on="1"/>
        <pt x="437" y="279" on="1"/>
        <pt x="437" y="223" on="1"/>
        <pt x="347" y="223" on="1"/>
        <pt x="347" y="81" on="1"/>
        <pt x="347" y="72" on="0"/>
        <pt x="356" y="62" on="0"/>
        <pt x="365" y="61" on="1"/>
      </contour>
    </TTGlyph>
    <TTGlyph name="Tcaron" xMin="23" yMin="0" xMax="551" yMax="765">
      <component glyphName="T" x="0" y="0" flags="0x204"/>
      <component glyphName="uni030C.case" x="288" y="0" flags="0x4"/>
    </TTGlyph>
    <TTGlyph name="Thorn" xMin="38" yMin="0" xMax="499" yMax="568">
      <contour>
        <pt x="285" y="167" on="1"/>
        <pt x="325" y="167" on="0"/>
        <pt x="374" y="223" on="0"/>
        <pt x="374" y="289" on="1"/>
        <pt x="374" y="335" on="0"/>
        <pt x="333" y="397" on="0"/>
        <pt x="282" y="397" on="1"/>
        <pt x="268" y="397" on="0"/>
        <pt x="238" y="395" on="0"/>
        <pt x="223" y="393" on="1"/>
        <pt x="223" y="171" on="1"/>
        <pt x="239" y="169" on="0"/>
        <pt x="272" y="167" on="0"/>
      </contour>
      <contour>
        <pt x="301" y="47" on="1"/>
        <pt x="301" y="0" on="1"/>
        <pt x="38" y="0" on="1"/>
        <pt x="38" y="47" on="1"/>
        <pt x="88" y="58" on="1"/>
        <pt x="97" y="59" on="0"/>
        <pt x="106" y="70" on="0"/>
        <pt x="106" y="79" on="1"/>
        <pt x="106" y="486" on="1"/>
        <pt x="106" y="495" on="0"/>
        <pt x="96" y="506" on="0"/>
        <pt x="88" y="508" on="1"/>
        <pt x="38" y="519" on="1"/>
        <pt x="38" y="568" on="1"/>
        <pt x="301" y="568" on="1"/>
        <pt x="301" y="519" on="1"/>
        <pt x="241" y="508" on="1"/>
        <pt x="232" y="507" on="0"/>
        <pt x="223" y="495" on="0"/>
        <pt x="223" y="486" on="1"/>
        <pt x="223" y="441" on="1"/>
        <pt x="250" y="443" on="0"/>
        <pt x="304" y="448" on="0"/>
        <pt x="329" y="448" on="1"/>
        <pt x="413" y="448" on="0"/>
        <pt x="499" y="373" on="0"/>
        <pt x="499" y="294" on="1"/>
        <pt x="499" y="204" on="0"/>
        <pt x="398" y="119" on="0"/>
        <pt x="305" y="119" on="1"/>
        <pt x="280" y="119" on="0"/>
        <pt x="241" y="121" on="0"/>
        <pt x="223" y="123" on="1"/>
        <pt x="223" y="80" on="1"/>
        <pt x="223" y="70" on="0"/>
        <pt x="232" y="59" on="0"/>
        <pt x="241" y="58" on="1"/>
      </contour>
    </TTGlyph>
    <TTGlyph name="U" xMin="33" yMin="-9" xMax="592" yMax="568">
      <contour>
        <pt x="380" y="568" on="1"/>
        <pt x="592" y="568" on="1"/>
        <pt x="592" y="519" on="1"/>
        <pt x="551" y="509" on="1"/>
        <pt x="542" y="507" on="0"/>
        <pt x="534" y="495" on="0"/>
        <pt x="534" y="487" on="1"/>
        <pt x="534" y="210" on="1"/>
        <pt x="534" y="92" on="0"/>
        <pt x="415" y="-9" on="0"/>
        <pt x="314" y="-9" on="1"/>
        <pt x="199" y="-9" on="0"/>
        <pt x="88" y="99" on="0"/>
        <pt x="88" y="216" on="1"/>
        <pt x="88" y="487" on="1"/>
        <pt x="88" y="495" on="0"/>
        <pt x="79" y="507" on="0"/>
        <pt x="71" y="509" on="1"/>
        <pt x="33" y="519" on="1"/>
        <pt x="33" y="568" on="1"/>
        <pt x="288" y="568" on="1"/>
        <pt x="288" y="519" on="1"/>
        <pt x="228" y="507" on="1"/>
        <pt x="219" y="506" on="0"/>
        <pt x="210" y="494" on="0"/>
        <pt x="210" y="485" on="1"/>
        <pt x="210" y="205" on="1"/>
        <pt x="210" y="124" on="0"/>
        <pt x="270" y="41" on="0"/>
        <pt x="333" y="41" on="1"/>
        <pt x="402" y="41" on="0"/>
        <pt x="458" y="130" on="0"/>
        <pt x="458" y="204" on="1"/>
        <pt x="458" y="486" on="1"/>
        <pt x="458" y="495" on="0"/>
        <pt x="450" y="507" on="0"/>
        <pt x="441" y="508" on="1"/>
        <pt x="380" y="519" on="1"/>
      </contour>
    </TTGlyph>
    <TTGlyph name="Uacute" xMin="33" yMin="-9" xMax="592" yMax="769">
      <component glyphName="U" x="0" y="0" flags="0x204"/>
      <component glyphName="acutecomb.case" x="321" y="0" flags="0x4"/>
    </TTGlyph>
    <TTGlyph name="Ubreve" xMin="33" yMin="-9" xMax="592" yMax="752">
      <component glyphName="U" x="0" y="0" flags="0x204"/>
      <component glyphName="uni0306.case" x="321" y="0" flags="0x4"/>
    </TTGlyph>
    <TTGlyph name="Ucircumflex" xMin="33" yMin="-9" xMax="592" yMax="759">
      <component glyphName="U" x="0" y="0" flags="0x204"/>
      <component glyphName="uni0302.case" x="321" y="0" flags="0x4"/>
    </TTGlyph>
    <TTGlyph name="Udieresis" xMin="33" yMin="-9" xMax="592" yMax="731">
      <component glyphName="U" x="0" y="0" flags="0x204"/>
      <component glyphName="uni0308.case" x="321" y="0" flags="0x4"/>
    </TTGlyph>
    <TTGlyph name="Ugrave" xMin="33" yMin="-9" xMax="592" yMax="773">
      <component glyphName="U" x="0" y="0" flags="0x204"/>
      <component glyphName="gravecomb.case" x="321" y="0" flags="0x4"/>
    </TTGlyph>
    <TTGlyph name="Uhungarumlaut" xMin="33" yMin="-9" xMax="592" yMax="773">
      <component glyphName="U" x="0" y="0" flags="0x204"/>
      <component glyphName="uni030B.case" x="321" y="0" flags="0x4"/>
    </TTGlyph>
    <TTGlyph name="Umacron" xMin="33" yMin="-9" xMax="592" yMax="704">
      <component glyphName="U" x="0" y="0" flags="0x204"/>
      <component glyphName="uni0304.case" x="321" y="0" flags="0x4"/>
    </TTGlyph>
    <TTGlyph name="Uogonek" xMin="33" yMin="-189" xMax="592" yMax="568">
      <contour>
        <pt x="356" y="-189" on="1"/>
        <pt x="314" y="-188" on="0"/>
        <pt x="257" y="-151" on="0"/>
        <pt x="257" y="-114" on="1"/>
        <pt x="257" y="-75" on="0"/>
        <pt x="319" y="-22" on="0"/>
        <pt x="350" y="-9" on="1"/>
        <pt x="350" y="-7" on="1"/>
        <pt x="342" y="-8" on="0"/>
        <pt x="324" y="-9" on="0"/>
        <pt x="314" y="-9" on="1"/>
        <pt x="199" y="-9" on="0"/>
        <pt x="88" y="99" on="0"/>
        <pt x="88" y="216" on="1"/>
        <pt x="88" y="487" on="1"/>
        <pt x="88" y="495" on="0"/>
        <pt x="79" y="507" on="0"/>
        <pt x="71" y="509" on="1"/>
        <pt x="33" y="519" on="1"/>
        <pt x="33" y="568" on="1"/>
        <pt x="288" y="568" on="1"/>
        <pt x="288" y="519" on="1"/>
        <pt x="228" y="507" on="1"/>
        <pt x="219" y="506" on="0"/>
        <pt x="210" y="494" on="0"/>
        <pt x="210" y="485" on="1"/>
        <pt x="210" y="205" on="1"/>
        <pt x="210" y="124" on="0"/>
        <pt x="270" y="41" on="0"/>
        <pt x="333" y="41" on="1"/>
        <pt x="402" y="41" on="0"/>
        <pt x="458" y="130" on="0"/>
        <pt x="458" y="204" on="1"/>
        <pt x="458" y="486" on="1"/>
        <pt x="458" y="495" on="0"/>
        <pt x="450" y="507" on="0"/>
        <pt x="441" y="508" on="1"/>
        <pt x="380" y="519" on="1"/>
        <pt x="380" y="568" on="1"/>
        <pt x="592" y="568" on="1"/>
        <pt x="592" y="519" on="1"/>
        <pt x="551" y="509" on="1"/>
        <pt x="542" y="507" on="0"/>
        <pt x="534" y="495" on="0"/>
        <pt x="534" y="487" on="1"/>
        <pt x="534" y="210" on="1"/>
        <pt x="534" y="143" on="0"/>
        <pt x="494" y="50" on="0"/>
        <pt x="454" y="25" on="1"/>
        <pt x="405" y="-6" on="0"/>
        <pt x="348" y="-60" on="0"/>
        <pt x="348" y="-88" on="1"/>
        <pt x="348" y="-107" on="0"/>
        <pt x="374" y="-126" on="0"/>
        <pt x="395" y="-126" on="1"/>
        <pt x="405" y="-126" on="0"/>
        <pt x="430" y="-120" on="0"/>
        <pt x="440" y="-116" on="1"/>
        <pt x="458" y="-161" on="1"/>
        <pt x="437" y="-174" on="0"/>
        <pt x="381" y="-189" on="0"/>
      </contour>
    </TTGlyph>
    <TTGlyph name="Uring" xMin="33" yMin="-9" xMax="592" yMax="786">
      <component glyphName="U" x="0" y="0" flags="0x204"/>
      <component glyphName="uni030A.case" x="321" y="0" flags="0x4"/>
    </TTGlyph>
    <TTGlyph name="Utilde" xMin="33" yMin="-9" xMax="592" yMax="740">
      <component glyphName="U" x="0" y="0" flags="0x204"/>
      <component glyphName="tildecomb.case" x="321" y="0" flags="0x4"/>
    </TTGlyph>
    <TTGlyph name="V" xMin="-6" yMin="-2" xMax="578" yMax="568">
      <contour>
        <pt x="347" y="-2" on="1"/>
        <pt x="240" y="-2" on="1"/>
        <pt x="59" y="490" on="1"/>
        <pt x="56" y="497" on="0"/>
        <pt x="46" y="506" on="0"/>
        <pt x="39" y="508" on="1"/>
        <pt x="-6" y="519" on="1"/>
        <pt x="-6" y="568" on="1"/>
        <pt x="250" y="568" on="1"/>
        <pt x="250" y="519" on="1"/>
        <pt x="178" y="505" on="1"/>
        <pt x="319" y="104" on="1"/>
        <pt x="444" y="505" on="1"/>
        <pt x="372" y="519" on="1"/>
        <pt x="372" y="568" on="1"/>
        <pt x="578" y="568" on="1"/>
        <pt x="578" y="519" on="1"/>
        <pt x="530" y="508" on="1"/>
        <pt x="523" y="506" on="0"/>
        <pt x="512" y="497" on="0"/>
        <pt x="510" y="490" on="1"/>
      </contour>
    </TTGlyph>
    <TTGlyph name="W" xMin="-3" yMin="-3" xMax="835" yMax="568">
      <contour>
        <pt x="520" y="-3" on="1"/>
        <pt x="419" y="347" on="1"/>
        <pt x="322" y="-3" on="1"/>
        <pt x="215" y="-3" on="1"/>
        <pt x="63" y="489" on="1"/>
        <pt x="61" y="496" on="0"/>
        <pt x="51" y="506" on="0"/>
        <pt x="44" y="508" on="1"/>
        <pt x="-3" y="519" on="1"/>
        <pt x="-3" y="568" on="1"/>
        <pt x="247" y="568" on="1"/>
        <pt x="247" y="519" on="1"/>
        <pt x="181" y="505" on="1"/>
        <pt x="291" y="103" on="1"/>
        <pt x="388" y="444" on="1"/>
        <pt x="372" y="489" on="1"/>
        <pt x="370" y="496" on="0"/>
        <pt x="360" y="506" on="0"/>
        <pt x="353" y="508" on="1"/>
        <pt x="319" y="519" on="1"/>
        <pt x="319" y="568" on="1"/>
        <pt x="562" y="568" on="1"/>
        <pt x="562" y="519" on="1"/>
        <pt x="490" y="505" on="1"/>
        <pt x="597" y="108" on="1"/>
        <pt x="703" y="505" on="1"/>
        <pt x="637" y="519" on="1"/>
        <pt x="637" y="568" on="1"/>
        <pt x="835" y="568" on="1"/>
        <pt x="835" y="519" on="1"/>
        <pt x="786" y="508" on="1"/>
        <pt x="779" y="506" on="0"/>
        <pt x="769" y="497" on="0"/>
        <pt x="767" y="489" on="1"/>
        <pt x="627" y="-3" on="1"/>
      </contour>
    </TTGlyph>
    <TTGlyph name="Wacute" xMin="-3" yMin="-3" xMax="835" yMax="769">
      <component glyphName="W" x="0" y="0" flags="0x204"/>
      <component glyphName="acutecomb.case" x="420" y="0" flags="0x4"/>
    </TTGlyph>
    <TTGlyph name="Wcircumflex" xMin="-3" yMin="-3" xMax="835" yMax="759">
      <component glyphName="W" x="0" y="0" flags="0x204"/>
      <component glyphName="uni0302.case" x="420" y="0" flags="0x4"/>
    </TTGlyph>
    <TTGlyph name="Wdieresis" xMin="-3" yMin="-3" xMax="835" yMax="731">
      <component glyphName="W" x="0" y="0" flags="0x204"/>
      <component glyphName="uni0308.case" x="420" y="0" flags="0x4"/>
    </TTGlyph>
    <TTGlyph name="Wgrave" xMin="-3" yMin="-3" xMax="835" yMax="773">
      <component glyphName="W" x="0" y="0" flags="0x204"/>
      <component glyphName="gravecomb.case" x="420" y="0" flags="0x4"/>
    </TTGlyph>
    <TTGlyph name="X" xMin="7" yMin="0" xMax="554" yMax="568">
      <contour>
        <pt x="216" y="47" on="1"/>
        <pt x="216" y="0" on="1"/>
        <pt x="7" y="0" on="1"/>
        <pt x="7" y="47" on="1"/>
        <pt x="60" y="58" on="1"/>
        <pt x="67" y="59" on="0"/>
        <pt x="77" y="66" on="0"/>
        <pt x="81" y="73" on="1"/>
        <pt x="221" y="273" on="1"/>
        <pt x="79" y="492" on="1"/>
        <pt x="75" y="498" on="0"/>
        <pt x="65" y="506" on="0"/>
        <pt x="58" y="508" on="1"/>
        <pt x="17" y="519" on="1"/>
        <pt x="17" y="568" on="1"/>
        <pt x="270" y="568" on="1"/>
        <pt x="270" y="519" on="1"/>
        <pt x="209" y="506" on="1"/>
        <pt x="304" y="351" on="1"/>
        <pt x="406" y="506" on="1"/>
        <pt x="343" y="519" on="1"/>
        <pt x="343" y="568" on="1"/>
        <pt x="538" y="568" on="1"/>
        <pt x="538" y="519" on="1"/>
        <pt x="490" y="508" on="1"/>
        <pt x="483" y="506" on="0"/>
        <pt x="473" y="499" on="0"/>
        <pt x="469" y="493" on="1"/>
        <pt x="337" y="307" on="1"/>
        <pt x="491" y="73" on="1"/>
        <pt x="495" y="66" on="0"/>
        <pt x="505" y="59" on="0"/>
        <pt x="512" y="58" on="1"/>
        <pt x="554" y="47" on="1"/>
        <pt x="554" y="0" on="1"/>
        <pt x="300" y="0" on="1"/>
        <pt x="300" y="47" on="1"/>
        <pt x="360" y="59" on="1"/>
        <pt x="256" y="227" on="1"/>
        <pt x="146" y="59" on="1"/>
      </contour>
    </TTGlyph>
    <TTGlyph name="Y" xMin="-7" yMin="0" xMax="540" yMax="568">
      <contour>
        <pt x="424" y="0" on="1"/>
        <pt x="127" y="0" on="1"/>
        <pt x="127" y="47" on="1"/>
        <pt x="197" y="61" on="1"/>
        <pt x="205" y="62" on="0"/>
        <pt x="215" y="72" on="0"/>
        <pt x="215" y="81" on="1"/>
        <pt x="215" y="221" on="1"/>
        <pt x="60" y="492" on="1"/>
        <pt x="56" y="499" on="0"/>
        <pt x="45" y="507" on="0"/>
        <pt x="38" y="508" on="1"/>
        <pt x="-7" y="519" on="1"/>
        <pt x="-7" y="568" on="1"/>
        <pt x="252" y="568" on="1"/>
        <pt x="252" y="519" on="1"/>
        <pt x="192" y="505" on="1"/>
        <pt x="303" y="293" on="1"/>
        <pt x="408" y="505" on="1"/>
        <pt x="342" y="519" on="1"/>
        <pt x="342" y="568" on="1"/>
        <pt x="540" y="568" on="1"/>
        <pt x="540" y="519" on="1"/>
        <pt x="497" y="509" on="1"/>
        <pt x="490" y="507" on="0"/>
        <pt x="479" y="500" on="0"/>
        <pt x="476" y="493" on="1"/>
        <pt x="337" y="220" on="1"/>
        <pt x="337" y="81" on="1"/>
        <pt x="337" y="72" on="0"/>
        <pt x="346" y="62" on="0"/>
        <pt x="355" y="61" on="1"/>
        <pt x="424" y="47" on="1"/>
      </contour>
    </TTGlyph>
    <TTGlyph name="Yacute" xMin="-7" yMin="0" xMax="540" yMax="769">
      <component glyphName="Y" x="0" y="0" flags="0x204"/>
      <component glyphName="acutecomb.case" x="281" y="0" flags="0x4"/>
    </TTGlyph>
    <TTGlyph name="Ycircumflex" xMin="-7" yMin="0" xMax="540" yMax="759">
      <component glyphName="Y" x="0" y="0" flags="0x204"/>
      <component glyphName="uni0302.case" x="281" y="0" flags="0x4"/>
    </TTGlyph>
    <TTGlyph name="Ydieresis" xMin="-7" yMin="0" xMax="540" yMax="731">
      <component glyphName="Y" x="0" y="0" flags="0x204"/>
      <component glyphName="uni0308.case" x="281" y="0" flags="0x4"/>
    </TTGlyph>
    <TTGlyph name="Ygrave" xMin="-7" yMin="0" xMax="540" yMax="773">
      <component glyphName="Y" x="0" y="0" flags="0x204"/>
      <component glyphName="gravecomb.case" x="281" y="0" flags="0x4"/>
    </TTGlyph>
    <TTGlyph name="Z" xMin="20" yMin="0" xMax="474" yMax="569">
      <contour>
        <pt x="458" y="0" on="1"/>
        <pt x="44" y="0" on="1"/>
        <pt x="20" y="41" on="1"/>
        <pt x="332" y="518" on="1"/>
        <pt x="246" y="518" on="1"/>
        <pt x="223" y="518" on="0"/>
        <pt x="186" y="514" on="0"/>
        <pt x="176" y="510" on="1"/>
        <pt x="168" y="507" on="0"/>
        <pt x="158" y="496" on="0"/>
        <pt x="154" y="488" on="1"/>
        <pt x="124" y="389" on="1"/>
        <pt x="58" y="389" on="1"/>
        <pt x="56" y="433" on="0"/>
        <pt x="62" y="527" on="0"/>
        <pt x="69" y="569" on="1"/>
        <pt x="456" y="569" on="1"/>
        <pt x="474" y="527" on="1"/>
        <pt x="168" y="55" on="1"/>
        <pt x="282" y="55" on="1"/>
        <pt x="305" y="55" on="0"/>
        <pt x="342" y="59" on="0"/>
        <pt x="353" y="63" on="1"/>
        <pt x="360" y="66" on="0"/>
        <pt x="371" y="77" on="0"/>
        <pt x="373" y="86" on="1"/>
        <pt x="408" y="189" on="1"/>
        <pt x="472" y="181" on="1"/>
        <pt x="473" y="144" on="0"/>
        <pt x="465" y="40" on="0"/>
      </contour>
    </TTGlyph>
    <TTGlyph name="Zacute" xMin="20" yMin="0" xMax="474" yMax="769">
      <component glyphName="Z" x="0" y="0" flags="0x204"/>
      <component glyphName="acutecomb.case" x="271" y="0" flags="0x4"/>
    </TTGlyph>
    <TTGlyph name="Zcaron" xMin="20" yMin="0" xMax="474" yMax="765">
      <component glyphName="Z" x="0" y="0" flags="0x204"/>
      <component glyphName="uni030C.case" x="271" y="0" flags="0x4"/>
    </TTGlyph>
    <TTGlyph name="Zdotaccent" xMin="20" yMin="0" xMax="474" yMax="744">
      <component glyphName="Z" x="0" y="0" flags="0x204"/>
      <component glyphName="uni0307.case" x="271" y="0" flags="0x4"/>
    </TTGlyph>
    <TTGlyph name="__periodcentered.CAT" xMin="-30" yMin="213" xMax="104" yMax="337">
      <contour>
        <pt x="104" y="275" on="1"/>
        <pt x="104" y="247" on="0"/>
        <pt x="68" y="213" on="0"/>
        <pt x="38" y="213" on="1"/>
        <pt x="7" y="213" on="0"/>
        <pt x="-30" y="247" on="0"/>
        <pt x="-30" y="275" on="1"/>
        <pt x="-30" y="303" on="0"/>
        <pt x="7" y="337" on="0"/>
        <pt x="38" y="337" on="1"/>
        <pt x="68" y="337" on="0"/>
        <pt x="104" y="303" on="0"/>
      </contour>
    </TTGlyph>
    <TTGlyph name="__periodcentered.CAT.case" xMin="-153" yMin="264" xMax="-20" yMax="388">
      <contour>
        <pt x="-20" y="326" on="1"/>
        <pt x="-20" y="298" on="0"/>
        <pt x="-56" y="264" on="0"/>
        <pt x="-86" y="264" on="1"/>
        <pt x="-117" y="264" on="0"/>
        <pt x="-153" y="298" on="0"/>
        <pt x="-153" y="326" on="1"/>
        <pt x="-153" y="354" on="0"/>
        <pt x="-117" y="388" on="0"/>
        <pt x="-86" y="388" on="1"/>
        <pt x="-56" y="388" on="0"/>
        <pt x="-20" y="354" on="0"/>
      </contour>
    </TTGlyph>
    <TTGlyph name="a" xMin="28" yMin="-8" xMax="433" yMax="424">
      <contour>
        <pt x="194" y="57" on="1"/>
        <pt x="213" y="57" on="0"/>
        <pt x="252" y="70" on="0"/>
        <pt x="266" y="81" on="1"/>
        <pt x="266" y="173" on="1"/>
        <pt x="216" y="169" on="1"/>
        <pt x="178" y="167" on="0"/>
        <pt x="145" y="133" on="0"/>
        <pt x="145" y="106" on="1"/>
        <pt x="145" y="82" on="0"/>
        <pt x="169" y="57" on="0"/>
      </contour>
      <contour>
        <pt x="353" y="-7" on="1"/>
        <pt x="323" y="-7" on="0"/>
        <pt x="282" y="17" on="0"/>
        <pt x="272" y="43" on="1"/>
        <pt x="250" y="18" on="0"/>
        <pt x="186" y="-8" on="0"/>
        <pt x="147" y="-8" on="1"/>
        <pt x="94" y="-8" on="0"/>
        <pt x="28" y="46" on="0"/>
        <pt x="28" y="93" on="1"/>
        <pt x="28" y="153" on="0"/>
        <pt x="128" y="209" on="0"/>
        <pt x="189" y="213" on="1"/>
        <pt x="266" y="218" on="1"/>
        <pt x="266" y="262" on="1"/>
        <pt x="266" y="310" on="0"/>
        <pt x="223" y="348" on="0"/>
        <pt x="183" y="348" on="1"/>
        <pt x="149" y="348" on="0"/>
        <pt x="91" y="326" on="0"/>
        <pt x="66" y="303" on="1"/>
        <pt x="40" y="327" on="1"/>
        <pt x="56" y="373" on="0"/>
        <pt x="147" y="424" on="0"/>
        <pt x="216" y="424" on="1"/>
        <pt x="299" y="424" on="0"/>
        <pt x="376" y="345" on="0"/>
        <pt x="376" y="267" on="1"/>
        <pt x="376" y="78" on="1"/>
        <pt x="376" y="67" on="0"/>
        <pt x="386" y="57" on="0"/>
        <pt x="396" y="56" on="1"/>
        <pt x="433" y="51" on="1"/>
        <pt x="433" y="7" on="1"/>
        <pt x="420" y="3" on="0"/>
        <pt x="373" y="-7" on="0"/>
      </contour>
    </TTGlyph>
    <TTGlyph name="aacute" xMin="28" yMin="-8" xMax="433" yMax="653">
      <component glyphName="a" x="0" y="0" flags="0x204"/>
      <component glyphName="acutecomb" x="217" y="0" flags="0x4"/>
    </TTGlyph>
    <TTGlyph name="abreve" xMin="28" yMin="-8" xMax="433" yMax="614">
      <component glyphName="a" x="0" y="0" flags="0x204"/>
      <component glyphName="uni0306" x="217" y="0" flags="0x4"/>
    </TTGlyph>
    <TTGlyph name="acircumflex" xMin="28" yMin="-8" xMax="433" yMax="641">
      <component glyphName="a" x="0" y="0" flags="0x204"/>
      <component glyphName="uni0302" x="217" y="0" flags="0x4"/>
    </TTGlyph>
    <TTGlyph name="acute" xMin="116" yMin="456" xMax="322" yMax="653">
      <component glyphName="acutecomb" x="182" y="0" flags="0x4"/>
    </TTGlyph>
    <TTGlyph name="acutecomb" xMin="-66" yMin="456" xMax="140" yMax="653">
      <contour>
        <pt x="-36" y="456" on="1"/>
        <pt x="-66" y="491" on="1"/>
        <pt x="75" y="653" on="1"/>
        <pt x="140" y="593" on="1"/>
        <pt x="115" y="560" on="0"/>
        <pt x="16" y="486" on="0"/>
      </contour>
    </TTGlyph>
    <TTGlyph name="acutecomb.case" xMin="-90" yMin="607" xMax="147" yMax="769">
      <contour>
        <pt x="147" y="696" on="1"/>
        <pt x="110" y="669" on="0"/>
        <pt x="-17" y="623" on="0"/>
        <pt x="-70" y="607" on="1"/>
        <pt x="-90" y="647" on="1"/>
        <pt x="96" y="769" on="1"/>
      </contour>
    </TTGlyph>
    <TTGlyph name="adieresis" xMin="28" yMin="-8" xMax="433" yMax="594">
      <component glyphName="a" x="0" y="0" flags="0x204"/>
      <component glyphName="uni0308" x="217" y="0" flags="0x4"/>
    </TTGlyph>
    <TTGlyph name="ae" xMin="28" yMin="-9" xMax="623" yMax="424">
      <contour>
        <pt x="452" y="375" on="1"/>
        <pt x="424" y="375" on="0"/>
        <pt x="385" y="328" on="0"/>
        <pt x="379" y="272" on="1"/>
        <pt x="517" y="272" on="1"/>
        <pt x="517" y="289" on="1"/>
        <pt x="517" y="326" on="0"/>
        <pt x="484" y="375" on="0"/>
      </contour>
      <contour>
        <pt x="620" y="91" on="1"/>
        <pt x="605" y="42" on="0"/>
        <pt x="512" y="-9" on="0"/>
        <pt x="452" y="-9" on="1"/>
        <pt x="399" y="-9" on="0"/>
        <pt x="323" y="29" on="0"/>
        <pt x="301" y="63" on="1"/>
        <pt x="277" y="29" on="0"/>
        <pt x="199" y="-8" on="0"/>
        <pt x="151" y="-8" on="1"/>
        <pt x="94" y="-8" on="0"/>
        <pt x="28" y="46" on="0"/>
        <pt x="28" y="92" on="1"/>
        <pt x="28" y="152" on="0"/>
        <pt x="128" y="210" on="0"/>
        <pt x="189" y="213" on="1"/>
        <pt x="266" y="219" on="1"/>
        <pt x="266" y="262" on="1"/>
        <pt x="266" y="309" on="0"/>
        <pt x="220" y="348" on="0"/>
        <pt x="180" y="348" on="1"/>
        <pt x="150" y="348" on="0"/>
        <pt x="91" y="326" on="0"/>
        <pt x="66" y="303" on="1"/>
        <pt x="40" y="327" on="1"/>
        <pt x="56" y="373" on="0"/>
        <pt x="149" y="424" on="0"/>
        <pt x="208" y="424" on="1"/>
        <pt x="251" y="424" on="0"/>
        <pt x="308" y="398" on="0"/>
        <pt x="325" y="374" on="1"/>
        <pt x="350" y="398" on="0"/>
        <pt x="419" y="424" on="0"/>
        <pt x="463" y="424" on="1"/>
        <pt x="541" y="424" on="0"/>
        <pt x="623" y="347" on="0"/>
        <pt x="623" y="283" on="1"/>
        <pt x="623" y="270" on="0"/>
        <pt x="619" y="240" on="0"/>
        <pt x="617" y="227" on="1"/>
        <pt x="377" y="227" on="1"/>
        <pt x="377" y="226" on="1"/>
        <pt x="377" y="136" on="0"/>
        <pt x="434" y="63" on="0"/>
        <pt x="485" y="63" on="1"/>
        <pt x="516" y="63" on="0"/>
        <pt x="574" y="87" on="0"/>
        <pt x="592" y="110" on="1"/>
      </contour>
      <contour>
        <pt x="194" y="57" on="1"/>
        <pt x="217" y="57" on="0"/>
        <pt x="265" y="76" on="0"/>
        <pt x="285" y="94" on="1"/>
        <pt x="278" y="111" on="0"/>
        <pt x="268" y="151" on="0"/>
        <pt x="267" y="173" on="1"/>
        <pt x="216" y="169" on="1"/>
        <pt x="177" y="167" on="0"/>
        <pt x="145" y="132" on="0"/>
        <pt x="145" y="106" on="1"/>
        <pt x="145" y="82" on="0"/>
        <pt x="169" y="57" on="0"/>
      </contour>
    </TTGlyph>
    <TTGlyph name="agrave" xMin="28" yMin="-8" xMax="433" yMax="653">
      <component glyphName="a" x="0" y="0" flags="0x204"/>
      <component glyphName="gravecomb" x="217" y="0" flags="0x4"/>
    </TTGlyph>
    <TTGlyph name="amacron" xMin="28" yMin="-8" xMax="433" yMax="561">
      <component glyphName="a" x="0" y="0" flags="0x204"/>
      <component glyphName="uni0304" x="217" y="0" flags="0x4"/>
    </TTGlyph>
    <TTGlyph name="ampersand" xMin="33" yMin="-11" xMax="569" yMax="578">
      <contour>
        <pt x="193" y="458" on="1"/>
        <pt x="193" y="433" on="0"/>
        <pt x="214" y="379" on="0"/>
        <pt x="246" y="334" on="1"/>
        <pt x="277" y="360" on="0"/>
        <pt x="305" y="427" on="0"/>
        <pt x="305" y="461" on="1"/>
        <pt x="305" y="498" on="0"/>
        <pt x="278" y="538" on="0"/>
        <pt x="253" y="538" on="1"/>
        <pt x="225" y="538" on="0"/>
        <pt x="193" y="495" on="0"/>
      </contour>
      <contour>
        <pt x="249" y="42" on="1"/>
        <pt x="268" y="42" on="0"/>
        <pt x="313" y="52" on="0"/>
        <pt x="334" y="64" on="1"/>
        <pt x="291" y="103" on="0"/>
        <pt x="205" y="205" on="0"/>
        <pt x="178" y="240" on="1"/>
        <pt x="161" y="225" on="0"/>
        <pt x="137" y="184" on="0"/>
        <pt x="137" y="152" on="1"/>
        <pt x="137" y="103" on="0"/>
        <pt x="197" y="42" on="0"/>
      </contour>
      <contour>
        <pt x="475" y="-7" on="1"/>
        <pt x="450" y="-7" on="0"/>
        <pt x="400" y="11" on="0"/>
        <pt x="371" y="33" on="1"/>
        <pt x="341" y="11" on="0"/>
        <pt x="263" y="-11" on="0"/>
        <pt x="221" y="-11" on="1"/>
        <pt x="141" y="-11" on="0"/>
        <pt x="33" y="59" on="0"/>
        <pt x="33" y="136" on="1"/>
        <pt x="33" y="203" on="0"/>
        <pt x="108" y="267" on="0"/>
        <pt x="148" y="280" on="1"/>
        <pt x="119" y="320" on="0"/>
        <pt x="86" y="394" on="0"/>
        <pt x="86" y="432" on="1"/>
        <pt x="86" y="496" on="0"/>
        <pt x="178" y="578" on="0"/>
        <pt x="256" y="578" on="1"/>
        <pt x="326" y="578" on="0"/>
        <pt x="403" y="510" on="0"/>
        <pt x="403" y="453" on="1"/>
        <pt x="403" y="401" on="0"/>
        <pt x="336" y="322" on="0"/>
        <pt x="271" y="300" on="1"/>
        <pt x="301" y="263" on="0"/>
        <pt x="380" y="171" on="0"/>
        <pt x="416" y="134" on="1"/>
        <pt x="431" y="157" on="0"/>
        <pt x="443" y="211" on="0"/>
        <pt x="443" y="233" on="1"/>
        <pt x="443" y="241" on="0"/>
        <pt x="438" y="254" on="0"/>
        <pt x="429" y="256" on="1"/>
        <pt x="372" y="267" on="1"/>
        <pt x="372" y="317" on="1"/>
        <pt x="569" y="317" on="1"/>
        <pt x="569" y="267" on="1"/>
        <pt x="532" y="256" on="1"/>
        <pt x="523" y="253" on="0"/>
        <pt x="518" y="244" on="0"/>
        <pt x="517" y="234" on="1"/>
        <pt x="510" y="198" on="0"/>
        <pt x="478" y="131" on="0"/>
        <pt x="447" y="103" on="1"/>
        <pt x="481" y="73" on="0"/>
        <pt x="527" y="58" on="0"/>
        <pt x="566" y="58" on="1"/>
        <pt x="566" y="9" on="1"/>
        <pt x="547" y="3" on="0"/>
        <pt x="497" y="-7" on="0"/>
      </contour>
    </TTGlyph>
    <TTGlyph name="aogonek" xMin="28" yMin="-189" xMax="433" yMax="424">
      <contour>
        <pt x="325" y="-189" on="1"/>
        <pt x="283" y="-188" on="0"/>
        <pt x="227" y="-151" on="0"/>
        <pt x="227" y="-114" on="1"/>
        <pt x="227" y="-77" on="0"/>
        <pt x="289" y="-18" on="0"/>
        <pt x="326" y="-5" on="1"/>
        <pt x="326" y="-4" on="1"/>
        <pt x="307" y="0" on="0"/>
        <pt x="279" y="23" on="0"/>
        <pt x="272" y="43" on="1"/>
        <pt x="250" y="18" on="0"/>
        <pt x="186" y="-8" on="0"/>
        <pt x="147" y="-8" on="1"/>
        <pt x="94" y="-8" on="0"/>
        <pt x="28" y="46" on="0"/>
        <pt x="28" y="93" on="1"/>
        <pt x="28" y="153" on="0"/>
        <pt x="128" y="209" on="0"/>
        <pt x="189" y="213" on="1"/>
        <pt x="266" y="218" on="1"/>
        <pt x="266" y="262" on="1"/>
        <pt x="266" y="310" on="0"/>
        <pt x="223" y="348" on="0"/>
        <pt x="183" y="348" on="1"/>
        <pt x="149" y="348" on="0"/>
        <pt x="91" y="326" on="0"/>
        <pt x="66" y="303" on="1"/>
        <pt x="40" y="327" on="1"/>
        <pt x="56" y="373" on="0"/>
        <pt x="147" y="424" on="0"/>
        <pt x="216" y="424" on="1"/>
        <pt x="299" y="424" on="0"/>
        <pt x="376" y="345" on="0"/>
        <pt x="376" y="267" on="1"/>
        <pt x="376" y="78" on="1"/>
        <pt x="376" y="67" on="0"/>
        <pt x="386" y="57" on="0"/>
        <pt x="396" y="56" on="1"/>
        <pt x="433" y="51" on="1"/>
        <pt x="433" y="7" on="1"/>
        <pt x="427" y="6" on="0"/>
        <pt x="411" y="1" on="0"/>
        <pt x="401" y="-1" on="1"/>
        <pt x="364" y="-15" on="0"/>
        <pt x="317" y="-62" on="0"/>
        <pt x="317" y="-87" on="1"/>
        <pt x="317" y="-106" on="0"/>
        <pt x="344" y="-126" on="0"/>
        <pt x="365" y="-126" on="1"/>
        <pt x="375" y="-126" on="0"/>
        <pt x="398" y="-120" on="0"/>
        <pt x="409" y="-116" on="1"/>
        <pt x="425" y="-161" on="1"/>
        <pt x="406" y="-174" on="0"/>
        <pt x="350" y="-189" on="0"/>
      </contour>
      <contour>
        <pt x="194" y="57" on="1"/>
        <pt x="213" y="57" on="0"/>
        <pt x="252" y="70" on="0"/>
        <pt x="266" y="81" on="1"/>
        <pt x="266" y="173" on="1"/>
        <pt x="216" y="169" on="1"/>
        <pt x="178" y="167" on="0"/>
        <pt x="145" y="133" on="0"/>
        <pt x="145" y="106" on="1"/>
        <pt x="145" y="82" on="0"/>
        <pt x="169" y="57" on="0"/>
      </contour>
    </TTGlyph>
    <TTGlyph name="approxequal" xMin="46" yMin="77" xMax="427" yMax="369">
      <component glyphName="asciitilde" x="1" y="-81" flags="0x4"/>
      <component glyphName="asciitilde" x="1" y="81" flags="0x4"/>
    </TTGlyph>
    <TTGlyph name="aring" xMin="28" yMin="-8" xMax="433" yMax="646">
      <component glyphName="a" x="0" y="0" flags="0x204"/>
      <component glyphName="uni030A" x="217" y="0" flags="0x4"/>
    </TTGlyph>
    <TTGlyph name="asciicircum" xMin="31" yMin="278" xMax="434" yMax="564">
      <contour>
        <pt x="386" y="278" on="1"/>
        <pt x="226" y="463" on="1"/>
        <pt x="72" y="278" on="1"/>
        <pt x="31" y="310" on="1"/>
        <pt x="183" y="557" on="1"/>
        <pt x="270" y="564" on="1"/>
        <pt x="434" y="310" on="1"/>
      </contour>
    </TTGlyph>
    <TTGlyph name="asciitilde" xMin="45" yMin="158" xMax="426" yMax="288">
      <contour>
        <pt x="426" y="256" on="1"/>
        <pt x="407" y="212" on="0"/>
        <pt x="341" y="158" on="0"/>
        <pt x="304" y="158" on="1"/>
        <pt x="261" y="158" on="0"/>
        <pt x="186" y="208" on="0"/>
        <pt x="152" y="208" on="1"/>
        <pt x="130" y="208" on="0"/>
        <pt x="93" y="182" on="0"/>
        <pt x="77" y="164" on="1"/>
        <pt x="45" y="190" on="1"/>
        <pt x="64" y="235" on="0"/>
        <pt x="130" y="288" on="0"/>
        <pt x="167" y="288" on="1"/>
        <pt x="210" y="288" on="0"/>
        <pt x="285" y="238" on="0"/>
        <pt x="319" y="238" on="1"/>
        <pt x="340" y="238" on="0"/>
        <pt x="378" y="264" on="0"/>
        <pt x="393" y="283" on="1"/>
      </contour>
    </TTGlyph>
    <TTGlyph name="asterisk" xMin="43" yMin="293" xMax="399" yMax="652">
      <contour>
        <pt x="259" y="361" on="1"/>
        <pt x="267" y="293" on="1"/>
        <pt x="175" y="293" on="1"/>
        <pt x="183" y="361" on="1"/>
        <pt x="206" y="446" on="1"/>
        <pt x="144" y="383" on="1"/>
        <pt x="89" y="343" on="1"/>
        <pt x="43" y="422" on="1"/>
        <pt x="106" y="450" on="1"/>
        <pt x="191" y="472" on="1"/>
        <pt x="106" y="494" on="1"/>
        <pt x="43" y="522" on="1"/>
        <pt x="89" y="601" on="1"/>
        <pt x="144" y="561" on="1"/>
        <pt x="206" y="498" on="1"/>
        <pt x="183" y="583" on="1"/>
        <pt x="175" y="652" on="1"/>
        <pt x="267" y="652" on="1"/>
        <pt x="259" y="583" on="1"/>
        <pt x="236" y="498" on="1"/>
        <pt x="298" y="561" on="1"/>
        <pt x="353" y="601" on="1"/>
        <pt x="399" y="522" on="1"/>
        <pt x="336" y="494" on="1"/>
        <pt x="251" y="472" on="1"/>
        <pt x="336" y="450" on="1"/>
        <pt x="399" y="422" on="1"/>
        <pt x="353" y="343" on="1"/>
        <pt x="298" y="383" on="1"/>
        <pt x="236" y="446" on="1"/>
      </contour>
    </TTGlyph>
    <TTGlyph name="at" xMin="32" yMin="-191" xMax="735" yMax="567">
      <contour>
        <pt x="334" y="-191" on="1"/>
        <pt x="194" y="-191" on="0"/>
        <pt x="34" y="-17" on="0"/>
        <pt x="33" y="126" on="1"/>
        <pt x="32" y="221" on="0"/>
        <pt x="99" y="384" on="0"/>
        <pt x="212" y="501" on="0"/>
        <pt x="365" y="567" on="0"/>
        <pt x="450" y="567" on="1"/>
        <pt x="573" y="567" on="0"/>
        <pt x="735" y="423" on="0"/>
        <pt x="735" y="291" on="1"/>
        <pt x="735" y="215" on="0"/>
        <pt x="683" y="100" on="0"/>
        <pt x="611" y="24" on="0"/>
        <pt x="535" y="-14" on="0"/>
        <pt x="510" y="-14" on="1"/>
        <pt x="484" y="-14" on="0"/>
        <pt x="455" y="28" on="0"/>
        <pt x="455" y="65" on="1"/>
        <pt x="455" y="79" on="0"/>
        <pt x="461" y="126" on="0"/>
        <pt x="466" y="160" on="1"/>
        <pt x="442" y="92" on="0"/>
        <pt x="362" y="-20" on="0"/>
        <pt x="310" y="-20" on="1"/>
        <pt x="267" y="-20" on="0"/>
        <pt x="198" y="66" on="0"/>
        <pt x="198" y="141" on="1"/>
        <pt x="198" y="185" on="0"/>
        <pt x="226" y="275" on="0"/>
        <pt x="277" y="347" on="0"/>
        <pt x="352" y="392" on="0"/>
        <pt x="399" y="392" on="1"/>
        <pt x="420" y="392" on="0"/>
        <pt x="465" y="380" on="0"/>
        <pt x="491" y="366" on="1"/>
        <pt x="512" y="391" on="1"/>
        <pt x="575" y="371" on="1"/>
        <pt x="572" y="358" on="0"/>
        <pt x="559" y="292" on="0"/>
        <pt x="546" y="214" on="0"/>
        <pt x="535" y="133" on="0"/>
        <pt x="535" y="105" on="1"/>
        <pt x="535" y="78" on="0"/>
        <pt x="545" y="57" on="0"/>
        <pt x="556" y="57" on="1"/>
        <pt x="569" y="57" on="0"/>
        <pt x="608" y="84" on="0"/>
        <pt x="644" y="136" on="0"/>
        <pt x="669" y="215" on="0"/>
        <pt x="669" y="266" on="1"/>
        <pt x="669" y="333" on="0"/>
        <pt x="624" y="426" on="0"/>
        <pt x="553" y="482" on="0"/>
        <pt x="464" y="507" on="0"/>
        <pt x="420" y="507" on="1"/>
        <pt x="354" y="507" on="0"/>
        <pt x="239" y="457" on="0"/>
        <pt x="156" y="365" on="0"/>
        <pt x="108" y="234" on="0"/>
        <pt x="108" y="154" on="1"/>
        <pt x="108" y="8" on="0"/>
        <pt x="253" y="-131" on="0"/>
        <pt x="354" y="-131" on="1"/>
        <pt x="394" y="-131" on="0"/>
        <pt x="482" y="-112" on="0"/>
        <pt x="504" y="-98" on="1"/>
        <pt x="522" y="-136" on="1"/>
        <pt x="491" y="-161" on="0"/>
        <pt x="391" y="-191" on="0"/>
      </contour>
      <contour>
        <pt x="334" y="66" on="1"/>
        <pt x="361" y="66" on="0"/>
        <pt x="428" y="163" on="0"/>
        <pt x="451" y="239" on="1"/>
        <pt x="455" y="253" on="0"/>
        <pt x="463" y="280" on="0"/>
        <pt x="466" y="292" on="1"/>
        <pt x="450" y="310" on="0"/>
        <pt x="404" y="330" on="0"/>
        <pt x="385" y="330" on="1"/>
        <pt x="337" y="330" on="0"/>
        <pt x="289" y="228" on="0"/>
        <pt x="289" y="171" on="1"/>
        <pt x="289" y="134" on="0"/>
        <pt x="311" y="66" on="0"/>
      </contour>
    </TTGlyph>
    <TTGlyph name="atilde" xMin="28" yMin="-8" xMax="433" yMax="599">
      <component glyphName="a" x="0" y="0" flags="0x204"/>
      <component glyphName="tildecomb" x="217" y="0" flags="0x4"/>
    </TTGlyph>
    <TTGlyph name="b" xMin="-8" yMin="-8" xMax="446" yMax="655">
      <contour>
        <pt x="218" y="-8" on="1"/>
        <pt x="171" y="-8" on="0"/>
        <pt x="81" y="11" on="0"/>
        <pt x="59" y="20" on="1"/>
        <pt x="59" y="558" on="1"/>
        <pt x="59" y="567" on="0"/>
        <pt x="50" y="578" on="0"/>
        <pt x="42" y="579" on="1"/>
        <pt x="-8" y="587" on="1"/>
        <pt x="-8" y="632" on="1"/>
        <pt x="29" y="642" on="0"/>
        <pt x="121" y="654" on="0"/>
        <pt x="157" y="655" on="1"/>
        <pt x="173" y="640" on="1"/>
        <pt x="173" y="379" on="1"/>
        <pt x="195" y="401" on="0"/>
        <pt x="253" y="425" on="0"/>
        <pt x="289" y="425" on="1"/>
        <pt x="355" y="425" on="0"/>
        <pt x="446" y="330" on="0"/>
        <pt x="446" y="228" on="1"/>
        <pt x="446" y="118" on="0"/>
        <pt x="328" y="-8" on="0"/>
      </contour>
      <contour>
        <pt x="226" y="40" on="1"/>
        <pt x="274" y="40" on="0"/>
        <pt x="324" y="118" on="0"/>
        <pt x="325" y="205" on="1"/>
        <pt x="326" y="290" on="0"/>
        <pt x="280" y="356" on="0"/>
        <pt x="238" y="356" on="1"/>
        <pt x="220" y="356" on="0"/>
        <pt x="187" y="346" on="0"/>
        <pt x="173" y="336" on="1"/>
        <pt x="173" y="52" on="1"/>
        <pt x="183" y="47" on="0"/>
        <pt x="210" y="40" on="0"/>
      </contour>
    </TTGlyph>
    <TTGlyph name="backslash" xMin="21" yMin="-105" xMax="345" yMax="633">
      <contour>
        <pt x="345" y="-105" on="1"/>
        <pt x="254" y="-105" on="1"/>
        <pt x="21" y="633" on="1"/>
        <pt x="112" y="633" on="1"/>
      </contour>
    </TTGlyph>
    <TTGlyph name="bar" xMin="74" yMin="-114" xMax="161" yMax="692">
      <contour>
        <pt x="74" y="-114" on="1"/>
        <pt x="74" y="692" on="1"/>
        <pt x="161" y="692" on="1"/>
        <pt x="160" y="-114" on="1"/>
      </contour>
    </TTGlyph>
    <TTGlyph name="braceleft" xMin="8" yMin="-152" xMax="318" yMax="722">
      <contour>
        <pt x="318" y="-101" on="1"/>
        <pt x="311" y="-152" on="1"/>
        <pt x="292" y="-152" on="0"/>
        <pt x="245" y="-149" on="0"/>
        <pt x="223" y="-147" on="1"/>
        <pt x="152" y="-141" on="0"/>
        <pt x="87" y="-73" on="0"/>
        <pt x="87" y="-17" on="1"/>
        <pt x="87" y="34" on="0"/>
        <pt x="101" y="126" on="0"/>
        <pt x="101" y="165" on="1"/>
        <pt x="101" y="200" on="0"/>
        <pt x="71" y="245" on="0"/>
        <pt x="8" y="251" on="1"/>
        <pt x="8" y="320" on="1"/>
        <pt x="71" y="325" on="0"/>
        <pt x="101" y="370" on="0"/>
        <pt x="101" y="405" on="1"/>
        <pt x="101" y="444" on="0"/>
        <pt x="87" y="537" on="0"/>
        <pt x="87" y="587" on="1"/>
        <pt x="87" y="643" on="0"/>
        <pt x="152" y="712" on="0"/>
        <pt x="223" y="717" on="1"/>
        <pt x="245" y="719" on="0"/>
        <pt x="292" y="722" on="0"/>
        <pt x="311" y="722" on="1"/>
        <pt x="318" y="672" on="1"/>
        <pt x="270" y="660" on="1"/>
        <pt x="228" y="651" on="0"/>
        <pt x="192" y="610" on="0"/>
        <pt x="192" y="567" on="1"/>
        <pt x="192" y="530" on="0"/>
        <pt x="201" y="435" on="0"/>
        <pt x="201" y="395" on="1"/>
        <pt x="201" y="345" on="0"/>
        <pt x="138" y="297" on="0"/>
        <pt x="89" y="287" on="1"/>
        <pt x="138" y="277" on="0"/>
        <pt x="201" y="226" on="0"/>
        <pt x="201" y="175" on="1"/>
        <pt x="201" y="135" on="0"/>
        <pt x="192" y="40" on="0"/>
        <pt x="192" y="3" on="1"/>
        <pt x="192" y="-40" on="0"/>
        <pt x="228" y="-81" on="0"/>
        <pt x="270" y="-91" on="1"/>
      </contour>
    </TTGlyph>
    <TTGlyph name="braceright" xMin="11" yMin="-152" xMax="322" yMax="722">
      <contour>
        <pt x="107" y="-148" on="1"/>
        <pt x="85" y="-149" on="0"/>
        <pt x="38" y="-152" on="0"/>
        <pt x="19" y="-152" on="1"/>
        <pt x="11" y="-101" on="1"/>
        <pt x="59" y="-91" on="1"/>
        <pt x="101" y="-82" on="0"/>
        <pt x="137" y="-41" on="0"/>
        <pt x="137" y="2" on="1"/>
        <pt x="137" y="40" on="0"/>
        <pt x="129" y="135" on="0"/>
        <pt x="129" y="175" on="1"/>
        <pt x="129" y="226" on="0"/>
        <pt x="191" y="276" on="0"/>
        <pt x="240" y="286" on="1"/>
        <pt x="191" y="295" on="0"/>
        <pt x="129" y="345" on="0"/>
        <pt x="129" y="395" on="1"/>
        <pt x="129" y="435" on="0"/>
        <pt x="137" y="531" on="0"/>
        <pt x="137" y="568" on="1"/>
        <pt x="137" y="611" on="0"/>
        <pt x="101" y="653" on="0"/>
        <pt x="59" y="662" on="1"/>
        <pt x="11" y="672" on="1"/>
        <pt x="19" y="722" on="1"/>
        <pt x="38" y="722" on="0"/>
        <pt x="85" y="720" on="0"/>
        <pt x="107" y="718" on="1"/>
        <pt x="177" y="712" on="0"/>
        <pt x="243" y="644" on="0"/>
        <pt x="243" y="587" on="1"/>
        <pt x="243" y="537" on="0"/>
        <pt x="228" y="444" on="0"/>
        <pt x="228" y="405" on="1"/>
        <pt x="228" y="370" on="0"/>
        <pt x="259" y="325" on="0"/>
        <pt x="322" y="320" on="1"/>
        <pt x="322" y="251" on="1"/>
        <pt x="259" y="245" on="0"/>
        <pt x="228" y="200" on="0"/>
        <pt x="228" y="165" on="1"/>
        <pt x="228" y="126" on="0"/>
        <pt x="243" y="33" on="0"/>
        <pt x="243" y="-17" on="1"/>
        <pt x="243" y="-74" on="0"/>
        <pt x="177" y="-142" on="0"/>
      </contour>
    </TTGlyph>
    <TTGlyph name="bracketleft" xMin="74" yMin="-151" xMax="282" yMax="722">
      <contour>
        <pt x="282" y="-140" on="1"/>
        <pt x="236" y="-145" on="0"/>
        <pt x="129" y="-151" on="0"/>
        <pt x="89" y="-151" on="1"/>
        <pt x="74" y="-137" on="1"/>
        <pt x="74" y="706" on="1"/>
        <pt x="89" y="721" on="1"/>
        <pt x="129" y="722" on="0"/>
        <pt x="236" y="716" on="0"/>
        <pt x="282" y="710" on="1"/>
        <pt x="282" y="663" on="1"/>
        <pt x="193" y="653" on="1"/>
        <pt x="183" y="652" on="0"/>
        <pt x="173" y="642" on="0"/>
        <pt x="173" y="632" on="1"/>
        <pt x="173" y="-62" on="1"/>
        <pt x="173" y="-71" on="0"/>
        <pt x="183" y="-83" on="0"/>
        <pt x="193" y="-84" on="1"/>
        <pt x="282" y="-93" on="1"/>
      </contour>
    </TTGlyph>
    <TTGlyph name="bracketright" xMin="16" yMin="-151" xMax="226" yMax="722">
      <contour>
        <pt x="226" y="-137" on="1"/>
        <pt x="210" y="-151" on="1"/>
        <pt x="169" y="-151" on="0"/>
        <pt x="62" y="-145" on="0"/>
        <pt x="16" y="-140" on="1"/>
        <pt x="16" y="-93" on="1"/>
        <pt x="106" y="-84" on="1"/>
        <pt x="115" y="-83" on="0"/>
        <pt x="125" y="-71" on="0"/>
        <pt x="125" y="-62" on="1"/>
        <pt x="125" y="632" on="1"/>
        <pt x="125" y="642" on="0"/>
        <pt x="115" y="652" on="0"/>
        <pt x="106" y="653" on="1"/>
        <pt x="16" y="663" on="1"/>
        <pt x="16" y="710" on="1"/>
        <pt x="62" y="716" on="0"/>
        <pt x="169" y="722" on="0"/>
        <pt x="210" y="721" on="1"/>
        <pt x="226" y="706" on="1"/>
      </contour>
    </TTGlyph>
    <TTGlyph name="breve" xMin="36" yMin="472" xMax="328" yMax="614">
      <component glyphName="uni0306" x="182" y="0" flags="0x4"/>
    </TTGlyph>
    <TTGlyph name="brokenbar" xMin="73" yMin="-114" xMax="160" yMax="692">
      <contour>
        <pt x="73" y="345" on="1"/>
        <pt x="73" y="692" on="1"/>
        <pt x="160" y="692" on="1"/>
        <pt x="160" y="345" on="1"/>
      </contour>
      <contour>
        <pt x="73" y="-114" on="1"/>
        <pt x="73" y="232" on="1"/>
        <pt x="160" y="232" on="1"/>
        <pt x="160" y="-114" on="1"/>
      </contour>
    </TTGlyph>
    <TTGlyph name="bullet" xMin="69" yMin="136" xMax="269" yMax="325">
      <contour>
        <pt x="269" y="230" on="1"/>
        <pt x="269" y="187" on="0"/>
        <pt x="215" y="136" on="0"/>
        <pt x="169" y="136" on="1"/>
        <pt x="123" y="136" on="0"/>
        <pt x="69" y="187" on="0"/>
        <pt x="69" y="230" on="1"/>
        <pt x="69" y="273" on="0"/>
        <pt x="123" y="325" on="0"/>
        <pt x="169" y="325" on="1"/>
        <pt x="215" y="325" on="0"/>
        <pt x="269" y="273" on="0"/>
      </contour>
    </TTGlyph>
    <TTGlyph name="bulletoperator" xMin="105" yMin="153" xMax="247" yMax="292">
      <contour>
        <pt x="247" y="223" on="1"/>
        <pt x="247" y="192" on="0"/>
        <pt x="207" y="153" on="0"/>
        <pt x="175" y="153" on="1"/>
        <pt x="143" y="153" on="0"/>
        <pt x="105" y="192" on="0"/>
        <pt x="105" y="223" on="1"/>
        <pt x="105" y="254" on="0"/>
        <pt x="143" y="292" on="0"/>
        <pt x="175" y="292" on="1"/>
        <pt x="207" y="292" on="0"/>
        <pt x="247" y="254" on="0"/>
      </contour>
    </TTGlyph>
    <TTGlyph name="c" xMin="33" yMin="-9" xMax="382" yMax="425">
      <contour>
        <pt x="33" y="202" on="1"/>
        <pt x="33" y="306" on="0"/>
        <pt x="147" y="425" on="0"/>
        <pt x="241" y="425" on="1"/>
        <pt x="278" y="425" on="0"/>
        <pt x="353" y="408" on="0"/>
        <pt x="377" y="395" on="1"/>
        <pt x="379" y="361" on="0"/>
        <pt x="374" y="290" on="0"/>
        <pt x="369" y="259" on="1"/>
        <pt x="313" y="259" on="1"/>
        <pt x="294" y="328" on="1"/>
        <pt x="291" y="340" on="0"/>
        <pt x="285" y="354" on="0"/>
        <pt x="279" y="358" on="1"/>
        <pt x="272" y="364" on="0"/>
        <pt x="250" y="373" on="0"/>
        <pt x="236" y="373" on="1"/>
        <pt x="200" y="373" on="0"/>
        <pt x="155" y="301" on="0"/>
        <pt x="155" y="220" on="1"/>
        <pt x="155" y="142" on="0"/>
        <pt x="206" y="63" on="0"/>
        <pt x="260" y="63" on="1"/>
        <pt x="292" y="63" on="0"/>
        <pt x="342" y="87" on="0"/>
        <pt x="356" y="100" on="1"/>
        <pt x="382" y="79" on="1"/>
        <pt x="368" y="40" on="0"/>
        <pt x="285" y="-9" on="0"/>
        <pt x="223" y="-9" on="1"/>
        <pt x="126" y="-9" on="0"/>
        <pt x="33" y="112" on="0"/>
      </contour>
    </TTGlyph>
    <TTGlyph name="cacute" xMin="33" yMin="-9" xMax="382" yMax="653">
      <component glyphName="c" x="0" y="0" flags="0x204"/>
      <component glyphName="acutecomb" x="228" y="0" flags="0x4"/>
    </TTGlyph>
    <TTGlyph name="caron" xMin="39" yMin="472" xMax="336" yMax="654">
      <component glyphName="uni030C" x="182" y="0" flags="0x4"/>
    </TTGlyph>
    <TTGlyph name="ccaron" xMin="33" yMin="-9" xMax="382" yMax="654">
      <component glyphName="c" x="0" y="0" flags="0x204"/>
      <component glyphName="uni030C" x="228" y="0" flags="0x4"/>
    </TTGlyph>
    <TTGlyph name="ccedilla" xMin="33" yMin="-191" xMax="382" yMax="425">
      <component glyphName="c" x="0" y="0" flags="0x204"/>
      <component glyphName="uni0327" x="215" y="0" flags="0x4"/>
    </TTGlyph>
    <TTGlyph name="ccircumflex" xMin="33" yMin="-9" xMax="382" yMax="641">
      <component glyphName="c" x="0" y="0" flags="0x204"/>
      <component glyphName="uni0302" x="228" y="0" flags="0x4"/>
    </TTGlyph>
    <TTGlyph name="cdotaccent" xMin="33" yMin="-9" xMax="382" yMax="598">
      <component glyphName="c" x="0" y="0" flags="0x204"/>
      <component glyphName="uni0307" x="228" y="0" flags="0x4"/>
    </TTGlyph>
    <TTGlyph name="cedilla" xMin="103" yMin="-191" xMax="269" yMax="19">
      <component glyphName="uni0327" x="182" y="0" flags="0x4"/>
    </TTGlyph>
    <TTGlyph name="cent" xMin="35" yMin="-76" xMax="392" yMax="514">
      <contour>
        <pt x="392" y="91" on="1"/>
        <pt x="376" y="57" on="0"/>
        <pt x="301" y="10" on="0"/>
        <pt x="251" y="4" on="1"/>
        <pt x="251" y="-76" on="1"/>
        <pt x="186" y="-76" on="1"/>
        <pt x="186" y="6" on="1"/>
        <pt x="111" y="19" on="0"/>
        <pt x="35" y="135" on="0"/>
        <pt x="35" y="214" on="1"/>
        <pt x="35" y="312" on="0"/>
        <pt x="137" y="426" on="0"/>
        <pt x="220" y="435" on="1"/>
        <pt x="220" y="514" on="1"/>
        <pt x="286" y="514" on="1"/>
        <pt x="286" y="435" on="1"/>
        <pt x="317" y="431" on="0"/>
        <pt x="372" y="415" on="0"/>
        <pt x="390" y="405" on="1"/>
        <pt x="392" y="371" on="0"/>
        <pt x="388" y="302" on="0"/>
        <pt x="382" y="271" on="1"/>
        <pt x="324" y="271" on="1"/>
        <pt x="307" y="340" on="1"/>
        <pt x="305" y="352" on="0"/>
        <pt x="297" y="366" on="0"/>
        <pt x="292" y="370" on="1"/>
        <pt x="285" y="377" on="0"/>
        <pt x="260" y="385" on="0"/>
        <pt x="246" y="385" on="1"/>
        <pt x="207" y="385" on="0"/>
        <pt x="157" y="308" on="0"/>
        <pt x="157" y="234" on="1"/>
        <pt x="157" y="156" on="0"/>
        <pt x="212" y="74" on="0"/>
        <pt x="263" y="74" on="1"/>
        <pt x="300" y="74" on="0"/>
        <pt x="349" y="102" on="0"/>
        <pt x="364" y="118" on="1"/>
      </contour>
    </TTGlyph>
    <TTGlyph name="cent.tf" xMin="44" yMin="-76" xMax="401" yMax="514">
      <component glyphName="cent" x="9" y="0" flags="0x4"/>
    </TTGlyph>
    <TTGlyph name="circumflex" xMin="33" yMin="459" xMax="331" yMax="641">
      <component glyphName="uni0302" x="182" y="0" flags="0x4"/>
    </TTGlyph>
    <TTGlyph name="colon" xMin="54" yMin="-7" xMax="187" yMax="420">
      <contour>
        <pt x="187" y="358" on="1"/>
        <pt x="187" y="330" on="0"/>
        <pt x="151" y="297" on="0"/>
        <pt x="121" y="297" on="1"/>
        <pt x="90" y="297" on="0"/>
        <pt x="54" y="330" on="0"/>
        <pt x="54" y="358" on="1"/>
        <pt x="54" y="386" on="0"/>
        <pt x="90" y="420" on="0"/>
        <pt x="121" y="420" on="1"/>
        <pt x="151" y="420" on="0"/>
        <pt x="187" y="386" on="0"/>
      </contour>
      <contour>
        <pt x="187" y="56" on="1"/>
        <pt x="187" y="28" on="0"/>
        <pt x="151" y="-7" on="0"/>
        <pt x="121" y="-7" on="1"/>
        <pt x="90" y="-7" on="0"/>
        <pt x="54" y="28" on="0"/>
        <pt x="54" y="56" on="1"/>
        <pt x="54" y="84" on="0"/>
        <pt x="90" y="118" on="0"/>
        <pt x="121" y="118" on="1"/>
        <pt x="151" y="118" on="0"/>
        <pt x="187" y="84" on="0"/>
      </contour>
    </TTGlyph>
    <TTGlyph name="comma" xMin="32" yMin="-164" xMax="182" yMax="124">
      <contour>
        <pt x="182" y="29" on="1"/>
        <pt x="182" y="-34" on="0"/>
        <pt x="104" y="-136" on="0"/>
        <pt x="54" y="-164" on="1"/>
        <pt x="32" y="-135" on="1"/>
        <pt x="60" y="-109" on="0"/>
        <pt x="95" y="-49" on="0"/>
        <pt x="95" y="-24" on="1"/>
        <pt x="95" y="-8" on="0"/>
        <pt x="82" y="0" on="0"/>
        <pt x="73" y="7" on="1"/>
        <pt x="62" y="15" on="0"/>
        <pt x="43" y="42" on="0"/>
        <pt x="43" y="62" on="1"/>
        <pt x="43" y="90" on="0"/>
        <pt x="79" y="124" on="0"/>
        <pt x="107" y="124" on="1"/>
        <pt x="139" y="124" on="0"/>
        <pt x="182" y="75" on="0"/>
      </contour>
    </TTGlyph>
    <TTGlyph name="copyright" xMin="35" yMin="-46" xMax="694" yMax="615">
      <contour>
        <pt x="35" y="284" on="1"/>
        <pt x="35" y="355" on="0"/>
        <pt x="85" y="477" on="0"/>
        <pt x="173" y="565" on="0"/>
        <pt x="294" y="615" on="0"/>
        <pt x="365" y="615" on="1"/>
        <pt x="508" y="615" on="0"/>
        <pt x="694" y="427" on="0"/>
        <pt x="694" y="284" on="1"/>
        <pt x="694" y="213" on="0"/>
        <pt x="644" y="92" on="0"/>
        <pt x="557" y="4" on="0"/>
        <pt x="436" y="-46" on="0"/>
        <pt x="365" y="-46" on="1"/>
        <pt x="294" y="-46" on="0"/>
        <pt x="173" y="4" on="0"/>
        <pt x="85" y="92" on="0"/>
        <pt x="35" y="213" on="0"/>
      </contour>
      <contour>
        <pt x="89" y="284" on="1"/>
        <pt x="89" y="160" on="0"/>
        <pt x="244" y="0" on="0"/>
        <pt x="365" y="0" on="1"/>
        <pt x="485" y="0" on="0"/>
        <pt x="640" y="160" on="0"/>
        <pt x="640" y="284" on="1"/>
        <pt x="640" y="409" on="0"/>
        <pt x="486" y="570" on="0"/>
        <pt x="365" y="570" on="1"/>
        <pt x="244" y="570" on="0"/>
        <pt x="89" y="409" on="0"/>
      </contour>
      <contour>
        <pt x="363" y="97" on="1"/>
        <pt x="285" y="97" on="0"/>
        <pt x="198" y="198" on="0"/>
        <pt x="198" y="281" on="1"/>
        <pt x="198" y="374" on="0"/>
        <pt x="300" y="471" on="0"/>
        <pt x="377" y="471" on="1"/>
        <pt x="413" y="471" on="0"/>
        <pt x="478" y="453" on="0"/>
        <pt x="496" y="440" on="1"/>
        <pt x="499" y="412" on="0"/>
        <pt x="496" y="353" on="0"/>
        <pt x="491" y="323" on="1"/>
        <pt x="440" y="323" on="1"/>
        <pt x="425" y="382" on="1"/>
        <pt x="424" y="389" on="0"/>
        <pt x="419" y="400" on="0"/>
        <pt x="412" y="405" on="1"/>
        <pt x="405" y="410" on="0"/>
        <pt x="383" y="419" on="0"/>
        <pt x="370" y="419" on="1"/>
        <pt x="336" y="419" on="0"/>
        <pt x="296" y="358" on="0"/>
        <pt x="296" y="296" on="1"/>
        <pt x="296" y="230" on="0"/>
        <pt x="344" y="162" on="0"/>
        <pt x="390" y="162" on="1"/>
        <pt x="415" y="162" on="0"/>
        <pt x="464" y="180" on="0"/>
        <pt x="478" y="195" on="1"/>
        <pt x="502" y="173" on="1"/>
        <pt x="488" y="141" on="0"/>
        <pt x="414" y="97" on="0"/>
      </contour>
    </TTGlyph>
    <TTGlyph name="currency" xMin="40" yMin="56" xMax="473" yMax="506">
      <contour>
        <pt x="255" y="194" on="1"/>
        <pt x="296" y="194" on="0"/>
        <pt x="336" y="245" on="0"/>
        <pt x="336" y="280" on="1"/>
        <pt x="336" y="318" on="0"/>
        <pt x="286" y="368" on="0"/>
        <pt x="253" y="368" on="1"/>
        <pt x="215" y="368" on="0"/>
        <pt x="174" y="314" on="0"/>
        <pt x="174" y="280" on="1"/>
        <pt x="174" y="244" on="0"/>
        <pt x="223" y="194" on="0"/>
      </contour>
      <contour>
        <pt x="255" y="116" on="1"/>
        <pt x="231" y="116" on="0"/>
        <pt x="187" y="129" on="0"/>
        <pt x="168" y="140" on="1"/>
        <pt x="85" y="56" on="1"/>
        <pt x="40" y="103" on="1"/>
        <pt x="121" y="183" on="1"/>
        <pt x="107" y="202" on="0"/>
        <pt x="91" y="250" on="0"/>
        <pt x="91" y="277" on="1"/>
        <pt x="91" y="305" on="0"/>
        <pt x="108" y="356" on="0"/>
        <pt x="123" y="377" on="1"/>
        <pt x="40" y="459" on="1"/>
        <pt x="84" y="505" on="1"/>
        <pt x="168" y="422" on="1"/>
        <pt x="187" y="434" on="0"/>
        <pt x="231" y="447" on="0"/>
        <pt x="255" y="447" on="1"/>
        <pt x="279" y="447" on="0"/>
        <pt x="324" y="434" on="0"/>
        <pt x="343" y="423" on="1"/>
        <pt x="427" y="506" on="1"/>
        <pt x="473" y="460" on="1"/>
        <pt x="391" y="379" on="1"/>
        <pt x="405" y="360" on="0"/>
        <pt x="421" y="312" on="0"/>
        <pt x="421" y="285" on="1"/>
        <pt x="421" y="257" on="0"/>
        <pt x="404" y="206" on="0"/>
        <pt x="389" y="185" on="1"/>
        <pt x="471" y="104" on="1"/>
        <pt x="426" y="58" on="1"/>
        <pt x="342" y="141" on="1"/>
        <pt x="323" y="129" on="0"/>
        <pt x="279" y="116" on="0"/>
      </contour>
    </TTGlyph>
    <TTGlyph name="d" xMin="34" yMin="-8" xMax="479" yMax="655">
      <contour>
        <pt x="238" y="57" on="1"/>
        <pt x="257" y="57" on="0"/>
        <pt x="293" y="67" on="0"/>
        <pt x="308" y="77" on="1"/>
        <pt x="308" y="361" on="1"/>
        <pt x="298" y="367" on="0"/>
        <pt x="268" y="374" on="0"/>
        <pt x="253" y="374" on="1"/>
        <pt x="210" y="374" on="0"/>
        <pt x="155" y="303" on="0"/>
        <pt x="154" y="209" on="1"/>
        <pt x="154" y="125" on="0"/>
        <pt x="200" y="57" on="0"/>
      </contour>
      <contour>
        <pt x="397" y="-7" on="1"/>
        <pt x="366" y="-7" on="0"/>
        <pt x="326" y="19" on="0"/>
        <pt x="316" y="43" on="1"/>
        <pt x="295" y="21" on="0"/>
        <pt x="236" y="-8" on="0"/>
        <pt x="198" y="-8" on="1"/>
        <pt x="129" y="-8" on="0"/>
        <pt x="34" y="89" on="0"/>
        <pt x="34" y="195" on="1"/>
        <pt x="34" y="308" on="0"/>
        <pt x="148" y="425" on="0"/>
        <pt x="248" y="425" on="1"/>
        <pt x="264" y="425" on="0"/>
        <pt x="295" y="421" on="0"/>
        <pt x="308" y="419" on="1"/>
        <pt x="308" y="558" on="1"/>
        <pt x="308" y="567" on="0"/>
        <pt x="299" y="578" on="0"/>
        <pt x="291" y="579" on="1"/>
        <pt x="240" y="587" on="1"/>
        <pt x="240" y="632" on="1"/>
        <pt x="277" y="642" on="0"/>
        <pt x="369" y="654" on="0"/>
        <pt x="406" y="655" on="1"/>
        <pt x="422" y="639" on="1"/>
        <pt x="422" y="78" on="1"/>
        <pt x="422" y="66" on="0"/>
        <pt x="432" y="57" on="0"/>
        <pt x="441" y="56" on="1"/>
        <pt x="479" y="51" on="1"/>
        <pt x="479" y="7" on="1"/>
        <pt x="466" y="3" on="0"/>
        <pt x="419" y="-7" on="0"/>
      </contour>
    </TTGlyph>
    <TTGlyph name="dagger" xMin="24" yMin="-92" xMax="335" yMax="607">
      <contour>
        <pt x="204" y="-92" on="1"/>
        <pt x="155" y="-92" on="1"/>
        <pt x="130" y="360" on="1"/>
        <pt x="130" y="360" on="1"/>
        <pt x="129" y="368" on="0"/>
        <pt x="121" y="378" on="0"/>
        <pt x="112" y="380" on="1"/>
        <pt x="24" y="403" on="1"/>
        <pt x="24" y="451" on="1"/>
        <pt x="125" y="448" on="1"/>
        <pt x="120" y="541" on="1"/>
        <pt x="120" y="607" on="1"/>
        <pt x="240" y="607" on="1"/>
        <pt x="240" y="541" on="1"/>
        <pt x="235" y="448" on="1"/>
        <pt x="335" y="451" on="1"/>
        <pt x="335" y="403" on="1"/>
        <pt x="247" y="380" on="1"/>
        <pt x="239" y="378" on="0"/>
        <pt x="230" y="369" on="0"/>
        <pt x="230" y="365" on="1"/>
      </contour>
    </TTGlyph>
    <TTGlyph name="daggerdbl" xMin="30" yMin="-92" xMax="340" yMax="607">
      <contour>
        <pt x="210" y="-92" on="1"/>
        <pt x="160" y="-92" on="1"/>
        <pt x="144" y="195" on="1"/>
        <pt x="142" y="200" on="0"/>
        <pt x="134" y="208" on="0"/>
        <pt x="127" y="209" on="1"/>
        <pt x="30" y="235" on="1"/>
        <pt x="30" y="284" on="1"/>
        <pt x="139" y="280" on="1"/>
        <pt x="134" y="365" on="1"/>
        <pt x="133" y="371" on="0"/>
        <pt x="124" y="379" on="0"/>
        <pt x="117" y="380" on="1"/>
        <pt x="30" y="403" on="1"/>
        <pt x="30" y="451" on="1"/>
        <pt x="129" y="448" on="1"/>
        <pt x="124" y="541" on="1"/>
        <pt x="124" y="607" on="1"/>
        <pt x="245" y="607" on="1"/>
        <pt x="245" y="541" on="1"/>
        <pt x="240" y="448" on="1"/>
        <pt x="340" y="451" on="1"/>
        <pt x="340" y="403" on="1"/>
        <pt x="252" y="380" on="1"/>
        <pt x="244" y="378" on="0"/>
        <pt x="236" y="368" on="0"/>
        <pt x="235" y="360" on="1"/>
        <pt x="235" y="360" on="1"/>
        <pt x="231" y="280" on="1"/>
        <pt x="340" y="284" on="1"/>
        <pt x="340" y="235" on="1"/>
        <pt x="243" y="209" on="1"/>
        <pt x="234" y="207" on="0"/>
        <pt x="226" y="198" on="0"/>
        <pt x="226" y="194" on="1"/>
      </contour>
    </TTGlyph>
    <TTGlyph name="dcaron" xMin="34" yMin="-8" xMax="572" yMax="686">
      <component glyphName="d" x="0" y="0" flags="0x204"/>
      <component glyphName="uni030C.calt" x="422" y="0" flags="0x4"/>
    </TTGlyph>
    <TTGlyph name="dcroat" xMin="34" yMin="-8" xMax="479" yMax="655">
      <contour>
        <pt x="238" y="57" on="1"/>
        <pt x="257" y="57" on="0"/>
        <pt x="293" y="67" on="0"/>
        <pt x="308" y="77" on="1"/>
        <pt x="308" y="350" on="1"/>
        <pt x="298" y="356" on="0"/>
        <pt x="268" y="363" on="0"/>
        <pt x="253" y="363" on="1"/>
        <pt x="210" y="363" on="0"/>
        <pt x="155" y="296" on="0"/>
        <pt x="154" y="206" on="1"/>
        <pt x="154" y="124" on="0"/>
        <pt x="200" y="57" on="0"/>
      </contour>
      <contour>
        <pt x="397" y="-7" on="1"/>
        <pt x="366" y="-7" on="0"/>
        <pt x="326" y="19" on="0"/>
        <pt x="316" y="43" on="1"/>
        <pt x="295" y="21" on="0"/>
        <pt x="236" y="-8" on="0"/>
        <pt x="198" y="-8" on="1"/>
        <pt x="129" y="-8" on="0"/>
        <pt x="34" y="87" on="0"/>
        <pt x="34" y="191" on="1"/>
        <pt x="34" y="301" on="0"/>
        <pt x="148" y="414" on="0"/>
        <pt x="248" y="414" on="1"/>
        <pt x="264" y="414" on="0"/>
        <pt x="295" y="410" on="0"/>
        <pt x="308" y="408" on="1"/>
        <pt x="308" y="474" on="1"/>
        <pt x="179" y="474" on="1"/>
        <pt x="179" y="523" on="1"/>
        <pt x="308" y="523" on="1"/>
        <pt x="308" y="558" on="1"/>
        <pt x="308" y="567" on="0"/>
        <pt x="299" y="578" on="0"/>
        <pt x="291" y="579" on="1"/>
        <pt x="240" y="587" on="1"/>
        <pt x="240" y="632" on="1"/>
        <pt x="277" y="642" on="0"/>
        <pt x="369" y="654" on="0"/>
        <pt x="406" y="655" on="1"/>
        <pt x="422" y="639" on="1"/>
        <pt x="422" y="523" on="1"/>
        <pt x="474" y="523" on="1"/>
        <pt x="474" y="474" on="1"/>
        <pt x="422" y="474" on="1"/>
        <pt x="422" y="78" on="1"/>
        <pt x="422" y="66" on="0"/>
        <pt x="432" y="57" on="0"/>
        <pt x="441" y="56" on="1"/>
        <pt x="479" y="51" on="1"/>
        <pt x="479" y="7" on="1"/>
        <pt x="466" y="3" on="0"/>
        <pt x="419" y="-7" on="0"/>
      </contour>
    </TTGlyph>
    <TTGlyph name="degree" xMin="32" yMin="336" xMax="304" yMax="605">
      <contour>
        <pt x="167" y="336" on="1"/>
        <pt x="112" y="336" on="0"/>
        <pt x="32" y="416" on="0"/>
        <pt x="32" y="470" on="1"/>
        <pt x="32" y="527" on="0"/>
        <pt x="112" y="605" on="0"/>
        <pt x="167" y="605" on="1"/>
        <pt x="226" y="605" on="0"/>
        <pt x="304" y="524" on="0"/>
        <pt x="304" y="470" on="1"/>
        <pt x="304" y="413" on="0"/>
        <pt x="224" y="336" on="0"/>
      </contour>
      <contour>
        <pt x="168" y="397" on="1"/>
        <pt x="198" y="397" on="0"/>
        <pt x="236" y="439" on="0"/>
        <pt x="236" y="470" on="1"/>
        <pt x="236" y="499" on="0"/>
        <pt x="196" y="543" on="0"/>
        <pt x="167" y="543" on="1"/>
        <pt x="137" y="543" on="0"/>
        <pt x="99" y="501" on="0"/>
        <pt x="99" y="470" on="1"/>
        <pt x="99" y="441" on="0"/>
        <pt x="140" y="397" on="0"/>
      </contour>
    </TTGlyph>
    <TTGlyph name="dieresis" xMin="40" yMin="479" xMax="323" yMax="594">
      <component glyphName="uni0308" x="182" y="0" flags="0x4"/>
    </TTGlyph>
    <TTGlyph name="divide" xMin="41" yMin="36" xMax="379" yMax="414">
      <contour>
        <pt x="270" y="360" on="1"/>
        <pt x="270" y="335" on="0"/>
        <pt x="237" y="306" on="0"/>
        <pt x="210" y="306" on="1"/>
        <pt x="183" y="306" on="0"/>
        <pt x="150" y="335" on="0"/>
        <pt x="150" y="360" on="1"/>
        <pt x="150" y="385" on="0"/>
        <pt x="183" y="414" on="0"/>
        <pt x="210" y="414" on="1"/>
        <pt x="237" y="414" on="0"/>
        <pt x="270" y="385" on="0"/>
      </contour>
      <contour>
        <pt x="379" y="191" on="1"/>
        <pt x="41" y="191" on="1"/>
        <pt x="41" y="260" on="1"/>
        <pt x="379" y="260" on="1"/>
      </contour>
      <contour>
        <pt x="270" y="90" on="1"/>
        <pt x="270" y="66" on="0"/>
        <pt x="237" y="36" on="0"/>
        <pt x="210" y="36" on="1"/>
        <pt x="183" y="36" on="0"/>
        <pt x="150" y="66" on="0"/>
        <pt x="150" y="90" on="1"/>
        <pt x="150" y="115" on="0"/>
        <pt x="183" y="145" on="0"/>
        <pt x="210" y="145" on="1"/>
        <pt x="237" y="145" on="0"/>
        <pt x="270" y="115" on="0"/>
      </contour>
    </TTGlyph>
    <TTGlyph name="dollar" xMin="38" yMin="-76" xMax="410" yMax="578">
      <contour>
        <pt x="239" y="-76" on="1"/>
        <pt x="174" y="-76" on="1"/>
        <pt x="174" y="8" on="1"/>
        <pt x="133" y="12" on="0"/>
        <pt x="63" y="34" on="0"/>
        <pt x="39" y="45" on="1"/>
        <pt x="38" y="79" on="0"/>
        <pt x="43" y="152" on="0"/>
        <pt x="47" y="180" on="1"/>
        <pt x="115" y="180" on="1"/>
        <pt x="128" y="106" on="1"/>
        <pt x="129" y="98" on="0"/>
        <pt x="137" y="87" on="0"/>
        <pt x="142" y="83" on="1"/>
        <pt x="152" y="73" on="0"/>
        <pt x="193" y="56" on="0"/>
        <pt x="221" y="56" on="1"/>
        <pt x="257" y="56" on="0"/>
        <pt x="297" y="90" on="0"/>
        <pt x="297" y="117" on="1"/>
        <pt x="297" y="151" on="0"/>
        <pt x="230" y="192" on="0"/>
        <pt x="181" y="215" on="1"/>
        <pt x="127" y="240" on="0"/>
        <pt x="44" y="303" on="0"/>
        <pt x="44" y="360" on="1"/>
        <pt x="44" y="412" on="0"/>
        <pt x="124" y="489" on="0"/>
        <pt x="205" y="495" on="1"/>
        <pt x="205" y="578" on="1"/>
        <pt x="271" y="578" on="1"/>
        <pt x="271" y="494" on="1"/>
        <pt x="301" y="491" on="0"/>
        <pt x="357" y="478" on="0"/>
        <pt x="379" y="469" on="1"/>
        <pt x="381" y="438" on="0"/>
        <pt x="378" y="372" on="0"/>
        <pt x="372" y="341" on="1"/>
        <pt x="307" y="341" on="1"/>
        <pt x="292" y="408" on="1"/>
        <pt x="291" y="416" on="0"/>
        <pt x="285" y="428" on="0"/>
        <pt x="278" y="432" on="1"/>
        <pt x="269" y="439" on="0"/>
        <pt x="239" y="448" on="0"/>
        <pt x="220" y="448" on="1"/>
        <pt x="185" y="448" on="0"/>
        <pt x="151" y="417" on="0"/>
        <pt x="151" y="394" on="1"/>
        <pt x="151" y="360" on="0"/>
        <pt x="217" y="323" on="0"/>
        <pt x="268" y="299" on="1"/>
        <pt x="331" y="269" on="0"/>
        <pt x="410" y="204" on="0"/>
        <pt x="410" y="151" on="1"/>
        <pt x="410" y="101" on="0"/>
        <pt x="329" y="13" on="0"/>
        <pt x="239" y="7" on="1"/>
      </contour>
    </TTGlyph>
    <TTGlyph name="dollar.tf" xMin="43" yMin="-76" xMax="415" yMax="578">
      <component glyphName="dollar" x="5" y="0" flags="0x4"/>
    </TTGlyph>
    <TTGlyph name="dotaccent" xMin="124" yMin="476" xMax="256" yMax="598">
      <component glyphName="uni0307" x="182" y="0" flags="0x4"/>
    </TTGlyph>
    <TTGlyph name="dotlessi" xMin="27" yMin="0" xMax="263" yMax="424">
      <contour>
        <pt x="204" y="409" on="1"/>
        <pt x="204" y="76" on="1"/>
        <pt x="204" y="66" on="0"/>
        <pt x="213" y="55" on="0"/>
        <pt x="222" y="54" on="1"/>
        <pt x="263" y="47" on="1"/>
        <pt x="263" y="0" on="1"/>
        <pt x="31" y="0" on="1"/>
        <pt x="31" y="47" on="1"/>
        <pt x="72" y="54" on="1"/>
        <pt x="81" y="55" on="0"/>
        <pt x="90" y="66" on="0"/>
        <pt x="90" y="76" on="1"/>
        <pt x="90" y="325" on="1"/>
        <pt x="90" y="334" on="0"/>
        <pt x="82" y="346" on="0"/>
        <pt x="73" y="347" on="1"/>
        <pt x="27" y="355" on="1"/>
        <pt x="27" y="403" on="1"/>
        <pt x="64" y="413" on="0"/>
        <pt x="152" y="423" on="0"/>
        <pt x="188" y="424" on="1"/>
      </contour>
    </TTGlyph>
    <TTGlyph name="dotlessiogonek" xMin="27" yMin="-189" xMax="263" yMax="424">
      <contour>
        <pt x="243" y="-161" on="1"/>
        <pt x="223" y="-174" on="0"/>
        <pt x="167" y="-189" on="0"/>
        <pt x="141" y="-189" on="1"/>
        <pt x="99" y="-188" on="0"/>
        <pt x="42" y="-151" on="0"/>
        <pt x="42" y="-114" on="1"/>
        <pt x="42" y="-75" on="0"/>
        <pt x="104" y="-16" on="0"/>
        <pt x="144" y="-2" on="1"/>
        <pt x="144" y="0" on="1"/>
        <pt x="31" y="0" on="1"/>
        <pt x="31" y="47" on="1"/>
        <pt x="72" y="54" on="1"/>
        <pt x="81" y="55" on="0"/>
        <pt x="90" y="66" on="0"/>
        <pt x="90" y="76" on="1"/>
        <pt x="90" y="325" on="1"/>
        <pt x="90" y="334" on="0"/>
        <pt x="82" y="346" on="0"/>
        <pt x="73" y="347" on="1"/>
        <pt x="27" y="355" on="1"/>
        <pt x="27" y="403" on="1"/>
        <pt x="64" y="413" on="0"/>
        <pt x="152" y="423" on="0"/>
        <pt x="188" y="424" on="1"/>
        <pt x="204" y="409" on="1"/>
        <pt x="204" y="76" on="1"/>
        <pt x="204" y="66" on="0"/>
        <pt x="213" y="55" on="0"/>
        <pt x="222" y="54" on="1"/>
        <pt x="263" y="47" on="1"/>
        <pt x="263" y="0" on="1"/>
        <pt x="221" y="0" on="1"/>
        <pt x="182" y="-13" on="0"/>
        <pt x="133" y="-62" on="0"/>
        <pt x="133" y="-87" on="1"/>
        <pt x="133" y="-106" on="0"/>
        <pt x="161" y="-126" on="0"/>
        <pt x="182" y="-126" on="1"/>
        <pt x="192" y="-126" on="0"/>
        <pt x="216" y="-120" on="0"/>
        <pt x="226" y="-116" on="1"/>
      </contour>
    </TTGlyph>
    <TTGlyph name="dotlessj" xMin="-26" yMin="-195" xMax="195" yMax="424">
      <contour>
        <pt x="180" y="424" on="1"/>
        <pt x="195" y="409" on="1"/>
        <pt x="195" y="39" on="1"/>
        <pt x="195" y="-31" on="0"/>
        <pt x="166" y="-107" on="0"/>
        <pt x="135" y="-132" on="1"/>
        <pt x="108" y="-154" on="0"/>
        <pt x="35" y="-185" on="0"/>
        <pt x="-5" y="-195" on="1"/>
        <pt x="-26" y="-147" on="1"/>
        <pt x="38" y="-112" on="0"/>
        <pt x="83" y="-35" on="0"/>
        <pt x="83" y="34" on="1"/>
        <pt x="83" y="325" on="1"/>
        <pt x="83" y="334" on="0"/>
        <pt x="74" y="346" on="0"/>
        <pt x="66" y="347" on="1"/>
        <pt x="19" y="355" on="1"/>
        <pt x="19" y="403" on="1"/>
        <pt x="55" y="413" on="0"/>
        <pt x="144" y="423" on="0"/>
      </contour>
    </TTGlyph>
    <TTGlyph name="e" xMin="34" yMin="-9" xMax="396" yMax="424">
      <contour>
        <pt x="226" y="375" on="1"/>
        <pt x="196" y="375" on="0"/>
        <pt x="157" y="329" on="0"/>
        <pt x="152" y="272" on="1"/>
        <pt x="290" y="272" on="1"/>
        <pt x="291" y="276" on="0"/>
        <pt x="291" y="284" on="0"/>
        <pt x="291" y="289" on="1"/>
        <pt x="291" y="327" on="0"/>
        <pt x="259" y="375" on="0"/>
      </contour>
      <contour>
        <pt x="394" y="91" on="1"/>
        <pt x="380" y="43" on="0"/>
        <pt x="289" y="-9" on="0"/>
        <pt x="225" y="-9" on="1"/>
        <pt x="127" y="-9" on="0"/>
        <pt x="34" y="108" on="0"/>
        <pt x="34" y="204" on="1"/>
        <pt x="34" y="310" on="0"/>
        <pt x="140" y="424" on="0"/>
        <pt x="236" y="424" on="1"/>
        <pt x="316" y="424" on="0"/>
        <pt x="396" y="347" on="0"/>
        <pt x="396" y="283" on="1"/>
        <pt x="396" y="270" on="0"/>
        <pt x="394" y="240" on="0"/>
        <pt x="391" y="227" on="1"/>
        <pt x="150" y="227" on="1"/>
        <pt x="150" y="225" on="1"/>
        <pt x="150" y="138" on="0"/>
        <pt x="203" y="63" on="0"/>
        <pt x="259" y="63" on="1"/>
        <pt x="290" y="63" on="0"/>
        <pt x="348" y="87" on="0"/>
        <pt x="367" y="110" on="1"/>
      </contour>
    </TTGlyph>
    <TTGlyph name="eacute" xMin="34" yMin="-9" xMax="396" yMax="653">
      <component glyphName="e" x="0" y="0" flags="0x204"/>
      <component glyphName="acutecomb" x="224" y="0" flags="0x4"/>
    </TTGlyph>
    <TTGlyph name="ebreve" xMin="34" yMin="-9" xMax="396" yMax="614">
      <component glyphName="e" x="0" y="0" flags="0x204"/>
      <component glyphName="uni0306" x="224" y="0" flags="0x4"/>
    </TTGlyph>
    <TTGlyph name="ecaron" xMin="34" yMin="-9" xMax="396" yMax="654">
      <component glyphName="e" x="0" y="0" flags="0x204"/>
      <component glyphName="uni030C" x="224" y="0" flags="0x4"/>
    </TTGlyph>
    <TTGlyph name="ecircumflex" xMin="34" yMin="-9" xMax="396" yMax="641">
      <component glyphName="e" x="0" y="0" flags="0x204"/>
      <component glyphName="uni0302" x="224" y="0" flags="0x4"/>
    </TTGlyph>
    <TTGlyph name="edieresis" xMin="34" yMin="-9" xMax="396" yMax="594">
      <component glyphName="e" x="0" y="0" flags="0x204"/>
      <component glyphName="uni0308" x="224" y="0" flags="0x4"/>
    </TTGlyph>
    <TTGlyph name="edotaccent" xMin="34" yMin="-9" xMax="396" yMax="598">
      <component glyphName="e" x="0" y="0" flags="0x204"/>
      <component glyphName="uni0307" x="224" y="0" flags="0x4"/>
    </TTGlyph>
    <TTGlyph name="egrave" xMin="34" yMin="-9" xMax="396" yMax="653">
      <component glyphName="e" x="0" y="0" flags="0x204"/>
      <component glyphName="gravecomb" x="224" y="0" flags="0x4"/>
    </TTGlyph>
    <TTGlyph name="eight" xMin="37" yMin="-11" xMax="435" yMax="512">
      <contour>
        <pt x="232" y="-11" on="1"/>
        <pt x="145" y="-11" on="0"/>
        <pt x="37" y="59" on="0"/>
        <pt x="37" y="122" on="1"/>
        <pt x="37" y="167" on="0"/>
        <pt x="93" y="236" on="0"/>
        <pt x="140" y="252" on="1"/>
        <pt x="109" y="272" on="0"/>
        <pt x="62" y="332" on="0"/>
        <pt x="62" y="375" on="1"/>
        <pt x="62" y="436" on="0"/>
        <pt x="159" y="512" on="0"/>
        <pt x="240" y="512" on="1"/>
        <pt x="315" y="512" on="0"/>
        <pt x="409" y="447" on="0"/>
        <pt x="409" y="394" on="1"/>
        <pt x="409" y="354" on="0"/>
        <pt x="358" y="293" on="0"/>
        <pt x="318" y="277" on="1"/>
        <pt x="364" y="254" on="0"/>
        <pt x="435" y="189" on="0"/>
        <pt x="435" y="134" on="1"/>
        <pt x="435" y="67" on="0"/>
        <pt x="323" y="-11" on="0"/>
      </contour>
      <contour>
        <pt x="166" y="402" on="1"/>
        <pt x="166" y="367" on="0"/>
        <pt x="225" y="322" on="0"/>
        <pt x="268" y="301" on="1"/>
        <pt x="291" y="319" on="0"/>
        <pt x="309" y="364" on="0"/>
        <pt x="309" y="384" on="1"/>
        <pt x="309" y="422" on="0"/>
        <pt x="268" y="462" on="0"/>
        <pt x="234" y="462" on="1"/>
        <pt x="203" y="462" on="0"/>
        <pt x="166" y="429" on="0"/>
      </contour>
      <contour>
        <pt x="237" y="40" on="1"/>
        <pt x="275" y="40" on="0"/>
        <pt x="317" y="81" on="0"/>
        <pt x="317" y="110" on="1"/>
        <pt x="317" y="150" on="0"/>
        <pt x="246" y="195" on="0"/>
        <pt x="199" y="219" on="1"/>
        <pt x="196" y="220" on="0"/>
        <pt x="190" y="224" on="0"/>
        <pt x="188" y="225" on="1"/>
        <pt x="164" y="208" on="0"/>
        <pt x="140" y="160" on="0"/>
        <pt x="140" y="132" on="1"/>
        <pt x="140" y="86" on="0"/>
        <pt x="199" y="40" on="0"/>
      </contour>
    </TTGlyph>
    <TTGlyph name="eight.tf" xMin="27" yMin="-11" xMax="425" yMax="512">
      <component glyphName="eight" x="-10" y="0" flags="0x4"/>
    </TTGlyph>
    <TTGlyph name="ellipsis" xMin="44" yMin="-7" xMax="621" yMax="118">
      <contour>
        <pt x="178" y="56" on="1"/>
        <pt x="178" y="28" on="0"/>
        <pt x="141" y="-7" on="0"/>
        <pt x="111" y="-7" on="1"/>
        <pt x="81" y="-7" on="0"/>
        <pt x="44" y="28" on="0"/>
        <pt x="44" y="56" on="1"/>
        <pt x="44" y="84" on="0"/>
        <pt x="81" y="118" on="0"/>
        <pt x="111" y="118" on="1"/>
        <pt x="141" y="118" on="0"/>
        <pt x="178" y="84" on="0"/>
      </contour>
      <contour>
        <pt x="621" y="56" on="1"/>
        <pt x="621" y="28" on="0"/>
        <pt x="585" y="-7" on="0"/>
        <pt x="554" y="-7" on="1"/>
        <pt x="524" y="-7" on="0"/>
        <pt x="487" y="28" on="0"/>
        <pt x="487" y="56" on="1"/>
        <pt x="487" y="84" on="0"/>
        <pt x="524" y="118" on="0"/>
        <pt x="554" y="118" on="1"/>
        <pt x="585" y="118" on="0"/>
        <pt x="621" y="84" on="0"/>
      </contour>
      <contour>
        <pt x="399" y="56" on="1"/>
        <pt x="399" y="28" on="0"/>
        <pt x="363" y="-7" on="0"/>
        <pt x="332" y="-7" on="1"/>
        <pt x="302" y="-7" on="0"/>
        <pt x="266" y="28" on="0"/>
        <pt x="266" y="56" on="1"/>
        <pt x="266" y="84" on="0"/>
        <pt x="302" y="118" on="0"/>
        <pt x="332" y="118" on="1"/>
        <pt x="363" y="118" on="0"/>
        <pt x="399" y="84" on="0"/>
      </contour>
    </TTGlyph>
    <TTGlyph name="emacron" xMin="34" yMin="-9" xMax="396" yMax="561">
      <component glyphName="e" x="0" y="0" flags="0x204"/>
      <component glyphName="uni0304" x="224" y="0" flags="0x4"/>
    </TTGlyph>
    <TTGlyph name="emdash" xMin="51" yMin="179" xMax="763" yMax="254">
      <contour>
        <pt x="51" y="179" on="1"/>
        <pt x="51" y="254" on="1"/>
        <pt x="763" y="254" on="1"/>
        <pt x="763" y="179" on="1"/>
      </contour>
    </TTGlyph>
    <TTGlyph name="endash" xMin="51" yMin="179" xMax="477" yMax="254">
      <contour>
        <pt x="51" y="179" on="1"/>
        <pt x="51" y="254" on="1"/>
        <pt x="477" y="254" on="1"/>
        <pt x="477" y="179" on="1"/>
      </contour>
    </TTGlyph>
    <TTGlyph name="eng" xMin="27" yMin="-188" xMax="464" yMax="424">
      <contour>
        <pt x="305" y="-188" on="1"/>
        <pt x="292" y="-188" on="0"/>
        <pt x="262" y="-186" on="0"/>
        <pt x="249" y="-184" on="1"/>
        <pt x="246" y="-136" on="1"/>
        <pt x="265" y="-132" on="0"/>
        <pt x="309" y="-120" on="0"/>
        <pt x="323" y="-104" on="1"/>
        <pt x="337" y="-90" on="0"/>
        <pt x="349" y="-32" on="0"/>
        <pt x="349" y="20" on="1"/>
        <pt x="349" y="251" on="1"/>
        <pt x="349" y="305" on="0"/>
        <pt x="318" y="353" on="0"/>
        <pt x="280" y="353" on="1"/>
        <pt x="261" y="353" on="0"/>
        <pt x="222" y="341" on="0"/>
        <pt x="204" y="330" on="1"/>
        <pt x="204" y="76" on="1"/>
        <pt x="204" y="66" on="0"/>
        <pt x="213" y="57" on="0"/>
        <pt x="221" y="54" on="1"/>
        <pt x="251" y="47" on="1"/>
        <pt x="251" y="0" on="1"/>
        <pt x="31" y="0" on="1"/>
        <pt x="31" y="47" on="1"/>
        <pt x="73" y="54" on="1"/>
        <pt x="81" y="55" on="0"/>
        <pt x="90" y="66" on="0"/>
        <pt x="90" y="76" on="1"/>
        <pt x="90" y="325" on="1"/>
        <pt x="90" y="334" on="0"/>
        <pt x="82" y="346" on="0"/>
        <pt x="73" y="347" on="1"/>
        <pt x="27" y="355" on="1"/>
        <pt x="27" y="403" on="1"/>
        <pt x="62" y="413" on="0"/>
        <pt x="141" y="423" on="0"/>
        <pt x="175" y="424" on="1"/>
        <pt x="192" y="409" on="1"/>
        <pt x="199" y="367" on="1"/>
        <pt x="227" y="397" on="0"/>
        <pt x="297" y="423" on="0"/>
        <pt x="337" y="423" on="1"/>
        <pt x="410" y="423" on="0"/>
        <pt x="464" y="341" on="0"/>
        <pt x="464" y="265" on="1"/>
        <pt x="464" y="8" on="1"/>
        <pt x="464" y="-86" on="0"/>
        <pt x="390" y="-188" on="0"/>
      </contour>
    </TTGlyph>
    <TTGlyph name="eogonek" xMin="34" yMin="-189" xMax="396" yMax="424">
      <contour>
        <pt x="226" y="375" on="1"/>
        <pt x="196" y="375" on="0"/>
        <pt x="157" y="329" on="0"/>
        <pt x="152" y="272" on="1"/>
        <pt x="290" y="272" on="1"/>
        <pt x="291" y="276" on="0"/>
        <pt x="291" y="284" on="0"/>
        <pt x="291" y="289" on="1"/>
        <pt x="291" y="327" on="0"/>
        <pt x="259" y="375" on="0"/>
      </contour>
      <contour>
        <pt x="376" y="-161" on="1"/>
        <pt x="356" y="-174" on="0"/>
        <pt x="301" y="-189" on="0"/>
        <pt x="275" y="-189" on="1"/>
        <pt x="235" y="-188" on="0"/>
        <pt x="178" y="-152" on="0"/>
        <pt x="178" y="-115" on="1"/>
        <pt x="178" y="-75" on="0"/>
        <pt x="233" y="-22" on="0"/>
        <pt x="258" y="-9" on="1"/>
        <pt x="258" y="-7" on="1"/>
        <pt x="251" y="-8" on="0"/>
        <pt x="234" y="-9" on="0"/>
        <pt x="225" y="-9" on="1"/>
        <pt x="127" y="-9" on="0"/>
        <pt x="34" y="108" on="0"/>
        <pt x="34" y="204" on="1"/>
        <pt x="34" y="310" on="0"/>
        <pt x="140" y="424" on="0"/>
        <pt x="236" y="424" on="1"/>
        <pt x="316" y="424" on="0"/>
        <pt x="396" y="347" on="0"/>
        <pt x="396" y="283" on="1"/>
        <pt x="396" y="270" on="0"/>
        <pt x="394" y="240" on="0"/>
        <pt x="391" y="227" on="1"/>
        <pt x="150" y="227" on="1"/>
        <pt x="150" y="225" on="1"/>
        <pt x="150" y="138" on="0"/>
        <pt x="203" y="63" on="0"/>
        <pt x="259" y="63" on="1"/>
        <pt x="290" y="63" on="0"/>
        <pt x="348" y="87" on="0"/>
        <pt x="367" y="110" on="1"/>
        <pt x="395" y="89" on="1"/>
        <pt x="389" y="72" on="0"/>
        <pt x="365" y="39" on="0"/>
        <pt x="347" y="25" on="1"/>
        <pt x="346" y="24" on="0"/>
        <pt x="342" y="21" on="0"/>
        <pt x="340" y="20" on="1"/>
        <pt x="304" y="-10" on="0"/>
        <pt x="267" y="-60" on="0"/>
        <pt x="267" y="-85" on="1"/>
        <pt x="267" y="-106" on="0"/>
        <pt x="295" y="-126" on="0"/>
        <pt x="314" y="-126" on="1"/>
        <pt x="325" y="-126" on="0"/>
        <pt x="349" y="-120" on="0"/>
        <pt x="359" y="-116" on="1"/>
      </contour>
    </TTGlyph>
    <TTGlyph name="equal" xMin="50" yMin="108" xMax="389" yMax="339">
      <contour>
        <pt x="389" y="265" on="1"/>
        <pt x="50" y="265" on="1"/>
        <pt x="50" y="339" on="1"/>
        <pt x="389" y="339" on="1"/>
      </contour>
      <contour>
        <pt x="389" y="108" on="1"/>
        <pt x="50" y="108" on="1"/>
        <pt x="50" y="181" on="1"/>
        <pt x="389" y="181" on="1"/>
      </contour>
    </TTGlyph>
    <TTGlyph name="estimated" xMin="39" yMin="-11" xMax="476" yMax="498">
      <contour>
        <pt x="168" y="413" on="1"/>
        <pt x="168" y="277" on="1"/>
        <pt x="354" y="277" on="1"/>
        <pt x="354" y="424" on="1"/>
        <pt x="341" y="437" on="0"/>
        <pt x="296" y="450" on="0"/>
        <pt x="270" y="450" on="1"/>
        <pt x="239" y="450" on="0"/>
        <pt x="184" y="430" on="0"/>
      </contour>
      <contour>
        <pt x="446" y="38" on="1"/>
        <pt x="418" y="16" on="0"/>
        <pt x="334" y="-11" on="0"/>
        <pt x="285" y="-11" on="1"/>
        <pt x="174" y="-11" on="0"/>
        <pt x="39" y="131" on="0"/>
        <pt x="39" y="245" on="1"/>
        <pt x="39" y="352" on="0"/>
        <pt x="162" y="498" on="0"/>
        <pt x="273" y="498" on="1"/>
        <pt x="363" y="498" on="0"/>
        <pt x="474" y="395" on="0"/>
        <pt x="476" y="297" on="1"/>
        <pt x="476" y="276" on="0"/>
        <pt x="474" y="241" on="0"/>
        <pt x="472" y="227" on="1"/>
        <pt x="168" y="228" on="1"/>
        <pt x="168" y="85" on="1"/>
        <pt x="187" y="65" on="0"/>
        <pt x="252" y="41" on="0"/>
        <pt x="292" y="41" on="1"/>
        <pt x="335" y="41" on="0"/>
        <pt x="401" y="65" on="0"/>
        <pt x="423" y="80" on="1"/>
      </contour>
    </TTGlyph>
    <TTGlyph name="eth" xMin="34" yMin="-8" xMax="432" yMax="654">
      <contour>
        <pt x="223" y="-8" on="1"/>
        <pt x="134" y="-8" on="0"/>
        <pt x="34" y="99" on="0"/>
        <pt x="34" y="200" on="1"/>
        <pt x="34" y="258" on="0"/>
        <pt x="66" y="338" on="0"/>
        <pt x="115" y="387" on="0"/>
        <pt x="175" y="409" on="0"/>
        <pt x="203" y="409" on="1"/>
        <pt x="227" y="409" on="0"/>
        <pt x="274" y="395" on="0"/>
        <pt x="293" y="379" on="1"/>
        <pt x="282" y="416" on="0"/>
        <pt x="245" y="479" on="0"/>
        <pt x="219" y="507" on="1"/>
        <pt x="116" y="435" on="1"/>
        <pt x="83" y="487" on="1"/>
        <pt x="178" y="545" on="1"/>
        <pt x="156" y="563" on="0"/>
        <pt x="103" y="595" on="0"/>
        <pt x="72" y="611" on="1"/>
        <pt x="92" y="654" on="1"/>
        <pt x="136" y="643" on="0"/>
        <pt x="213" y="610" on="0"/>
        <pt x="245" y="588" on="1"/>
        <pt x="339" y="652" on="1"/>
        <pt x="373" y="600" on="1"/>
        <pt x="292" y="553" on="1"/>
        <pt x="362" y="492" on="0"/>
        <pt x="432" y="326" on="0"/>
        <pt x="432" y="237" on="1"/>
        <pt x="432" y="188" on="0"/>
        <pt x="410" y="98" on="0"/>
        <pt x="361" y="32" on="0"/>
        <pt x="280" y="-8" on="0"/>
      </contour>
      <contour>
        <pt x="234" y="43" on="1"/>
        <pt x="277" y="43" on="0"/>
        <pt x="313" y="126" on="0"/>
        <pt x="313" y="220" on="1"/>
        <pt x="313" y="246" on="0"/>
        <pt x="310" y="295" on="0"/>
        <pt x="306" y="317" on="1"/>
        <pt x="293" y="331" on="0"/>
        <pt x="257" y="346" on="0"/>
        <pt x="235" y="346" on="1"/>
        <pt x="199" y="346" on="0"/>
        <pt x="157" y="283" on="0"/>
        <pt x="157" y="199" on="1"/>
        <pt x="157" y="130" on="0"/>
        <pt x="191" y="43" on="0"/>
      </contour>
    </TTGlyph>
    <TTGlyph name="exclam" xMin="60" yMin="-7" xMax="191" yMax="623">
      <contour>
        <pt x="63" y="552" on="1"/>
        <pt x="63" y="623" on="1"/>
        <pt x="189" y="623" on="1"/>
        <pt x="189" y="552" on="1"/>
        <pt x="160" y="180" on="1"/>
        <pt x="92" y="180" on="1"/>
      </contour>
      <contour>
        <pt x="191" y="53" on="1"/>
        <pt x="191" y="27" on="0"/>
        <pt x="155" y="-7" on="0"/>
        <pt x="126" y="-7" on="1"/>
        <pt x="97" y="-7" on="0"/>
        <pt x="60" y="27" on="0"/>
        <pt x="60" y="53" on="1"/>
        <pt x="60" y="80" on="0"/>
        <pt x="97" y="113" on="0"/>
        <pt x="126" y="113" on="1"/>
        <pt x="155" y="113" on="0"/>
        <pt x="191" y="80" on="0"/>
      </contour>
    </TTGlyph>
    <TTGlyph name="exclamdown" xMin="54" yMin="-204" xMax="185" yMax="425">
      <contour>
        <pt x="185" y="366" on="1"/>
        <pt x="185" y="338" on="0"/>
        <pt x="150" y="306" on="0"/>
        <pt x="121" y="306" on="1"/>
        <pt x="91" y="306" on="0"/>
        <pt x="54" y="338" on="0"/>
        <pt x="54" y="366" on="1"/>
        <pt x="54" y="393" on="0"/>
        <pt x="91" y="425" on="0"/>
        <pt x="121" y="425" on="1"/>
        <pt x="150" y="425" on="0"/>
        <pt x="185" y="393" on="0"/>
      </contour>
      <contour>
        <pt x="183" y="-204" on="1"/>
        <pt x="57" y="-204" on="1"/>
        <pt x="57" y="-133" on="1"/>
        <pt x="86" y="239" on="1"/>
        <pt x="154" y="239" on="1"/>
        <pt x="183" y="-133" on="1"/>
      </contour>
    </TTGlyph>
    <TTGlyph name="f" xMin="26" yMin="0" xMax="385" yMax="654">
      <contour>
        <pt x="93" y="438" on="1"/>
        <pt x="93" y="478" on="0"/>
        <pt x="126" y="555" on="0"/>
        <pt x="178" y="616" on="0"/>
        <pt x="246" y="654" on="0"/>
        <pt x="280" y="654" on="1"/>
        <pt x="308" y="654" on="0"/>
        <pt x="362" y="632" on="0"/>
        <pt x="385" y="616" on="1"/>
        <pt x="363" y="552" on="1"/>
        <pt x="341" y="556" on="0"/>
        <pt x="296" y="562" on="0"/>
        <pt x="282" y="562" on="1"/>
        <pt x="244" y="561" on="0"/>
        <pt x="204" y="528" on="0"/>
        <pt x="204" y="477" on="1"/>
        <pt x="204" y="413" on="1"/>
        <pt x="322" y="413" on="1"/>
        <pt x="322" y="350" on="1"/>
        <pt x="204" y="350" on="1"/>
        <pt x="204" y="75" on="1"/>
        <pt x="204" y="66" on="0"/>
        <pt x="214" y="56" on="0"/>
        <pt x="223" y="55" on="1"/>
        <pt x="298" y="47" on="1"/>
        <pt x="298" y="0" on="1"/>
        <pt x="32" y="0" on="1"/>
        <pt x="32" y="47" on="1"/>
        <pt x="72" y="54" on="1"/>
        <pt x="81" y="55" on="0"/>
        <pt x="90" y="65" on="0"/>
        <pt x="90" y="75" on="1"/>
        <pt x="90" y="347" on="1"/>
        <pt x="26" y="358" on="1"/>
        <pt x="26" y="402" on="1"/>
        <pt x="93" y="414" on="1"/>
      </contour>
    </TTGlyph>
    <TTGlyph name="f_b" xMin="26" yMin="-8" xMax="770" yMax="655">
      <contour>
        <pt x="542" y="-8" on="1"/>
        <pt x="495" y="-8" on="0"/>
        <pt x="407" y="11" on="0"/>
        <pt x="385" y="20" on="1"/>
        <pt x="385" y="549" on="1"/>
        <pt x="364" y="556" on="0"/>
        <pt x="319" y="562" on="0"/>
        <pt x="296" y="562" on="1"/>
        <pt x="259" y="562" on="0"/>
        <pt x="201" y="526" on="0"/>
        <pt x="201" y="477" on="1"/>
        <pt x="201" y="413" on="1"/>
        <pt x="322" y="413" on="1"/>
        <pt x="322" y="350" on="1"/>
        <pt x="202" y="350" on="1"/>
        <pt x="202" y="75" on="1"/>
        <pt x="202" y="66" on="0"/>
        <pt x="211" y="56" on="0"/>
        <pt x="221" y="55" on="1"/>
        <pt x="295" y="47" on="1"/>
        <pt x="295" y="0" on="1"/>
        <pt x="32" y="0" on="1"/>
        <pt x="32" y="47" on="1"/>
        <pt x="72" y="54" on="1"/>
        <pt x="81" y="55" on="0"/>
        <pt x="90" y="65" on="0"/>
        <pt x="90" y="75" on="1"/>
        <pt x="90" y="347" on="1"/>
        <pt x="26" y="358" on="1"/>
        <pt x="26" y="402" on="1"/>
        <pt x="93" y="414" on="1"/>
        <pt x="93" y="444" on="1"/>
        <pt x="93" y="484" on="0"/>
        <pt x="130" y="559" on="0"/>
        <pt x="189" y="618" on="0"/>
        <pt x="265" y="654" on="0"/>
        <pt x="304" y="654" on="1"/>
        <pt x="326" y="654" on="0"/>
        <pt x="373" y="639" on="0"/>
        <pt x="394" y="627" on="1"/>
        <pt x="416" y="637" on="0"/>
        <pt x="462" y="651" on="0"/>
        <pt x="481" y="655" on="1"/>
        <pt x="497" y="640" on="1"/>
        <pt x="497" y="378" on="1"/>
        <pt x="519" y="400" on="0"/>
        <pt x="578" y="425" on="0"/>
        <pt x="613" y="425" on="1"/>
        <pt x="679" y="425" on="0"/>
        <pt x="770" y="330" on="0"/>
        <pt x="770" y="228" on="1"/>
        <pt x="770" y="118" on="0"/>
        <pt x="652" y="-8" on="0"/>
      </contour>
      <contour>
        <pt x="551" y="40" on="1"/>
        <pt x="599" y="40" on="0"/>
        <pt x="649" y="118" on="0"/>
        <pt x="650" y="205" on="1"/>
        <pt x="651" y="290" on="0"/>
        <pt x="605" y="356" on="0"/>
        <pt x="562" y="356" on="1"/>
        <pt x="545" y="356" on="0"/>
        <pt x="511" y="346" on="0"/>
        <pt x="497" y="336" on="1"/>
        <pt x="497" y="52" on="1"/>
        <pt x="507" y="47" on="0"/>
        <pt x="534" y="40" on="0"/>
      </contour>
    </TTGlyph>
    <TTGlyph name="f_f" xMin="26" yMin="0" xMax="685" yMax="654">
      <contour>
        <pt x="284" y="0" on="1"/>
        <pt x="32" y="0" on="1"/>
        <pt x="32" y="47" on="1"/>
        <pt x="72" y="54" on="1"/>
        <pt x="81" y="55" on="0"/>
        <pt x="90" y="65" on="0"/>
        <pt x="90" y="75" on="1"/>
        <pt x="90" y="347" on="1"/>
        <pt x="26" y="358" on="1"/>
        <pt x="26" y="402" on="1"/>
        <pt x="93" y="413" on="1"/>
        <pt x="93" y="428" on="1"/>
        <pt x="95" y="506" on="0"/>
        <pt x="211" y="632" on="0"/>
        <pt x="280" y="632" on="1"/>
        <pt x="308" y="632" on="0"/>
        <pt x="360" y="612" on="0"/>
        <pt x="383" y="597" on="1"/>
        <pt x="358" y="530" on="1"/>
        <pt x="338" y="535" on="0"/>
        <pt x="295" y="541" on="0"/>
        <pt x="282" y="541" on="1"/>
        <pt x="244" y="540" on="0"/>
        <pt x="202" y="508" on="0"/>
        <pt x="202" y="457" on="1"/>
        <pt x="202" y="413" on="1"/>
        <pt x="396" y="413" on="1"/>
        <pt x="396" y="438" on="1"/>
        <pt x="396" y="478" on="0"/>
        <pt x="428" y="555" on="0"/>
        <pt x="480" y="616" on="0"/>
        <pt x="547" y="654" on="0"/>
        <pt x="581" y="654" on="1"/>
        <pt x="609" y="654" on="0"/>
        <pt x="663" y="633" on="0"/>
        <pt x="685" y="619" on="1"/>
        <pt x="664" y="552" on="1"/>
        <pt x="642" y="556" on="0"/>
        <pt x="596" y="562" on="0"/>
        <pt x="583" y="562" on="1"/>
        <pt x="544" y="561" on="0"/>
        <pt x="504" y="528" on="0"/>
        <pt x="504" y="477" on="1"/>
        <pt x="504" y="413" on="1"/>
        <pt x="622" y="413" on="1"/>
        <pt x="622" y="350" on="1"/>
        <pt x="505" y="350" on="1"/>
        <pt x="505" y="75" on="1"/>
        <pt x="505" y="66" on="0"/>
        <pt x="514" y="56" on="0"/>
        <pt x="523" y="55" on="1"/>
        <pt x="599" y="47" on="1"/>
        <pt x="599" y="0" on="1"/>
        <pt x="337" y="0" on="1"/>
        <pt x="337" y="47" on="1"/>
        <pt x="375" y="54" on="1"/>
        <pt x="384" y="55" on="0"/>
        <pt x="393" y="65" on="0"/>
        <pt x="393" y="75" on="1"/>
        <pt x="393" y="350" on="1"/>
        <pt x="202" y="350" on="1"/>
        <pt x="202" y="75" on="1"/>
        <pt x="202" y="66" on="0"/>
        <pt x="211" y="56" on="0"/>
        <pt x="221" y="55" on="1"/>
        <pt x="284" y="47" on="1"/>
      </contour>
    </TTGlyph>
    <TTGlyph name="f_f_b" xMin="26" yMin="-8" xMax="1073" yMax="655">
      <contour>
        <pt x="1073" y="228" on="1"/>
        <pt x="1073" y="118" on="0"/>
        <pt x="955" y="-8" on="0"/>
        <pt x="845" y="-8" on="1"/>
        <pt x="798" y="-8" on="0"/>
        <pt x="710" y="11" on="0"/>
        <pt x="688" y="20" on="1"/>
        <pt x="688" y="549" on="1"/>
        <pt x="667" y="556" on="0"/>
        <pt x="622" y="562" on="0"/>
        <pt x="598" y="562" on="1"/>
        <pt x="561" y="562" on="0"/>
        <pt x="504" y="526" on="0"/>
        <pt x="504" y="477" on="1"/>
        <pt x="504" y="413" on="1"/>
        <pt x="624" y="413" on="1"/>
        <pt x="624" y="350" on="1"/>
        <pt x="505" y="350" on="1"/>
        <pt x="505" y="75" on="1"/>
        <pt x="505" y="66" on="0"/>
        <pt x="514" y="56" on="0"/>
        <pt x="523" y="55" on="1"/>
        <pt x="598" y="47" on="1"/>
        <pt x="598" y="0" on="1"/>
        <pt x="335" y="0" on="1"/>
        <pt x="335" y="47" on="1"/>
        <pt x="375" y="54" on="1"/>
        <pt x="384" y="55" on="0"/>
        <pt x="393" y="65" on="0"/>
        <pt x="393" y="75" on="1"/>
        <pt x="393" y="350" on="1"/>
        <pt x="202" y="350" on="1"/>
        <pt x="202" y="75" on="1"/>
        <pt x="202" y="66" on="0"/>
        <pt x="211" y="56" on="0"/>
        <pt x="221" y="55" on="1"/>
        <pt x="284" y="47" on="1"/>
        <pt x="284" y="0" on="1"/>
        <pt x="32" y="0" on="1"/>
        <pt x="32" y="47" on="1"/>
        <pt x="72" y="54" on="1"/>
        <pt x="81" y="55" on="0"/>
        <pt x="90" y="65" on="0"/>
        <pt x="90" y="75" on="1"/>
        <pt x="90" y="347" on="1"/>
        <pt x="26" y="358" on="1"/>
        <pt x="26" y="402" on="1"/>
        <pt x="93" y="413" on="1"/>
        <pt x="93" y="428" on="1"/>
        <pt x="95" y="506" on="0"/>
        <pt x="211" y="632" on="0"/>
        <pt x="280" y="632" on="1"/>
        <pt x="308" y="632" on="0"/>
        <pt x="360" y="612" on="0"/>
        <pt x="383" y="597" on="1"/>
        <pt x="358" y="530" on="1"/>
        <pt x="338" y="535" on="0"/>
        <pt x="295" y="541" on="0"/>
        <pt x="282" y="541" on="1"/>
        <pt x="244" y="540" on="0"/>
        <pt x="202" y="508" on="0"/>
        <pt x="202" y="457" on="1"/>
        <pt x="202" y="413" on="1"/>
        <pt x="396" y="413" on="1"/>
        <pt x="396" y="444" on="1"/>
        <pt x="396" y="484" on="0"/>
        <pt x="433" y="559" on="0"/>
        <pt x="492" y="618" on="0"/>
        <pt x="568" y="654" on="0"/>
        <pt x="606" y="654" on="1"/>
        <pt x="628" y="654" on="0"/>
        <pt x="676" y="639" on="0"/>
        <pt x="697" y="627" on="1"/>
        <pt x="719" y="637" on="0"/>
        <pt x="765" y="651" on="0"/>
        <pt x="784" y="655" on="1"/>
        <pt x="800" y="640" on="1"/>
        <pt x="800" y="379" on="1"/>
        <pt x="822" y="401" on="0"/>
        <pt x="880" y="425" on="0"/>
        <pt x="916" y="425" on="1"/>
        <pt x="982" y="425" on="0"/>
        <pt x="1073" y="330" on="0"/>
      </contour>
      <contour>
        <pt x="853" y="40" on="1"/>
        <pt x="902" y="40" on="0"/>
        <pt x="951" y="118" on="0"/>
        <pt x="952" y="205" on="1"/>
        <pt x="953" y="290" on="0"/>
        <pt x="908" y="356" on="0"/>
        <pt x="865" y="356" on="1"/>
        <pt x="847" y="356" on="0"/>
        <pt x="814" y="346" on="0"/>
        <pt x="800" y="336" on="1"/>
        <pt x="800" y="52" on="1"/>
        <pt x="810" y="47" on="0"/>
        <pt x="837" y="40" on="0"/>
      </contour>
    </TTGlyph>
    <TTGlyph name="f_f_h" xMin="26" yMin="0" xMax="1127" yMax="655">
      <contour>
        <pt x="284" y="0" on="1"/>
        <pt x="32" y="0" on="1"/>
        <pt x="32" y="47" on="1"/>
        <pt x="72" y="54" on="1"/>
        <pt x="81" y="55" on="0"/>
        <pt x="90" y="65" on="0"/>
        <pt x="90" y="75" on="1"/>
        <pt x="90" y="347" on="1"/>
        <pt x="26" y="358" on="1"/>
        <pt x="26" y="402" on="1"/>
        <pt x="93" y="413" on="1"/>
        <pt x="93" y="428" on="1"/>
        <pt x="95" y="506" on="0"/>
        <pt x="211" y="632" on="0"/>
        <pt x="280" y="632" on="1"/>
        <pt x="308" y="632" on="0"/>
        <pt x="360" y="612" on="0"/>
        <pt x="383" y="597" on="1"/>
        <pt x="358" y="530" on="1"/>
        <pt x="338" y="535" on="0"/>
        <pt x="295" y="541" on="0"/>
        <pt x="282" y="541" on="1"/>
        <pt x="244" y="540" on="0"/>
        <pt x="202" y="508" on="0"/>
        <pt x="202" y="457" on="1"/>
        <pt x="202" y="413" on="1"/>
        <pt x="396" y="413" on="1"/>
        <pt x="396" y="444" on="1"/>
        <pt x="396" y="484" on="0"/>
        <pt x="434" y="559" on="0"/>
        <pt x="495" y="618" on="0"/>
        <pt x="572" y="654" on="0"/>
        <pt x="610" y="654" on="1"/>
        <pt x="633" y="654" on="0"/>
        <pt x="682" y="639" on="0"/>
        <pt x="704" y="627" on="1"/>
        <pt x="726" y="637" on="0"/>
        <pt x="772" y="651" on="0"/>
        <pt x="791" y="655" on="1"/>
        <pt x="808" y="639" on="1"/>
        <pt x="808" y="372" on="1"/>
        <pt x="835" y="399" on="0"/>
        <pt x="903" y="423" on="0"/>
        <pt x="941" y="423" on="1"/>
        <pt x="1014" y="423" on="0"/>
        <pt x="1067" y="340" on="0"/>
        <pt x="1067" y="265" on="1"/>
        <pt x="1067" y="76" on="1"/>
        <pt x="1067" y="66" on="0"/>
        <pt x="1077" y="55" on="0"/>
        <pt x="1085" y="54" on="1"/>
        <pt x="1127" y="47" on="1"/>
        <pt x="1127" y="0" on="1"/>
        <pt x="907" y="0" on="1"/>
        <pt x="907" y="47" on="1"/>
        <pt x="937" y="54" on="1"/>
        <pt x="945" y="57" on="0"/>
        <pt x="954" y="66" on="0"/>
        <pt x="954" y="76" on="1"/>
        <pt x="954" y="251" on="1"/>
        <pt x="954" y="305" on="0"/>
        <pt x="923" y="353" on="0"/>
        <pt x="886" y="353" on="1"/>
        <pt x="867" y="353" on="0"/>
        <pt x="827" y="342" on="0"/>
        <pt x="808" y="330" on="1"/>
        <pt x="808" y="76" on="1"/>
        <pt x="808" y="66" on="0"/>
        <pt x="816" y="57" on="0"/>
        <pt x="825" y="54" on="1"/>
        <pt x="855" y="47" on="1"/>
        <pt x="855" y="0" on="1"/>
        <pt x="638" y="0" on="1"/>
        <pt x="638" y="47" on="1"/>
        <pt x="679" y="54" on="1"/>
        <pt x="687" y="55" on="0"/>
        <pt x="697" y="66" on="0"/>
        <pt x="697" y="75" on="1"/>
        <pt x="697" y="548" on="1"/>
        <pt x="675" y="555" on="0"/>
        <pt x="626" y="562" on="0"/>
        <pt x="602" y="562" on="1"/>
        <pt x="565" y="562" on="0"/>
        <pt x="504" y="526" on="0"/>
        <pt x="504" y="477" on="1"/>
        <pt x="504" y="413" on="1"/>
        <pt x="624" y="413" on="1"/>
        <pt x="624" y="350" on="1"/>
        <pt x="505" y="350" on="1"/>
        <pt x="505" y="75" on="1"/>
        <pt x="505" y="66" on="0"/>
        <pt x="514" y="56" on="0"/>
        <pt x="523" y="55" on="1"/>
        <pt x="588" y="47" on="1"/>
        <pt x="588" y="0" on="1"/>
        <pt x="335" y="0" on="1"/>
        <pt x="335" y="47" on="1"/>
        <pt x="375" y="54" on="1"/>
        <pt x="384" y="55" on="0"/>
        <pt x="393" y="65" on="0"/>
        <pt x="393" y="75" on="1"/>
        <pt x="393" y="350" on="1"/>
        <pt x="202" y="350" on="1"/>
        <pt x="202" y="75" on="1"/>
        <pt x="202" y="66" on="0"/>
        <pt x="211" y="56" on="0"/>
        <pt x="221" y="55" on="1"/>
        <pt x="284" y="47" on="1"/>
      </contour>
    </TTGlyph>
    <TTGlyph name="f_f_k" xMin="26" yMin="0" xMax="1115" yMax="655">
      <contour>
        <pt x="284" y="0" on="1"/>
        <pt x="32" y="0" on="1"/>
        <pt x="32" y="47" on="1"/>
        <pt x="72" y="54" on="1"/>
        <pt x="81" y="55" on="0"/>
        <pt x="90" y="65" on="0"/>
        <pt x="90" y="75" on="1"/>
        <pt x="90" y="347" on="1"/>
        <pt x="26" y="358" on="1"/>
        <pt x="26" y="402" on="1"/>
        <pt x="93" y="413" on="1"/>
        <pt x="93" y="428" on="1"/>
        <pt x="95" y="506" on="0"/>
        <pt x="211" y="632" on="0"/>
        <pt x="280" y="632" on="1"/>
        <pt x="308" y="632" on="0"/>
        <pt x="360" y="612" on="0"/>
        <pt x="383" y="597" on="1"/>
        <pt x="358" y="530" on="1"/>
        <pt x="338" y="535" on="0"/>
        <pt x="295" y="541" on="0"/>
        <pt x="282" y="541" on="1"/>
        <pt x="244" y="540" on="0"/>
        <pt x="202" y="508" on="0"/>
        <pt x="202" y="457" on="1"/>
        <pt x="202" y="413" on="1"/>
        <pt x="396" y="413" on="1"/>
        <pt x="396" y="444" on="1"/>
        <pt x="396" y="484" on="0"/>
        <pt x="434" y="559" on="0"/>
        <pt x="495" y="618" on="0"/>
        <pt x="572" y="654" on="0"/>
        <pt x="610" y="654" on="1"/>
        <pt x="633" y="654" on="0"/>
        <pt x="682" y="639" on="0"/>
        <pt x="704" y="627" on="1"/>
        <pt x="726" y="637" on="0"/>
        <pt x="772" y="651" on="0"/>
        <pt x="791" y="655" on="1"/>
        <pt x="808" y="639" on="1"/>
        <pt x="808" y="203" on="1"/>
        <pt x="952" y="357" on="1"/>
        <pt x="883" y="369" on="1"/>
        <pt x="883" y="413" on="1"/>
        <pt x="1094" y="413" on="1"/>
        <pt x="1094" y="369" on="1"/>
        <pt x="1051" y="358" on="1"/>
        <pt x="1038" y="356" on="0"/>
        <pt x="1023" y="349" on="0"/>
        <pt x="1015" y="342" on="1"/>
        <pt x="939" y="266" on="1"/>
        <pt x="951" y="251" on="0"/>
        <pt x="972" y="217" on="0"/>
        <pt x="984" y="195" on="1"/>
        <pt x="1048" y="79" on="1"/>
        <pt x="1052" y="69" on="0"/>
        <pt x="1064" y="60" on="0"/>
        <pt x="1074" y="58" on="1"/>
        <pt x="1115" y="47" on="1"/>
        <pt x="1115" y="0" on="1"/>
        <pt x="977" y="0" on="1"/>
        <pt x="960" y="0" on="0"/>
        <pt x="936" y="40" on="0"/>
        <pt x="923" y="68" on="1"/>
        <pt x="888" y="143" on="1"/>
        <pt x="881" y="156" on="0"/>
        <pt x="869" y="180" on="0"/>
        <pt x="863" y="190" on="1"/>
        <pt x="808" y="135" on="1"/>
        <pt x="808" y="76" on="1"/>
        <pt x="808" y="66" on="0"/>
        <pt x="817" y="55" on="0"/>
        <pt x="826" y="54" on="1"/>
        <pt x="866" y="47" on="1"/>
        <pt x="866" y="0" on="1"/>
        <pt x="638" y="0" on="1"/>
        <pt x="638" y="47" on="1"/>
        <pt x="679" y="54" on="1"/>
        <pt x="687" y="55" on="0"/>
        <pt x="697" y="67" on="0"/>
        <pt x="697" y="76" on="1"/>
        <pt x="697" y="548" on="1"/>
        <pt x="675" y="555" on="0"/>
        <pt x="626" y="562" on="0"/>
        <pt x="602" y="562" on="1"/>
        <pt x="565" y="562" on="0"/>
        <pt x="504" y="526" on="0"/>
        <pt x="504" y="477" on="1"/>
        <pt x="504" y="413" on="1"/>
        <pt x="624" y="413" on="1"/>
        <pt x="624" y="350" on="1"/>
        <pt x="505" y="350" on="1"/>
        <pt x="505" y="75" on="1"/>
        <pt x="505" y="66" on="0"/>
        <pt x="514" y="56" on="0"/>
        <pt x="523" y="55" on="1"/>
        <pt x="588" y="47" on="1"/>
        <pt x="588" y="0" on="1"/>
        <pt x="335" y="0" on="1"/>
        <pt x="335" y="47" on="1"/>
        <pt x="375" y="54" on="1"/>
        <pt x="384" y="55" on="0"/>
        <pt x="393" y="65" on="0"/>
        <pt x="393" y="75" on="1"/>
        <pt x="393" y="350" on="1"/>
        <pt x="202" y="350" on="1"/>
        <pt x="202" y="75" on="1"/>
        <pt x="202" y="66" on="0"/>
        <pt x="211" y="56" on="0"/>
        <pt x="221" y="55" on="1"/>
        <pt x="284" y="47" on="1"/>
      </contour>
    </TTGlyph>
    <TTGlyph name="f_f_l" xMin="26" yMin="0" xMax="873" yMax="655">
      <contour>
        <pt x="284" y="0" on="1"/>
        <pt x="32" y="0" on="1"/>
        <pt x="32" y="47" on="1"/>
        <pt x="72" y="54" on="1"/>
        <pt x="81" y="55" on="0"/>
        <pt x="90" y="65" on="0"/>
        <pt x="90" y="75" on="1"/>
        <pt x="90" y="347" on="1"/>
        <pt x="26" y="358" on="1"/>
        <pt x="26" y="402" on="1"/>
        <pt x="93" y="413" on="1"/>
        <pt x="93" y="428" on="1"/>
        <pt x="95" y="506" on="0"/>
        <pt x="211" y="632" on="0"/>
        <pt x="280" y="632" on="1"/>
        <pt x="308" y="632" on="0"/>
        <pt x="360" y="612" on="0"/>
        <pt x="383" y="597" on="1"/>
        <pt x="358" y="530" on="1"/>
        <pt x="338" y="535" on="0"/>
        <pt x="295" y="541" on="0"/>
        <pt x="282" y="541" on="1"/>
        <pt x="244" y="540" on="0"/>
        <pt x="202" y="508" on="0"/>
        <pt x="202" y="457" on="1"/>
        <pt x="202" y="413" on="1"/>
        <pt x="396" y="413" on="1"/>
        <pt x="396" y="444" on="1"/>
        <pt x="396" y="484" on="0"/>
        <pt x="434" y="559" on="0"/>
        <pt x="495" y="618" on="0"/>
        <pt x="572" y="654" on="0"/>
        <pt x="610" y="654" on="1"/>
        <pt x="633" y="654" on="0"/>
        <pt x="682" y="639" on="0"/>
        <pt x="704" y="627" on="1"/>
        <pt x="726" y="637" on="0"/>
        <pt x="772" y="651" on="0"/>
        <pt x="791" y="655" on="1"/>
        <pt x="808" y="639" on="1"/>
        <pt x="808" y="76" on="1"/>
        <pt x="808" y="66" on="0"/>
        <pt x="817" y="55" on="0"/>
        <pt x="826" y="54" on="1"/>
        <pt x="873" y="47" on="1"/>
        <pt x="873" y="0" on="1"/>
        <pt x="638" y="0" on="1"/>
        <pt x="638" y="47" on="1"/>
        <pt x="679" y="54" on="1"/>
        <pt x="687" y="55" on="0"/>
        <pt x="697" y="66" on="0"/>
        <pt x="697" y="75" on="1"/>
        <pt x="697" y="548" on="1"/>
        <pt x="675" y="555" on="0"/>
        <pt x="626" y="562" on="0"/>
        <pt x="602" y="562" on="1"/>
        <pt x="565" y="562" on="0"/>
        <pt x="504" y="526" on="0"/>
        <pt x="504" y="477" on="1"/>
        <pt x="504" y="413" on="1"/>
        <pt x="624" y="413" on="1"/>
        <pt x="624" y="350" on="1"/>
        <pt x="505" y="350" on="1"/>
        <pt x="505" y="75" on="1"/>
        <pt x="505" y="66" on="0"/>
        <pt x="514" y="56" on="0"/>
        <pt x="523" y="55" on="1"/>
        <pt x="588" y="47" on="1"/>
        <pt x="588" y="0" on="1"/>
        <pt x="335" y="0" on="1"/>
        <pt x="335" y="47" on="1"/>
        <pt x="375" y="54" on="1"/>
        <pt x="384" y="55" on="0"/>
        <pt x="393" y="65" on="0"/>
        <pt x="393" y="75" on="1"/>
        <pt x="393" y="350" on="1"/>
        <pt x="202" y="350" on="1"/>
        <pt x="202" y="75" on="1"/>
        <pt x="202" y="66" on="0"/>
        <pt x="211" y="56" on="0"/>
        <pt x="221" y="55" on="1"/>
        <pt x="284" y="47" on="1"/>
      </contour>
    </TTGlyph>
    <TTGlyph name="f_h" xMin="26" yMin="0" xMax="824" yMax="655">
      <contour>
        <pt x="285" y="47" on="1"/>
        <pt x="285" y="0" on="1"/>
        <pt x="32" y="0" on="1"/>
        <pt x="32" y="47" on="1"/>
        <pt x="72" y="54" on="1"/>
        <pt x="81" y="55" on="0"/>
        <pt x="90" y="65" on="0"/>
        <pt x="90" y="75" on="1"/>
        <pt x="90" y="347" on="1"/>
        <pt x="26" y="358" on="1"/>
        <pt x="26" y="402" on="1"/>
        <pt x="93" y="414" on="1"/>
        <pt x="93" y="444" on="1"/>
        <pt x="93" y="484" on="0"/>
        <pt x="131" y="559" on="0"/>
        <pt x="192" y="618" on="0"/>
        <pt x="269" y="654" on="0"/>
        <pt x="307" y="654" on="1"/>
        <pt x="330" y="654" on="0"/>
        <pt x="380" y="639" on="0"/>
        <pt x="402" y="626" on="1"/>
        <pt x="424" y="636" on="0"/>
        <pt x="470" y="651" on="0"/>
        <pt x="489" y="655" on="1"/>
        <pt x="506" y="639" on="1"/>
        <pt x="506" y="373" on="1"/>
        <pt x="533" y="399" on="0"/>
        <pt x="600" y="423" on="0"/>
        <pt x="639" y="423" on="1"/>
        <pt x="711" y="423" on="0"/>
        <pt x="765" y="340" on="0"/>
        <pt x="765" y="265" on="1"/>
        <pt x="765" y="76" on="1"/>
        <pt x="765" y="66" on="0"/>
        <pt x="774" y="55" on="0"/>
        <pt x="782" y="54" on="1"/>
        <pt x="824" y="47" on="1"/>
        <pt x="824" y="0" on="1"/>
        <pt x="605" y="0" on="1"/>
        <pt x="605" y="47" on="1"/>
        <pt x="634" y="54" on="1"/>
        <pt x="642" y="57" on="0"/>
        <pt x="651" y="66" on="0"/>
        <pt x="651" y="76" on="1"/>
        <pt x="651" y="251" on="1"/>
        <pt x="651" y="305" on="0"/>
        <pt x="620" y="353" on="0"/>
        <pt x="583" y="353" on="1"/>
        <pt x="564" y="353" on="0"/>
        <pt x="524" y="342" on="0"/>
        <pt x="506" y="330" on="1"/>
        <pt x="506" y="76" on="1"/>
        <pt x="506" y="66" on="0"/>
        <pt x="514" y="57" on="0"/>
        <pt x="523" y="54" on="1"/>
        <pt x="552" y="47" on="1"/>
        <pt x="552" y="0" on="1"/>
        <pt x="335" y="0" on="1"/>
        <pt x="335" y="47" on="1"/>
        <pt x="376" y="54" on="1"/>
        <pt x="384" y="55" on="0"/>
        <pt x="394" y="66" on="0"/>
        <pt x="394" y="75" on="1"/>
        <pt x="394" y="548" on="1"/>
        <pt x="372" y="555" on="0"/>
        <pt x="322" y="562" on="0"/>
        <pt x="299" y="562" on="1"/>
        <pt x="262" y="562" on="0"/>
        <pt x="201" y="526" on="0"/>
        <pt x="201" y="477" on="1"/>
        <pt x="201" y="413" on="1"/>
        <pt x="322" y="413" on="1"/>
        <pt x="322" y="350" on="1"/>
        <pt x="202" y="350" on="1"/>
        <pt x="202" y="75" on="1"/>
        <pt x="202" y="66" on="0"/>
        <pt x="211" y="56" on="0"/>
        <pt x="221" y="55" on="1"/>
      </contour>
    </TTGlyph>
    <TTGlyph name="f_k" xMin="26" yMin="0" xMax="812" yMax="655">
      <contour>
        <pt x="285" y="47" on="1"/>
        <pt x="285" y="0" on="1"/>
        <pt x="32" y="0" on="1"/>
        <pt x="32" y="47" on="1"/>
        <pt x="72" y="54" on="1"/>
        <pt x="81" y="55" on="0"/>
        <pt x="90" y="65" on="0"/>
        <pt x="90" y="75" on="1"/>
        <pt x="90" y="347" on="1"/>
        <pt x="26" y="358" on="1"/>
        <pt x="26" y="402" on="1"/>
        <pt x="93" y="414" on="1"/>
        <pt x="93" y="444" on="1"/>
        <pt x="93" y="484" on="0"/>
        <pt x="131" y="559" on="0"/>
        <pt x="192" y="618" on="0"/>
        <pt x="269" y="654" on="0"/>
        <pt x="307" y="654" on="1"/>
        <pt x="330" y="654" on="0"/>
        <pt x="380" y="639" on="0"/>
        <pt x="402" y="626" on="1"/>
        <pt x="424" y="636" on="0"/>
        <pt x="470" y="651" on="0"/>
        <pt x="489" y="655" on="1"/>
        <pt x="506" y="639" on="1"/>
        <pt x="506" y="204" on="1"/>
        <pt x="649" y="357" on="1"/>
        <pt x="581" y="369" on="1"/>
        <pt x="581" y="413" on="1"/>
        <pt x="791" y="413" on="1"/>
        <pt x="791" y="369" on="1"/>
        <pt x="749" y="358" on="1"/>
        <pt x="736" y="356" on="0"/>
        <pt x="720" y="349" on="0"/>
        <pt x="713" y="342" on="1"/>
        <pt x="636" y="266" on="1"/>
        <pt x="649" y="251" on="0"/>
        <pt x="669" y="217" on="0"/>
        <pt x="681" y="195" on="1"/>
        <pt x="745" y="79" on="1"/>
        <pt x="750" y="69" on="0"/>
        <pt x="761" y="60" on="0"/>
        <pt x="771" y="58" on="1"/>
        <pt x="812" y="47" on="1"/>
        <pt x="812" y="0" on="1"/>
        <pt x="674" y="0" on="1"/>
        <pt x="657" y="0" on="0"/>
        <pt x="633" y="40" on="0"/>
        <pt x="620" y="68" on="1"/>
        <pt x="585" y="143" on="1"/>
        <pt x="578" y="156" on="0"/>
        <pt x="567" y="180" on="0"/>
        <pt x="560" y="190" on="1"/>
        <pt x="506" y="136" on="1"/>
        <pt x="506" y="76" on="1"/>
        <pt x="506" y="66" on="0"/>
        <pt x="514" y="55" on="0"/>
        <pt x="523" y="54" on="1"/>
        <pt x="563" y="47" on="1"/>
        <pt x="563" y="0" on="1"/>
        <pt x="335" y="0" on="1"/>
        <pt x="335" y="47" on="1"/>
        <pt x="376" y="54" on="1"/>
        <pt x="384" y="55" on="0"/>
        <pt x="394" y="67" on="0"/>
        <pt x="394" y="76" on="1"/>
        <pt x="394" y="548" on="1"/>
        <pt x="372" y="555" on="0"/>
        <pt x="322" y="562" on="0"/>
        <pt x="299" y="562" on="1"/>
        <pt x="262" y="562" on="0"/>
        <pt x="201" y="526" on="0"/>
        <pt x="201" y="477" on="1"/>
        <pt x="201" y="413" on="1"/>
        <pt x="322" y="413" on="1"/>
        <pt x="322" y="350" on="1"/>
        <pt x="202" y="350" on="1"/>
        <pt x="202" y="75" on="1"/>
        <pt x="202" y="66" on="0"/>
        <pt x="211" y="56" on="0"/>
        <pt x="221" y="55" on="1"/>
      </contour>
    </TTGlyph>
    <TTGlyph name="f_l" xMin="26" yMin="0" xMax="570" yMax="655">
      <contour>
        <pt x="285" y="47" on="1"/>
        <pt x="285" y="0" on="1"/>
        <pt x="32" y="0" on="1"/>
        <pt x="32" y="47" on="1"/>
        <pt x="72" y="54" on="1"/>
        <pt x="81" y="55" on="0"/>
        <pt x="90" y="65" on="0"/>
        <pt x="90" y="75" on="1"/>
        <pt x="90" y="347" on="1"/>
        <pt x="26" y="358" on="1"/>
        <pt x="26" y="402" on="1"/>
        <pt x="93" y="414" on="1"/>
        <pt x="93" y="444" on="1"/>
        <pt x="93" y="484" on="0"/>
        <pt x="131" y="559" on="0"/>
        <pt x="192" y="618" on="0"/>
        <pt x="269" y="654" on="0"/>
        <pt x="307" y="654" on="1"/>
        <pt x="330" y="654" on="0"/>
        <pt x="380" y="639" on="0"/>
        <pt x="402" y="626" on="1"/>
        <pt x="424" y="636" on="0"/>
        <pt x="470" y="651" on="0"/>
        <pt x="489" y="655" on="1"/>
        <pt x="506" y="639" on="1"/>
        <pt x="506" y="76" on="1"/>
        <pt x="506" y="66" on="0"/>
        <pt x="515" y="55" on="0"/>
        <pt x="523" y="54" on="1"/>
        <pt x="570" y="47" on="1"/>
        <pt x="570" y="0" on="1"/>
        <pt x="335" y="0" on="1"/>
        <pt x="335" y="47" on="1"/>
        <pt x="376" y="54" on="1"/>
        <pt x="384" y="55" on="0"/>
        <pt x="394" y="66" on="0"/>
        <pt x="394" y="75" on="1"/>
        <pt x="394" y="548" on="1"/>
        <pt x="372" y="555" on="0"/>
        <pt x="322" y="562" on="0"/>
        <pt x="299" y="562" on="1"/>
        <pt x="262" y="562" on="0"/>
        <pt x="201" y="526" on="0"/>
        <pt x="201" y="477" on="1"/>
        <pt x="201" y="413" on="1"/>
        <pt x="322" y="413" on="1"/>
        <pt x="322" y="350" on="1"/>
        <pt x="202" y="350" on="1"/>
        <pt x="202" y="75" on="1"/>
        <pt x="202" y="66" on="0"/>
        <pt x="211" y="56" on="0"/>
        <pt x="221" y="55" on="1"/>
      </contour>
    </TTGlyph>
    <TTGlyph name="five" xMin="26" yMin="-11" xMax="397" yMax="501">
      <contour>
        <pt x="56" y="100" on="1"/>
        <pt x="78" y="82" on="0"/>
        <pt x="136" y="59" on="0"/>
        <pt x="167" y="59" on="1"/>
        <pt x="213" y="59" on="0"/>
        <pt x="273" y="113" on="0"/>
        <pt x="273" y="161" on="1"/>
        <pt x="273" y="204" on="0"/>
        <pt x="224" y="256" on="0"/>
        <pt x="181" y="256" on="1"/>
        <pt x="160" y="256" on="0"/>
        <pt x="120" y="243" on="0"/>
        <pt x="100" y="233" on="1"/>
        <pt x="61" y="259" on="1"/>
        <pt x="80" y="501" on="1"/>
        <pt x="370" y="501" on="1"/>
        <pt x="360" y="418" on="1"/>
        <pt x="146" y="418" on="1"/>
        <pt x="131" y="294" on="1"/>
        <pt x="154" y="312" on="0"/>
        <pt x="209" y="326" on="0"/>
        <pt x="234" y="326" on="1"/>
        <pt x="308" y="326" on="0"/>
        <pt x="397" y="242" on="0"/>
        <pt x="397" y="171" on="1"/>
        <pt x="397" y="89" on="0"/>
        <pt x="281" y="-11" on="0"/>
        <pt x="194" y="-11" on="1"/>
        <pt x="141" y="-11" on="0"/>
        <pt x="51" y="28" on="0"/>
        <pt x="26" y="59" on="1"/>
      </contour>
    </TTGlyph>
    <TTGlyph name="five.tf" xMin="36" yMin="-11" xMax="407" yMax="501">
      <component glyphName="five" x="10" y="0" flags="0x4"/>
    </TTGlyph>
    <TTGlyph name="four" xMin="9" yMin="0" xMax="436" yMax="504">
      <contour>
        <pt x="436" y="91" on="1"/>
        <pt x="358" y="91" on="1"/>
        <pt x="358" y="0" on="1"/>
        <pt x="252" y="0" on="1"/>
        <pt x="252" y="91" on="1"/>
        <pt x="34" y="91" on="1"/>
        <pt x="9" y="143" on="1"/>
        <pt x="62" y="227" on="0"/>
        <pt x="159" y="408" on="0"/>
        <pt x="205" y="504" on="1"/>
        <pt x="305" y="504" on="1"/>
        <pt x="321" y="482" on="1"/>
        <pt x="254" y="355" on="0"/>
        <pt x="155" y="193" on="0"/>
        <pt x="99" y="146" on="1"/>
        <pt x="253" y="154" on="1"/>
        <pt x="265" y="268" on="1"/>
        <pt x="358" y="273" on="1"/>
        <pt x="358" y="158" on="1"/>
        <pt x="436" y="162" on="1"/>
      </contour>
    </TTGlyph>
    <TTGlyph name="four.dnom" xMin="24" yMin="0" xMax="350" yMax="361">
      <component glyphName="four.numr" x="-3" y="-227" flags="0x4"/>
    </TTGlyph>
    <TTGlyph name="four.numr" xMin="27" yMin="227" xMax="353" yMax="588">
      <component glyphName="foursuperior" x="5" y="0" flags="0x4"/>
    </TTGlyph>
    <TTGlyph name="four.tf" xMin="7" yMin="0" xMax="434" yMax="504">
      <component glyphName="four" x="-2" y="0" flags="0x4"/>
    </TTGlyph>
    <TTGlyph name="foursuperior" xMin="22" yMin="227" xMax="348" yMax="588">
      <contour>
        <pt x="348" y="295" on="1"/>
        <pt x="286" y="295" on="1"/>
        <pt x="286" y="227" on="1"/>
        <pt x="205" y="227" on="1"/>
        <pt x="205" y="295" on="1"/>
        <pt x="48" y="295" on="1"/>
        <pt x="22" y="331" on="1"/>
        <pt x="64" y="394" on="0"/>
        <pt x="135" y="524" on="0"/>
        <pt x="165" y="588" on="1"/>
        <pt x="243" y="588" on="1"/>
        <pt x="256" y="572" on="1"/>
        <pt x="202" y="470" on="0"/>
        <pt x="130" y="370" on="0"/>
        <pt x="97" y="341" on="1"/>
        <pt x="207" y="347" on="1"/>
        <pt x="221" y="435" on="1"/>
        <pt x="286" y="435" on="1"/>
        <pt x="286" y="352" on="1"/>
        <pt x="348" y="355" on="1"/>
      </contour>
    </TTGlyph>
    <TTGlyph name="fraction" xMin="-143" yMin="0" xMax="285" yMax="568">
      <contour>
        <pt x="-65" y="0" on="1"/>
        <pt x="-143" y="0" on="1"/>
        <pt x="207" y="568" on="1"/>
        <pt x="285" y="568" on="1"/>
      </contour>
    </TTGlyph>
    <TTGlyph name="g" xMin="27" yMin="-201" xMax="466" yMax="426">
      <contour>
        <pt x="154" y="282" on="1"/>
        <pt x="154" y="232" on="0"/>
        <pt x="188" y="184" on="0"/>
        <pt x="222" y="184" on="1"/>
        <pt x="256" y="184" on="0"/>
        <pt x="287" y="232" on="0"/>
        <pt x="287" y="281" on="1"/>
        <pt x="287" y="332" on="0"/>
        <pt x="255" y="378" on="0"/>
        <pt x="221" y="378" on="1"/>
        <pt x="190" y="378" on="0"/>
        <pt x="154" y="335" on="0"/>
      </contour>
      <contour>
        <pt x="451" y="-38" on="1"/>
        <pt x="451" y="-112" on="0"/>
        <pt x="318" y="-201" on="0"/>
        <pt x="208" y="-201" on="1"/>
        <pt x="114" y="-201" on="0"/>
        <pt x="27" y="-136" on="0"/>
        <pt x="27" y="-87" on="1"/>
        <pt x="27" y="-50" on="0"/>
        <pt x="69" y="-4" on="0"/>
        <pt x="105" y="9" on="1"/>
        <pt x="83" y="19" on="0"/>
        <pt x="62" y="53" on="0"/>
        <pt x="62" y="75" on="1"/>
        <pt x="62" y="103" on="0"/>
        <pt x="92" y="142" on="0"/>
        <pt x="116" y="153" on="1"/>
        <pt x="76" y="170" on="0"/>
        <pt x="40" y="234" on="0"/>
        <pt x="40" y="275" on="1"/>
        <pt x="40" y="347" on="0"/>
        <pt x="141" y="425" on="0"/>
        <pt x="228" y="425" on="1"/>
        <pt x="270" y="425" on="0"/>
        <pt x="336" y="405" on="0"/>
        <pt x="358" y="386" on="1"/>
        <pt x="372" y="405" on="0"/>
        <pt x="408" y="426" on="0"/>
        <pt x="427" y="426" on="1"/>
        <pt x="437" y="426" on="0"/>
        <pt x="458" y="421" on="0"/>
        <pt x="466" y="419" on="1"/>
        <pt x="466" y="340" on="1"/>
        <pt x="389" y="340" on="1"/>
        <pt x="393" y="328" on="0"/>
        <pt x="398" y="301" on="0"/>
        <pt x="398" y="286" on="1"/>
        <pt x="398" y="220" on="0"/>
        <pt x="307" y="136" on="0"/>
        <pt x="214" y="136" on="1"/>
        <pt x="198" y="136" on="0"/>
        <pt x="170" y="139" on="0"/>
        <pt x="157" y="141" on="1"/>
        <pt x="150" y="134" on="0"/>
        <pt x="144" y="118" on="0"/>
        <pt x="144" y="109" on="1"/>
        <pt x="144" y="88" on="0"/>
        <pt x="181" y="72" on="0"/>
        <pt x="224" y="72" on="1"/>
        <pt x="303" y="72" on="1"/>
        <pt x="375" y="72" on="0"/>
        <pt x="451" y="17" on="0"/>
      </contour>
      <contour>
        <pt x="228" y="-147" on="1"/>
        <pt x="277" y="-147" on="0"/>
        <pt x="336" y="-102" on="0"/>
        <pt x="336" y="-59" on="1"/>
        <pt x="336" y="-31" on="0"/>
        <pt x="306" y="-5" on="0"/>
        <pt x="267" y="-5" on="1"/>
        <pt x="186" y="-5" on="1"/>
        <pt x="178" y="-5" on="0"/>
        <pt x="162" y="-4" on="0"/>
        <pt x="155" y="-3" on="1"/>
        <pt x="146" y="-15" on="0"/>
        <pt x="135" y="-47" on="0"/>
        <pt x="135" y="-67" on="1"/>
        <pt x="135" y="-101" on="0"/>
        <pt x="177" y="-147" on="0"/>
      </contour>
    </TTGlyph>
    <TTGlyph name="gbreve" xMin="27" yMin="-201" xMax="466" yMax="614">
      <component glyphName="g" x="0" y="0" flags="0x204"/>
      <component glyphName="uni0306" x="222" y="0" flags="0x4"/>
    </TTGlyph>
    <TTGlyph name="gcircumflex" xMin="27" yMin="-201" xMax="466" yMax="641">
      <component glyphName="g" x="0" y="0" flags="0x204"/>
      <component glyphName="uni0302" x="222" y="0" flags="0x4"/>
    </TTGlyph>
    <TTGlyph name="gcommaaccent" xMin="27" yMin="-201" xMax="466" yMax="657">
      <component glyphName="g" x="0" y="0" flags="0x204"/>
      <component glyphName="uni0312" x="222" y="0" flags="0x4"/>
    </TTGlyph>
    <TTGlyph name="gdotaccent" xMin="27" yMin="-201" xMax="466" yMax="598">
      <component glyphName="g" x="0" y="0" flags="0x204"/>
      <component glyphName="uni0307" x="222" y="0" flags="0x4"/>
    </TTGlyph>
</ttFont>
